<?xml version="1.0" standalone="no"?>
  <!DOCTYPE svg PUBLIC "-//W3C//DTD SVG 1.1//EN" "http://www.w3.org/Graphics/SVG/1.1/DTD/svg11.dtd" >
  <svg>
  <metadata>
  Created by font-carrier
  </metadata>
  <defs>
  <font id="CascadiaCode-Bold" horiz-adv-x="3600" vert-adv-y="3600" >
    <font-face
      
      font-family="Cascadia Code"
      
      font-weight="400"
      
      font-stretch="normal"
      
      units-per-em="2048"
      
      ascent="1900"
      
      descent="-480"
      
    />
      <missing-glyph />

      

      
      <glyph glyph-name="uni41" unicode="&#x41;" d="M28 0L313 0L383 269L817 269L887 0L1172 0L762 1420L438 1420ZM446 513L591 1073L609 1073L754 513Z"  horiz-adv-x="1200" vert-adv-y="2048"  />

      
      <glyph glyph-name="unic1" unicode="&#xc1;" d="M28 0L313 0L383 269L817 269L887 0L1172 0L762 1420L438 1420ZM446 513L591 1073L609 1073L754 513ZM452 1580L734 1580L1038 1855L674 1855Z"  horiz-adv-x="1200" vert-adv-y="2048"  />

      
      <glyph glyph-name="uni0102" unicode="&#x0102;" d="M28 0L313 0L383 269L817 269L887 0L1172 0L762 1420L438 1420ZM600 1553C848 1553 991 1665 991 1860L724 1860C724 1765 679 1731 600 1731C522 1731 476 1765 476 1860L209 1860C209 1665 352 1553 600 1553ZM446 513L591 1073L609 1073L754 513Z"  horiz-adv-x="1200" vert-adv-y="2048"  />

      
      <glyph glyph-name="uni1EAE" unicode="&#x1EAE;" d="M28 0L313 0L383 269L817 269L887 0L1172 0L762 1420L438 1420ZM600 1553C848 1553 991 1665 991 1860L724 1860C724 1765 679 1731 600 1731C522 1731 476 1765 476 1860L209 1860C209 1665 352 1553 600 1553ZM446 513L591 1073L609 1073L754 513ZM452 1980L734 1980L1038 2255L674 2255Z"  horiz-adv-x="1200" vert-adv-y="2048"  />

      
      <glyph glyph-name="uni1EB6" unicode="&#x1EB6;" d="M28 0L313 0L383 269L817 269L887 0L1172 0L762 1420L438 1420ZM600 1553C848 1553 991 1665 991 1860L724 1860C724 1765 679 1731 600 1731C522 1731 476 1765 476 1860L209 1860C209 1665 352 1553 600 1553ZM600-448C694-448 771-372 771-278C771-182 694-107 600-107C506-107 429-182 429-278C429-372 506-448 600-448ZM446 513L591 1073L609 1073L754 513Z"  horiz-adv-x="1200" vert-adv-y="2048"  />

      
      <glyph glyph-name="uni1EB0" unicode="&#x1EB0;" d="M28 0L313 0L383 269L817 269L887 0L1172 0L762 1420L438 1420ZM600 1553C848 1553 991 1665 991 1860L724 1860C724 1765 679 1731 600 1731C522 1731 476 1765 476 1860L209 1860C209 1665 352 1553 600 1553ZM446 513L591 1073L609 1073L754 513ZM464 1980L746 1980L524 2255L161 2255Z"  horiz-adv-x="1200" vert-adv-y="2048"  />

      
      <glyph glyph-name="uni1EB2" unicode="&#x1EB2;" d="M28 0L313 0L383 269L817 269L887 0L1172 0L762 1420L438 1420ZM600 1553C848 1553 991 1665 991 1860L724 1860C724 1765 679 1731 600 1731C522 1731 476 1765 476 1860L209 1860C209 1665 352 1553 600 1553ZM511 1929L691 1929C691 1942 705 1948 733 1964C824 2017 860 2061 860 2141C860 2256 777 2312 608 2312C485 2312 393 2285 335 2229L402 2085C443 2114 492 2128 550 2128C594 2128 615 2115 615 2094C615 2080 608 2064 577 2045C526 2009 511 1979 511 1950ZM446 513L591 1073L609 1073L754 513Z"  horiz-adv-x="1200" vert-adv-y="2048"  />

      
      <glyph glyph-name="uni1EB4" unicode="&#x1EB4;" d="M28 0L313 0L383 269L817 269L887 0L1172 0L762 1420L438 1420ZM208 1966L466 1966L466 2026C466 2066 483 2083 523 2083C543 2083 577 2072 631 2047C701 2014 755 2000 807 2000C950 2000 1012 2081 1012 2265L1012 2315L755 2315L755 2263C755 2230 744 2216 722 2216C700 2216 662 2229 590 2259C535 2281 488 2291 435 2291C278 2291 208 2207 208 2016ZM600 1553C848 1553 991 1665 991 1860L724 1860C724 1765 679 1731 600 1731C522 1731 476 1765 476 1860L209 1860C209 1665 352 1553 600 1553ZM446 513L591 1073L609 1073L754 513Z"  horiz-adv-x="1200" vert-adv-y="2048"  />

      
      <glyph glyph-name="uni01CD" unicode="&#x01CD;" d="M28 0L313 0L383 269L817 269L887 0L1172 0L762 1420L438 1420ZM464 1580L736 1580L979 1840L682 1840L600 1723L518 1840L221 1840ZM446 513L591 1073L609 1073L754 513Z"  horiz-adv-x="1200" vert-adv-y="2048"  />

      
      <glyph glyph-name="unic2" unicode="&#xc2;" d="M28 0L313 0L383 269L817 269L887 0L1172 0L762 1420L438 1420ZM222 1580L519 1580L601 1695L683 1580L980 1580L737 1840L465 1840ZM446 513L591 1073L609 1073L754 513Z"  horiz-adv-x="1200" vert-adv-y="2048"  />

      
      <glyph glyph-name="uni1EA4" unicode="&#x1EA4;" d="M28 0L313 0L383 269L817 269L887 0L1172 0L762 1420L438 1420ZM222 1580L519 1580L601 1695L683 1580L980 1580L737 1840L465 1840ZM446 513L591 1073L609 1073L754 513ZM836 1828L1118 1828L1422 2103L1058 2103Z"  horiz-adv-x="1200" vert-adv-y="2048"  />

      
      <glyph glyph-name="uni1EAC" unicode="&#x1EAC;" d="M28 0L313 0L383 269L817 269L887 0L1172 0L762 1420L438 1420ZM222 1580L519 1580L601 1695L683 1580L980 1580L737 1840L465 1840ZM600-448C694-448 771-372 771-278C771-182 694-107 600-107C506-107 429-182 429-278C429-372 506-448 600-448ZM446 513L591 1073L609 1073L754 513Z"  horiz-adv-x="1200" vert-adv-y="2048"  />

      
      <glyph glyph-name="uni1EA6" unicode="&#x1EA6;" d="M28 0L313 0L383 269L817 269L887 0L1172 0L762 1420L438 1420ZM222 1580L519 1580L601 1695L683 1580L980 1580L737 1840L465 1840ZM446 513L591 1073L609 1073L754 513ZM848 1828L1130 1828L908 2103L545 2103Z"  horiz-adv-x="1200" vert-adv-y="2048"  />

      
      <glyph glyph-name="uni1EA8" unicode="&#x1EA8;" d="M28 0L313 0L383 269L817 269L887 0L1172 0L762 1420L438 1420ZM895 1777L1075 1777C1075 1790 1089 1796 1117 1812C1208 1865 1244 1909 1244 1989C1244 2104 1161 2160 992 2160C869 2160 777 2133 719 2077L786 1933C827 1962 876 1976 934 1976C978 1976 999 1963 999 1942C999 1928 992 1912 961 1893C910 1857 895 1827 895 1798ZM222 1580L519 1580L601 1695L683 1580L980 1580L737 1840L465 1840ZM446 513L591 1073L609 1073L754 513Z"  horiz-adv-x="1200" vert-adv-y="2048"  />

      
      <glyph glyph-name="uni1EAA" unicode="&#x1EAA;" d="M28 0L313 0L383 269L817 269L887 0L1172 0L762 1420L438 1420ZM208 1946L466 1946L466 2006C466 2046 483 2063 523 2063C543 2063 577 2052 631 2027C701 1994 755 1980 807 1980C950 1980 1012 2061 1012 2245L1012 2295L755 2295L755 2243C755 2210 744 2196 722 2196C700 2196 662 2209 590 2239C535 2261 488 2271 435 2271C278 2271 208 2187 208 1996ZM222 1580L519 1580L601 1695L683 1580L980 1580L737 1840L465 1840ZM446 513L591 1073L609 1073L754 513Z"  horiz-adv-x="1200" vert-adv-y="2048"  />

      
      <glyph glyph-name="unic4" unicode="&#xc4;" d="M28 0L313 0L383 269L817 269L887 0L1172 0L762 1420L438 1420ZM359 1586C454 1586 529 1662 529 1757C529 1852 454 1927 359 1927C264 1927 188 1852 188 1757C188 1662 264 1586 359 1586ZM841 1586C936 1586 1012 1662 1012 1757C1012 1852 936 1927 841 1927C747 1927 671 1852 671 1757C671 1662 747 1586 841 1586ZM446 513L591 1073L609 1073L754 513Z"  horiz-adv-x="1200" vert-adv-y="2048"  />

      
      <glyph glyph-name="uni1EA0" unicode="&#x1EA0;" d="M28 0L313 0L383 269L817 269L887 0L1172 0L762 1420L438 1420ZM600-448C694-448 771-372 771-278C771-182 694-107 600-107C506-107 429-182 429-278C429-372 506-448 600-448ZM446 513L591 1073L609 1073L754 513Z"  horiz-adv-x="1200" vert-adv-y="2048"  />

      
      <glyph glyph-name="unic0" unicode="&#xc0;" d="M28 0L313 0L383 269L817 269L887 0L1172 0L762 1420L438 1420ZM446 513L591 1073L609 1073L754 513ZM464 1580L746 1580L524 1855L161 1855Z"  horiz-adv-x="1200" vert-adv-y="2048"  />

      
      <glyph glyph-name="uni1EA2" unicode="&#x1EA2;" d="M28 0L313 0L383 269L817 269L887 0L1172 0L762 1420L438 1420ZM511 1529L691 1529C691 1542 705 1548 733 1564C824 1617 860 1661 860 1741C860 1856 777 1912 608 1912C485 1912 393 1885 335 1829L402 1685C443 1714 492 1728 550 1728C594 1728 615 1715 615 1694C615 1680 608 1664 577 1645C526 1609 511 1579 511 1550ZM446 513L591 1073L609 1073L754 513Z"  horiz-adv-x="1200" vert-adv-y="2048"  />

      
      <glyph glyph-name="uni2C6D" unicode="&#x2C6D;" d="M508-27C652-27 734 57 745 219L764 219L776-13L1168 0L1168 238L1022 267L1022 1420L758 1420L758 1193L742 1193C727 1355 647 1440 508 1440C211 1440 56 1184 56 693C56 220 211-27 508-27ZM758 526C758 310 716 224 563 224C412 224 333 385 333 693C333 1019 412 1189 563 1189C691 1189 758 1085 758 887Z"  horiz-adv-x="1200" vert-adv-y="2048"  />

      
      <glyph glyph-name="uni0100" unicode="&#x0100;" d="M28 0L313 0L383 269L817 269L887 0L1172 0L762 1420L438 1420ZM213 1563L987 1563L987 1801L213 1801ZM446 513L591 1073L609 1073L754 513Z"  horiz-adv-x="1200" vert-adv-y="2048"  />

      
      <glyph glyph-name="uni0104" unicode="&#x0104;" d="M1018-424C1052-424 1094-422 1133-418L1151-201C1121-204 1092-206 1069-206C1011-206 978-176 978-125C978-45 1042 0 1152 0L1172 0L762 1420L438 1420L28 0L313 0L383 269L817 269L887 0L895 0C821-35 778-108 778-204C778-344 865-424 1018-424ZM446 513L591 1073L609 1073L754 513Z"  horiz-adv-x="1200" vert-adv-y="2048"  />

      
      <glyph glyph-name="unic5" unicode="&#xc5;" d="M28 0L313 0L383 269L817 269L887 0L1172 0L762 1420L438 1420ZM600 1480C783 1480 888 1558 888 1694C888 1830 783 1908 600 1908C417 1908 312 1830 312 1694C312 1558 417 1480 600 1480ZM446 513L591 1073L609 1073L754 513ZM600 1629C549 1629 521 1652 521 1694C521 1736 549 1760 600 1760C651 1760 679 1736 679 1694C679 1652 651 1629 600 1629Z"  horiz-adv-x="1200" vert-adv-y="2048"  />

      
      <glyph glyph-name="uni01FA" unicode="&#x01FA;" d="M28 0L313 0L383 269L817 269L887 0L1172 0L762 1420L438 1420ZM600 1480C783 1480 888 1558 888 1694C888 1792 833 1861 733 1891L959 2095L595 2095L411 1867C347 1831 312 1772 312 1694C312 1558 417 1480 600 1480ZM446 513L591 1073L609 1073L754 513ZM600 1629C549 1629 521 1652 521 1694C521 1736 549 1760 600 1760C651 1760 679 1736 679 1694C679 1652 651 1629 600 1629Z"  horiz-adv-x="1200" vert-adv-y="2048"  />

      
      <glyph glyph-name="uni023A" unicode="&#x023A;" d="M548-330L653 269L817 269L887 0L1172 0L820 1218L904 1692L701 1716L649 1420L438 1420L28 0L313 0L383 269L446 269L345-306ZM529 513L446 513L591 1073L609 1073L620 1029ZM690 761L754 513L646 513Z"  horiz-adv-x="1200" vert-adv-y="2048"  />

      
      <glyph glyph-name="unic3" unicode="&#xc3;" d="M28 0L313 0L383 269L817 269L887 0L1172 0L762 1420L438 1420ZM208 1566L466 1566L466 1626C466 1666 483 1683 523 1683C543 1683 577 1672 631 1647C701 1614 755 1600 807 1600C950 1600 1012 1681 1012 1865L1012 1915L755 1915L755 1863C755 1830 744 1816 722 1816C700 1816 662 1829 590 1859C535 1881 488 1891 435 1891C278 1891 208 1807 208 1616ZM446 513L591 1073L609 1073L754 513Z"  horiz-adv-x="1200" vert-adv-y="2048"  />

      
      <glyph glyph-name="unic6" unicode="&#xc6;" d="M28 0L293 0L326 164L575 164L575 0L1117 0L1117 242L813 242L813 590L1057 590L1057 832L813 832L813 1178L1117 1178L1117 1420L359 1420ZM375 403L533 1186L575 1186L575 403Z"  horiz-adv-x="1200" vert-adv-y="2048"  />

      
      <glyph glyph-name="uni01FC" unicode="&#x01FC;" d="M28 0L293 0L326 164L575 164L575 0L1117 0L1117 242L813 242L813 590L1057 590L1057 832L813 832L813 1178L1117 1178L1117 1420L359 1420ZM375 403L533 1186L575 1186L575 403ZM492 1580L774 1580L1078 1855L714 1855Z"  horiz-adv-x="1200" vert-adv-y="2048"  />

      
      <glyph glyph-name="uni42" unicode="&#x42;" d="M143 0L704 0C989 0 1151 142 1151 390C1151 609 1011 734 765 734L719 734L719 767C931 776 1051 884 1051 1068C1051 1293 881 1420 582 1420L143 1420ZM407 243L407 628L632 628C786 628 874 558 874 437C874 314 790 243 646 243ZM407 872L407 1177L572 1177C706 1177 774 1128 774 1032C774 926 710 872 586 872Z"  horiz-adv-x="1200" vert-adv-y="2048"  />

      
      <glyph glyph-name="uni43" unicode="&#x43;" d="M748-20C874-20 996 2 1114 48L1068 292C974 252 880 232 782 232C493 232 347 395 347 722C347 1020 496 1189 726 1189C834 1189 931 1146 991 1072L1139 1265C1064 1377 912 1440 724 1440C307 1440 69 1174 69 712C69 224 297-20 748-20Z"  horiz-adv-x="1200" vert-adv-y="2048"  />

      
      <glyph glyph-name="uni0106" unicode="&#x0106;" d="M748-20C874-20 996 2 1114 48L1068 292C974 252 880 232 782 232C493 232 347 395 347 722C347 1020 496 1189 726 1189C834 1189 931 1146 991 1072L1139 1265C1064 1377 912 1440 724 1440C307 1440 69 1174 69 712C69 224 297-20 748-20ZM547 1580L829 1580L1133 1855L769 1855Z"  horiz-adv-x="1200" vert-adv-y="2048"  />

      
      <glyph glyph-name="uni010C" unicode="&#x010C;" d="M748-20C874-20 996 2 1114 48L1068 292C974 252 880 232 782 232C493 232 347 395 347 722C347 1020 496 1189 726 1189C834 1189 931 1146 991 1072L1139 1265C1064 1377 912 1440 724 1440C307 1440 69 1174 69 712C69 224 297-20 748-20ZM559 1580L831 1580L1074 1840L777 1840L695 1723L613 1840L316 1840Z"  horiz-adv-x="1200" vert-adv-y="2048"  />

      
      <glyph glyph-name="unic7" unicode="&#xc7;" d="M471-480C757-480 899-409 899-267C899-183 848-132 743-108L764-20C885-18 1001 4 1114 48L1068 292C974 252 880 232 782 232C493 232 347 395 347 722C347 1020 496 1189 726 1189C834 1189 931 1146 991 1072L1139 1265C1064 1377 912 1440 724 1440C307 1440 69 1174 69 712C69 296 235 57 563-4L497-198C595-198 642-218 642-258C642-300 586-322 471-322Z"  horiz-adv-x="1200" vert-adv-y="2048"  />

      
      <glyph glyph-name="uni0108" unicode="&#x0108;" d="M748-20C874-20 996 2 1114 48L1068 292C974 252 880 232 782 232C493 232 347 395 347 722C347 1020 496 1189 726 1189C834 1189 931 1146 991 1072L1139 1265C1064 1377 912 1440 724 1440C307 1440 69 1174 69 712C69 224 297-20 748-20ZM317 1580L614 1580L696 1695L778 1580L1075 1580L832 1840L560 1840Z"  horiz-adv-x="1200" vert-adv-y="2048"  />

      
      <glyph glyph-name="uni010A" unicode="&#x010A;" d="M748-20C874-20 996 2 1114 48L1068 292C974 252 880 232 782 232C493 232 347 395 347 722C347 1020 496 1189 726 1189C834 1189 931 1146 991 1072L1139 1265C1064 1377 912 1440 724 1440C307 1440 69 1174 69 712C69 224 297-20 748-20ZM695 1572C789 1572 866 1648 866 1742C866 1838 789 1913 695 1913C601 1913 524 1838 524 1742C524 1648 601 1572 695 1572Z"  horiz-adv-x="1200" vert-adv-y="2048"  />

      
      <glyph glyph-name="uni023B" unicode="&#x023B;" d="M595-330L650-16C682-19 714-20 748-20C874-20 996 2 1114 48L1068 292C974 252 880 232 782 232C751 232 722 234 695 237L858 1166C911 1146 957 1114 991 1072L1139 1265C1090 1339 1007 1391 903 1418L951 1692L748 1716L699 1440C298 1429 69 1165 69 712C69 347 197 118 450 26L392-306ZM501 313C399 391 347 528 347 722C347 988 465 1151 654 1183Z"  horiz-adv-x="1200" vert-adv-y="2048"  />

      
      <glyph glyph-name="uni44" unicode="&#x44;" d="M123 0L484 0C929 0 1151 229 1151 690C1151 1179 929 1420 484 1420L123 1420ZM387 253L387 1168L484 1168C744 1168 874 1004 874 690C874 404 744 253 484 253Z"  horiz-adv-x="1200" vert-adv-y="2048"  />

      
      <glyph glyph-name="unid0" unicode="&#xd0;" d="M12 585L123 585L123 0L484 0C929 0 1151 229 1151 690C1151 1179 929 1420 484 1420L123 1420L123 829L12 829ZM387 253L387 585L651 585L651 829L387 829L387 1168L484 1168C744 1168 874 1004 874 690C874 404 744 253 484 253Z"  horiz-adv-x="1200" vert-adv-y="2048"  />

      
      <glyph glyph-name="uni010E" unicode="&#x010E;" d="M123 0L484 0C929 0 1151 229 1151 690C1151 1179 929 1420 484 1420L123 1420ZM387 253L387 1168L484 1168C744 1168 874 1004 874 690C874 404 744 253 484 253ZM394 1580L666 1580L909 1840L612 1840L530 1723L448 1840L151 1840Z"  horiz-adv-x="1200" vert-adv-y="2048"  />

      
      <glyph glyph-name="uni0110" unicode="&#x0110;" d="M123 0L484 0C929 0 1151 229 1151 690C1151 1179 929 1420 484 1420L123 1420L123 829L12 829L12 585L123 585ZM387 253L387 585L651 585L651 829L387 829L387 1168L484 1168C744 1168 874 1004 874 690C874 404 744 253 484 253Z"  horiz-adv-x="1200" vert-adv-y="2048"  />

      
      <glyph glyph-name="uni45" unicode="&#x45;" d="M143 0L1117 0L1117 243L407 243L407 589L937 589L937 833L407 833L407 1177L1117 1177L1117 1420L143 1420Z"  horiz-adv-x="1200" vert-adv-y="2048"  />

      
      <glyph glyph-name="unic9" unicode="&#xc9;" d="M143 0L1117 0L1117 243L407 243L407 589L937 589L937 833L407 833L407 1177L1117 1177L1117 1420L143 1420ZM482 1580L764 1580L1068 1855L704 1855Z"  horiz-adv-x="1200" vert-adv-y="2048"  />

      
      <glyph glyph-name="uni0114" unicode="&#x0114;" d="M143 0L1117 0L1117 243L407 243L407 589L937 589L937 833L407 833L407 1177L1117 1177L1117 1420L143 1420ZM630 1553C878 1553 1021 1665 1021 1860L754 1860C754 1765 709 1731 630 1731C552 1731 506 1765 506 1860L239 1860C239 1665 382 1553 630 1553Z"  horiz-adv-x="1200" vert-adv-y="2048"  />

      
      <glyph glyph-name="uni011A" unicode="&#x011A;" d="M143 0L1117 0L1117 243L407 243L407 589L937 589L937 833L407 833L407 1177L1117 1177L1117 1420L143 1420ZM494 1580L766 1580L1009 1840L712 1840L630 1723L548 1840L251 1840Z"  horiz-adv-x="1200" vert-adv-y="2048"  />

      
      <glyph glyph-name="unica" unicode="&#xca;" d="M143 0L1117 0L1117 243L407 243L407 589L937 589L937 833L407 833L407 1177L1117 1177L1117 1420L143 1420ZM252 1580L549 1580L631 1695L713 1580L1010 1580L767 1840L495 1840Z"  horiz-adv-x="1200" vert-adv-y="2048"  />

      
      <glyph glyph-name="uni1EBE" unicode="&#x1EBE;" d="M143 0L1117 0L1117 243L407 243L407 589L937 589L937 833L407 833L407 1177L1117 1177L1117 1420L143 1420ZM252 1580L549 1580L631 1695L713 1580L1010 1580L767 1840L495 1840ZM866 1828L1148 1828L1452 2103L1088 2103Z"  horiz-adv-x="1200" vert-adv-y="2048"  />

      
      <glyph glyph-name="uni1EC6" unicode="&#x1EC6;" d="M143 0L1117 0L1117 243L407 243L407 589L937 589L937 833L407 833L407 1177L1117 1177L1117 1420L143 1420ZM252 1580L549 1580L631 1695L713 1580L1010 1580L767 1840L495 1840ZM630-448C724-448 801-372 801-278C801-182 724-107 630-107C536-107 459-182 459-278C459-372 536-448 630-448Z"  horiz-adv-x="1200" vert-adv-y="2048"  />

      
      <glyph glyph-name="uni1EC0" unicode="&#x1EC0;" d="M143 0L1117 0L1117 243L407 243L407 589L937 589L937 833L407 833L407 1177L1117 1177L1117 1420L143 1420ZM252 1580L549 1580L631 1695L713 1580L1010 1580L767 1840L495 1840ZM878 1828L1160 1828L938 2103L575 2103Z"  horiz-adv-x="1200" vert-adv-y="2048"  />

      
      <glyph glyph-name="uni1EC2" unicode="&#x1EC2;" d="M143 0L1117 0L1117 243L407 243L407 589L937 589L937 833L407 833L407 1177L1117 1177L1117 1420L143 1420ZM925 1777L1105 1777C1105 1790 1119 1796 1147 1812C1238 1865 1274 1909 1274 1989C1274 2104 1191 2160 1022 2160C899 2160 807 2133 749 2077L816 1933C857 1962 906 1976 964 1976C1008 1976 1029 1963 1029 1942C1029 1928 1022 1912 991 1893C940 1857 925 1827 925 1798ZM252 1580L549 1580L631 1695L713 1580L1010 1580L767 1840L495 1840Z"  horiz-adv-x="1200" vert-adv-y="2048"  />

      
      <glyph glyph-name="uni1EC4" unicode="&#x1EC4;" d="M143 0L1117 0L1117 243L407 243L407 589L937 589L937 833L407 833L407 1177L1117 1177L1117 1420L143 1420ZM238 1946L496 1946L496 2006C496 2046 513 2063 553 2063C573 2063 607 2052 661 2027C731 1994 785 1980 837 1980C980 1980 1042 2061 1042 2245L1042 2295L785 2295L785 2243C785 2210 774 2196 752 2196C730 2196 692 2209 620 2239C565 2261 518 2271 465 2271C308 2271 238 2187 238 1996ZM252 1580L549 1580L631 1695L713 1580L1010 1580L767 1840L495 1840Z"  horiz-adv-x="1200" vert-adv-y="2048"  />

      
      <glyph glyph-name="unicb" unicode="&#xcb;" d="M143 0L1117 0L1117 243L407 243L407 589L937 589L937 833L407 833L407 1177L1117 1177L1117 1420L143 1420ZM389 1586C484 1586 559 1662 559 1757C559 1852 484 1927 389 1927C294 1927 218 1852 218 1757C218 1662 294 1586 389 1586ZM871 1586C966 1586 1042 1662 1042 1757C1042 1852 966 1927 871 1927C777 1927 701 1852 701 1757C701 1662 777 1586 871 1586Z"  horiz-adv-x="1200" vert-adv-y="2048"  />

      
      <glyph glyph-name="uni0116" unicode="&#x0116;" d="M143 0L1117 0L1117 243L407 243L407 589L937 589L937 833L407 833L407 1177L1117 1177L1117 1420L143 1420ZM630 1572C724 1572 801 1648 801 1742C801 1838 724 1913 630 1913C536 1913 459 1838 459 1742C459 1648 536 1572 630 1572Z"  horiz-adv-x="1200" vert-adv-y="2048"  />

      
      <glyph glyph-name="uni1EB8" unicode="&#x1EB8;" d="M143 0L1117 0L1117 243L407 243L407 589L937 589L937 833L407 833L407 1177L1117 1177L1117 1420L143 1420ZM630-448C724-448 801-372 801-278C801-182 724-107 630-107C536-107 459-182 459-278C459-372 536-448 630-448Z"  horiz-adv-x="1200" vert-adv-y="2048"  />

      
      <glyph glyph-name="unic8" unicode="&#xc8;" d="M143 0L1117 0L1117 243L407 243L407 589L937 589L937 833L407 833L407 1177L1117 1177L1117 1420L143 1420ZM494 1580L776 1580L554 1855L191 1855Z"  horiz-adv-x="1200" vert-adv-y="2048"  />

      
      <glyph glyph-name="uni1EBA" unicode="&#x1EBA;" d="M143 0L1117 0L1117 243L407 243L407 589L937 589L937 833L407 833L407 1177L1117 1177L1117 1420L143 1420ZM541 1529L721 1529C721 1542 735 1548 763 1564C854 1617 890 1661 890 1741C890 1856 807 1912 638 1912C515 1912 423 1885 365 1829L432 1685C473 1714 522 1728 580 1728C624 1728 645 1715 645 1694C645 1680 638 1664 607 1645C556 1609 541 1579 541 1550Z"  horiz-adv-x="1200" vert-adv-y="2048"  />

      
      <glyph glyph-name="uni0112" unicode="&#x0112;" d="M143 0L1117 0L1117 243L407 243L407 589L937 589L937 833L407 833L407 1177L1117 1177L1117 1420L143 1420ZM243 1563L1017 1563L1017 1801L243 1801Z"  horiz-adv-x="1200" vert-adv-y="2048"  />

      
      <glyph glyph-name="uni0118" unicode="&#x0118;" d="M966-424C997-424 1036-421 1073-415L1091-195C1061-202 1032-206 1009-206C951-206 918-177 918-126C918-46 985 0 1100 0L1117 0L1117 243L407 243L407 589L937 589L937 833L407 833L407 1177L1117 1177L1117 1420L143 1420L143 0L840 0L840-28C762-52 718-118 718-212C718-347 808-424 966-424Z"  horiz-adv-x="1200" vert-adv-y="2048"  />

      
      <glyph glyph-name="uni0190" unicode="&#x0190;" d="M690 1440C321 1440 167 1300 167 1093C167 927 266 805 512 766L512 755C301 745 111 622 111 394C111 143 328-20 674-20C880-20 984-4 1117 48L1071 290C919 244 839 232 669 232C494 232 388 301 388 415C388 547 500 620 666 620L816 620L838 872C553 880 440 937 440 1058C440 1132 512 1189 691 1189C816 1189 918 1151 977 1080L1142 1269C1053 1370 907 1440 690 1440Z"  horiz-adv-x="1200" vert-adv-y="2048"  />

      
      <glyph glyph-name="uni018E" unicode="&#x018E;" d="M1057 0L1057 1420L83 1420L83 1177L793 1177L793 833L263 833L263 589L793 589L793 243L83 243L83 0Z"  horiz-adv-x="1200" vert-adv-y="2048"  />

      
      <glyph glyph-name="uni01A9" unicode="&#x01A9;" d="M133 0L1087 0L1087 241L459 241L864 713L479 1177L1067 1177L1067 1420L133 1420L133 1177L533 713L133 241Z"  horiz-adv-x="1200" vert-adv-y="2048"  />

      
      <glyph glyph-name="uni1EBC" unicode="&#x1EBC;" d="M143 0L1117 0L1117 243L407 243L407 589L937 589L937 833L407 833L407 1177L1117 1177L1117 1420L143 1420ZM238 1566L496 1566L496 1626C496 1666 513 1683 553 1683C573 1683 607 1672 661 1647C731 1614 785 1600 837 1600C980 1600 1042 1681 1042 1865L1042 1915L785 1915L785 1863C785 1830 774 1816 752 1816C730 1816 692 1829 620 1859C565 1881 518 1891 465 1891C308 1891 238 1807 238 1616Z"  horiz-adv-x="1200" vert-adv-y="2048"  />

      
      <glyph glyph-name="uni01B7" unicode="&#x01B7;" d="M556-20C890-20 1099 149 1099 409C1099 651 954 808 695 852L1033 1162L1033 1420L146 1420L146 1177L692 1177L319 834L339 626L474 626C696 626 822 552 822 422C822 303 725 232 561 232C429 232 353 268 243 359L57 151C186 37 349-20 556-20Z"  horiz-adv-x="1200" vert-adv-y="2048"  />

      
      <glyph glyph-name="uni46" unicode="&#x46;" d="M163 0L427 0L427 529L940 529L940 774L427 774L427 1177L1137 1177L1137 1420L163 1420Z"  horiz-adv-x="1200" vert-adv-y="2048"  />

      
      <glyph glyph-name="uni47" unicode="&#x47;" d="M702-20C890-20 1048 22 1107 40L1107 735L610 735L610 492L845 492L845 241C809 236 769 232 726 232C461 232 327 395 327 722C327 1019 466 1189 706 1189C812 1189 909 1142 971 1063L1137 1254C1053 1372 901 1440 694 1440C285 1440 49 1174 49 712C49 224 267-20 702-20Z"  horiz-adv-x="1200" vert-adv-y="2048"  />

      
      <glyph glyph-name="uni011E" unicode="&#x011E;" d="M702-20C890-20 1048 22 1107 40L1107 735L610 735L610 492L845 492L845 241C809 236 769 232 726 232C461 232 327 395 327 722C327 1019 466 1189 706 1189C812 1189 909 1142 971 1063L1137 1254C1053 1372 901 1440 694 1440C285 1440 49 1174 49 712C49 224 267-20 702-20ZM675 1553C923 1553 1066 1665 1066 1860L799 1860C799 1765 754 1731 675 1731C597 1731 551 1765 551 1860L284 1860C284 1665 427 1553 675 1553Z"  horiz-adv-x="1200" vert-adv-y="2048"  />

      
      <glyph glyph-name="uni01E6" unicode="&#x01E6;" d="M702-20C890-20 1048 22 1107 40L1107 735L610 735L610 492L845 492L845 241C809 236 769 232 726 232C461 232 327 395 327 722C327 1019 466 1189 706 1189C812 1189 909 1142 971 1063L1137 1254C1053 1372 901 1440 694 1440C285 1440 49 1174 49 712C49 224 267-20 702-20ZM539 1580L811 1580L1054 1840L757 1840L675 1723L593 1840L296 1840Z"  horiz-adv-x="1200" vert-adv-y="2048"  />

      
      <glyph glyph-name="uni011C" unicode="&#x011C;" d="M702-20C890-20 1048 22 1107 40L1107 735L610 735L610 492L845 492L845 241C809 236 769 232 726 232C461 232 327 395 327 722C327 1019 466 1189 706 1189C812 1189 909 1142 971 1063L1137 1254C1053 1372 901 1440 694 1440C285 1440 49 1174 49 712C49 224 267-20 702-20ZM297 1580L594 1580L676 1695L758 1580L1055 1580L812 1840L540 1840Z"  horiz-adv-x="1200" vert-adv-y="2048"  />

      
      <glyph glyph-name="uni0122" unicode="&#x0122;" d="M702-20C890-20 1048 22 1107 40L1107 735L610 735L610 492L845 492L845 241C809 236 769 232 726 232C461 232 327 395 327 722C327 1019 466 1189 706 1189C812 1189 909 1142 971 1063L1137 1254C1053 1372 901 1440 694 1440C285 1440 49 1174 49 712C49 224 267-20 702-20ZM477-480L725-480L842-140L554-140Z"  horiz-adv-x="1200" vert-adv-y="2048"  />

      
      <glyph glyph-name="uni0120" unicode="&#x0120;" d="M702-20C890-20 1048 22 1107 40L1107 735L610 735L610 492L845 492L845 241C809 236 769 232 726 232C461 232 327 395 327 722C327 1019 466 1189 706 1189C812 1189 909 1142 971 1063L1137 1254C1053 1372 901 1440 694 1440C285 1440 49 1174 49 712C49 224 267-20 702-20ZM675 1572C769 1572 846 1648 846 1742C846 1838 769 1913 675 1913C581 1913 504 1838 504 1742C504 1648 581 1572 675 1572Z"  horiz-adv-x="1200" vert-adv-y="2048"  />

      
      <glyph glyph-name="uni01E4" unicode="&#x01E4;" d="M702-20C881-20 1031 22 1087 40L1087 387L1220 387L1220 630L1087 630L1087 775L825 775L825 630L640 630L640 387L825 387L825 240C795 235 761 232 726 232C461 232 327 395 327 722C327 1019 466 1189 706 1189C812 1189 909 1142 971 1063L1137 1254C1063 1372 901 1440 694 1440C285 1440 49 1174 49 712C49 224 267-20 702-20Z"  horiz-adv-x="1200" vert-adv-y="2048"  />

      
      <glyph glyph-name="uni48" unicode="&#x48;" d="M813 0L1077 0L1077 1420L813 1420L813 829L387 829L387 1420L123 1420L123 0L387 0L387 585L813 585Z"  horiz-adv-x="1200" vert-adv-y="2048"  />

      
      <glyph glyph-name="uni0126" unicode="&#x0126;" d="M42 1002L123 1002L123 0L387 0L387 585L813 585L813 0L1077 0L1077 1002L1158 1002L1158 1192L1077 1192L1077 1420L813 1420L813 1192L387 1192L387 1420L123 1420L123 1192L42 1192ZM387 829L387 1002L813 1002L813 829Z"  horiz-adv-x="1200" vert-adv-y="2048"  />

      
      <glyph glyph-name="uni021E" unicode="&#x021E;" d="M813 0L1077 0L1077 1420L813 1420L813 829L387 829L387 1420L123 1420L123 0L387 0L387 585L813 585ZM464 1580L736 1580L979 1840L682 1840L600 1723L518 1840L221 1840Z"  horiz-adv-x="1200" vert-adv-y="2048"  />

      
      <glyph glyph-name="uni0124" unicode="&#x0124;" d="M813 0L1077 0L1077 1420L813 1420L813 829L387 829L387 1420L123 1420L123 0L387 0L387 585L813 585ZM222 1580L519 1580L601 1695L683 1580L980 1580L737 1840L465 1840Z"  horiz-adv-x="1200" vert-adv-y="2048"  />

      
      <glyph glyph-name="uni1E24" unicode="&#x1E24;" d="M813 0L1077 0L1077 1420L813 1420L813 829L387 829L387 1420L123 1420L123 0L387 0L387 585L813 585ZM600-448C694-448 771-372 771-278C771-182 694-107 600-107C506-107 429-182 429-278C429-372 506-448 600-448Z"  horiz-adv-x="1200" vert-adv-y="2048"  />

      
      <glyph glyph-name="uni49" unicode="&#x49;" d="M151 0L1049 0L1049 238L731 238L731 1183L1049 1183L1049 1420L151 1420L151 1183L467 1183L467 238L151 238Z"  horiz-adv-x="1200" vert-adv-y="2048"  />

      
      <glyph glyph-name="uni0132" unicode="&#x0132;" d="M627-20C940-20 1094 154 1094 507L1094 1420L685 1420L685 1177L832 1177L832 507C832 314 771 231 632 231C508 231 453 291 453 427L181 427C181 128 329-20 627-20ZM33 568L619 568L619 811L449 811L449 1177L599 1177L599 1420L33 1420L33 1177L187 1177L187 811L33 811Z"  horiz-adv-x="1200" vert-adv-y="2048"  />

      
      <glyph glyph-name="unicd" unicode="&#xcd;" d="M151 0L1049 0L1049 238L731 238L731 1183L1049 1183L1049 1420L151 1420L151 1183L467 1183L467 238L151 238ZM452 1580L734 1580L1038 1855L674 1855Z"  horiz-adv-x="1200" vert-adv-y="2048"  />

      
      <glyph glyph-name="uni012C" unicode="&#x012C;" d="M151 0L1049 0L1049 238L731 238L731 1183L1049 1183L1049 1420L151 1420L151 1183L467 1183L467 238L151 238ZM600 1553C848 1553 991 1665 991 1860L724 1860C724 1765 679 1731 600 1731C522 1731 476 1765 476 1860L209 1860C209 1665 352 1553 600 1553Z"  horiz-adv-x="1200" vert-adv-y="2048"  />

      
      <glyph glyph-name="unice" unicode="&#xce;" d="M151 0L1049 0L1049 238L731 238L731 1183L1049 1183L1049 1420L151 1420L151 1183L467 1183L467 238L151 238ZM222 1580L519 1580L601 1695L683 1580L980 1580L737 1840L465 1840Z"  horiz-adv-x="1200" vert-adv-y="2048"  />

      
      <glyph glyph-name="unicf" unicode="&#xcf;" d="M151 0L1049 0L1049 238L731 238L731 1183L1049 1183L1049 1420L151 1420L151 1183L467 1183L467 238L151 238ZM359 1586C454 1586 529 1662 529 1757C529 1852 454 1927 359 1927C264 1927 188 1852 188 1757C188 1662 264 1586 359 1586ZM841 1586C936 1586 1012 1662 1012 1757C1012 1852 936 1927 841 1927C747 1927 671 1852 671 1757C671 1662 747 1586 841 1586Z"  horiz-adv-x="1200" vert-adv-y="2048"  />

      
      <glyph glyph-name="uni0130" unicode="&#x0130;" d="M151 0L1049 0L1049 238L731 238L731 1183L1049 1183L1049 1420L151 1420L151 1183L467 1183L467 238L151 238ZM600 1572C694 1572 771 1648 771 1742C771 1838 694 1913 600 1913C506 1913 429 1838 429 1742C429 1648 506 1572 600 1572Z"  horiz-adv-x="1200" vert-adv-y="2048"  />

      
      <glyph glyph-name="uni1ECA" unicode="&#x1ECA;" d="M151 0L1049 0L1049 238L731 238L731 1183L1049 1183L1049 1420L151 1420L151 1183L467 1183L467 238L151 238ZM600-448C694-448 771-372 771-278C771-182 694-107 600-107C506-107 429-182 429-278C429-372 506-448 600-448Z"  horiz-adv-x="1200" vert-adv-y="2048"  />

      
      <glyph glyph-name="unicc" unicode="&#xcc;" d="M151 0L1049 0L1049 238L731 238L731 1183L1049 1183L1049 1420L151 1420L151 1183L467 1183L467 238L151 238ZM464 1580L746 1580L524 1855L161 1855Z"  horiz-adv-x="1200" vert-adv-y="2048"  />

      
      <glyph glyph-name="uni1EC8" unicode="&#x1EC8;" d="M151 0L1049 0L1049 238L731 238L731 1183L1049 1183L1049 1420L151 1420L151 1183L467 1183L467 238L151 238ZM511 1529L691 1529C691 1542 705 1548 733 1564C824 1617 860 1661 860 1741C860 1856 777 1912 608 1912C485 1912 393 1885 335 1829L402 1685C443 1714 492 1728 550 1728C594 1728 615 1715 615 1694C615 1680 608 1664 577 1645C526 1609 511 1579 511 1550Z"  horiz-adv-x="1200" vert-adv-y="2048"  />

      
      <glyph glyph-name="uni012A" unicode="&#x012A;" d="M151 0L1049 0L1049 238L731 238L731 1183L1049 1183L1049 1420L151 1420L151 1183L467 1183L467 238L151 238ZM213 1563L987 1563L987 1801L213 1801Z"  horiz-adv-x="1200" vert-adv-y="2048"  />

      
      <glyph glyph-name="uni012E" unicode="&#x012E;" d="M653-424C684-424 723-421 759-415L777-195C747-202 718-206 695-206C637-206 604-177 604-126C604-46 671 0 787 0L1049 0L1049 238L731 238L731 1183L1049 1183L1049 1420L151 1420L151 1183L467 1183L467 238L151 238L151 0L527 0L527-28C449-52 404-118 404-212C404-347 495-424 653-424Z"  horiz-adv-x="1200" vert-adv-y="2048"  />

      
      <glyph glyph-name="uni0196" unicode="&#x0196;" d="M758-20C878-20 977-8 1091 22L1060 300C968 274 901 262 838 262C680 262 651 319 651 452L651 1500L81 1500L81 1251L381 1251L381 442C381 119 491-20 758-20Z"  horiz-adv-x="1200" vert-adv-y="2048"  />

      
      <glyph glyph-name="uni0128" unicode="&#x0128;" d="M151 0L1049 0L1049 238L731 238L731 1183L1049 1183L1049 1420L151 1420L151 1183L467 1183L467 238L151 238ZM208 1566L466 1566L466 1626C466 1666 483 1683 523 1683C543 1683 577 1672 631 1647C701 1614 755 1600 807 1600C950 1600 1012 1681 1012 1865L1012 1915L755 1915L755 1863C755 1830 744 1816 722 1816C700 1816 662 1829 590 1859C535 1881 488 1891 435 1891C278 1891 208 1807 208 1616Z"  horiz-adv-x="1200" vert-adv-y="2048"  />

      
      <glyph glyph-name="uni4a" unicode="&#x4a;" d="M574-20C891-20 1079 164 1079 484L1079 1420L490 1420L490 1177L815 1177L815 484C815 322 730 231 579 231C430 231 344 324 344 484L69 484C69 165 251-20 574-20Z"  horiz-adv-x="1200" vert-adv-y="2048"  />

      
      <glyph glyph-name="uni0134" unicode="&#x0134;" d="M574-20C891-20 1079 164 1079 484L1079 1420L490 1420L490 1177L815 1177L815 484C815 322 730 231 579 231C430 231 344 324 344 484L69 484C69 165 251-20 574-20ZM412 1580L709 1580L791 1695L873 1580L1170 1580L927 1840L655 1840Z"  horiz-adv-x="1200" vert-adv-y="2048"  />

      
      <glyph glyph-name="uni4b" unicode="&#x4b;" d="M133 0L397 0L397 460C476 472 548 494 615 525L853 0L1179 0L837 685C1015 867 1111 1137 1111 1420L843 1420C843 1097 704 783 397 726L397 1420L133 1420Z"  horiz-adv-x="1200" vert-adv-y="2048"  />

      
      <glyph glyph-name="uni1E30" unicode="&#x1E30;" d="M133 0L397 0L397 460C476 472 548 494 615 525L853 0L1179 0L837 685C1015 867 1111 1137 1111 1420L843 1420C843 1097 704 783 397 726L397 1420L133 1420ZM472 1580L754 1580L1058 1855L694 1855Z"  horiz-adv-x="1200" vert-adv-y="2048"  />

      
      <glyph glyph-name="uni0136" unicode="&#x0136;" d="M133 0L397 0L397 460C476 472 548 494 615 525L853 0L1179 0L837 685C1015 867 1111 1137 1111 1420L843 1420C843 1097 704 783 397 726L397 1420L133 1420ZM402-480L650-480L767-140L479-140Z"  horiz-adv-x="1200" vert-adv-y="2048"  />

      
      <glyph glyph-name="uni1E32" unicode="&#x1E32;" d="M133 0L397 0L397 460C476 472 548 494 615 525L853 0L1179 0L837 685C1015 867 1111 1137 1111 1420L843 1420C843 1097 704 783 397 726L397 1420L133 1420ZM620-448C714-448 791-372 791-278C791-182 714-107 620-107C526-107 449-182 449-278C449-372 526-448 620-448Z"  horiz-adv-x="1200" vert-adv-y="2048"  />

      
      <glyph glyph-name="uni1E34" unicode="&#x1E34;" d="M133 0L397 0L397 460C476 472 548 494 615 525L853 0L1179 0L837 685C1015 867 1111 1137 1111 1420L843 1420C843 1097 704 783 397 726L397 1420L133 1420ZM190-459L1050-459L1050-208L190-208Z"  horiz-adv-x="1200" vert-adv-y="2048"  />

      
      <glyph glyph-name="uni4c" unicode="&#x4c;" d="M143 0L1117 0L1117 243L407 243L407 1420L143 1420Z"  horiz-adv-x="1200" vert-adv-y="2048"  />

      
      <glyph glyph-name="uni0139" unicode="&#x0139;" d="M143 0L1117 0L1117 243L407 243L407 1420L143 1420ZM127 1580L409 1580L713 1855L349 1855Z"  horiz-adv-x="1200" vert-adv-y="2048"  />

      
      <glyph glyph-name="uni023D" unicode="&#x023D;" d="M-20 641L143 641L143 0L1117 0L1117 243L407 243L407 641L836 641L836 883L407 883L407 1420L143 1420L143 883L-20 883Z"  horiz-adv-x="1200" vert-adv-y="2048"  />

      
      <glyph glyph-name="uni013D" unicode="&#x013D;" d="M143 0L1117 0L1117 243L407 243L407 1420L143 1420ZM704 1188L951 1188L1041 1568L754 1568Z"  horiz-adv-x="1200" vert-adv-y="2048"  />

      
      <glyph glyph-name="uni013B" unicode="&#x013B;" d="M143 0L1117 0L1117 243L407 243L407 1420L143 1420ZM402-480L650-480L767-140L479-140Z"  horiz-adv-x="1200" vert-adv-y="2048"  />

      
      <glyph glyph-name="uni013F" unicode="&#x013F;" d="M143 0L1117 0L1117 243L407 243L407 1420L143 1420ZM833 749C934 749 1015 831 1015 931C1015 1032 934 1113 833 1113C732 1113 651 1032 651 931C651 831 732 749 833 749Z"  horiz-adv-x="1200" vert-adv-y="2048"  />

      
      <glyph glyph-name="uni1E36" unicode="&#x1E36;" d="M143 0L1117 0L1117 243L407 243L407 1420L143 1420ZM620-448C714-448 791-372 791-278C791-182 714-107 620-107C526-107 449-182 449-278C449-372 526-448 620-448Z"  horiz-adv-x="1200" vert-adv-y="2048"  />

      
      <glyph glyph-name="uni1E3A" unicode="&#x1E3A;" d="M143 0L1117 0L1117 243L407 243L407 1420L143 1420ZM190-459L1050-459L1050-208L190-208Z"  horiz-adv-x="1200" vert-adv-y="2048"  />

      
      <glyph glyph-name="uni2C62" unicode="&#x2C62;" d="M318 0L1117 0L1117 243L572 243L572 607C607 597 643 590 682 590C844 590 914 669 914 854L914 970L682 970L682 886C682 838 665 817 621 817C604 817 588 820 572 825L572 1420L318 1420L318 936C294 940 269 943 242 943C64 943-14 864-14 679L-14 562L219 562L219 647C219 695 240 716 290 716C300 716 309 715 318 714Z"  horiz-adv-x="1200" vert-adv-y="2048"  />

      
      <glyph glyph-name="uni0141" unicode="&#x0141;" d="M58 430L227 513L227 0L1100 0L1100 244L490 244L490 642L864 825L864 1085L490 902L490 1420L227 1420L227 773L58 690Z"  horiz-adv-x="1200" vert-adv-y="2048"  />

      
      <glyph glyph-name="uni4d" unicode="&#x4d;" d="M111 0L357 0L357 1168L388 1168L508 497L692 497L812 1168L843 1168L843 0L1089 0L1089 1420L712 1420L608 785L592 785L488 1420L111 1420Z"  horiz-adv-x="1200" vert-adv-y="2048"  />

      
      <glyph glyph-name="uni4e" unicode="&#x4e;" d="M672 0L1069 0L1069 1420L815 1420L815 310L778 310L528 1420L131 1420L131 0L385 0L385 1110L422 1110Z"  horiz-adv-x="1200" vert-adv-y="2048"  />

      
      <glyph glyph-name="uni0143" unicode="&#x0143;" d="M672 0L1069 0L1069 1420L815 1420L815 310L778 310L528 1420L131 1420L131 0L385 0L385 1110L422 1110ZM452 1580L734 1580L1038 1855L674 1855Z"  horiz-adv-x="1200" vert-adv-y="2048"  />

      
      <glyph glyph-name="uni0147" unicode="&#x0147;" d="M672 0L1069 0L1069 1420L815 1420L815 310L778 310L528 1420L131 1420L131 0L385 0L385 1110L422 1110ZM464 1580L736 1580L979 1840L682 1840L600 1723L518 1840L221 1840Z"  horiz-adv-x="1200" vert-adv-y="2048"  />

      
      <glyph glyph-name="uni0145" unicode="&#x0145;" d="M672 0L1069 0L1069 1420L815 1420L815 310L778 310L528 1420L131 1420L131 0L385 0L385 1110L422 1110ZM382-480L630-480L747-140L459-140Z"  horiz-adv-x="1200" vert-adv-y="2048"  />

      
      <glyph glyph-name="uni014A" unicode="&#x014A;" d="M493-480L699-477C955-473 1069-355 1069-96L1069 1420L815 1420L815 310L778 310L528 1420L131 1420L131 0L385 0L385 1110L422 1110L672 0L815 0L815-88C815-187 771-231 671-237L491-240Z"  horiz-adv-x="1200" vert-adv-y="2048"  />

      
      <glyph glyph-name="uni019D" unicode="&#x019D;" d="M-74-480L15-477C271-473 385-355 385-96L385 1110L422 1110L672 0L1069 0L1069 1420L815 1420L815 310L778 310L528 1420L131 1420L131-88C131-187 88-235-13-237L-76-240Z"  horiz-adv-x="1200" vert-adv-y="2048"  />

      
      <glyph glyph-name="uni1E48" unicode="&#x1E48;" d="M672 0L1069 0L1069 1420L815 1420L815 310L778 310L528 1420L131 1420L131 0L385 0L385 1110L422 1110ZM170-459L1030-459L1030-208L170-208Z"  horiz-adv-x="1200" vert-adv-y="2048"  />

      
      <glyph glyph-name="unid1" unicode="&#xd1;" d="M672 0L1069 0L1069 1420L815 1420L815 310L778 310L528 1420L131 1420L131 0L385 0L385 1110L422 1110ZM208 1566L466 1566L466 1626C466 1666 483 1683 523 1683C543 1683 577 1672 631 1647C701 1614 755 1600 807 1600C950 1600 1012 1681 1012 1865L1012 1915L755 1915L755 1863C755 1830 744 1816 722 1816C700 1816 662 1829 590 1859C535 1881 488 1891 435 1891C278 1891 208 1807 208 1616Z"  horiz-adv-x="1200" vert-adv-y="2048"  />

      
      <glyph glyph-name="uni4f" unicode="&#x4f;" d="M600-20C959-20 1141 218 1141 700C1141 1194 959 1440 600 1440C241 1440 59 1194 59 700C59 218 241-20 600-20ZM600 232C424 232 336 387 336 700C336 1027 424 1189 600 1189C776 1189 864 1027 864 700C864 387 776 232 600 232Z"  horiz-adv-x="1200" vert-adv-y="2048"  />

      
      <glyph glyph-name="unid3" unicode="&#xd3;" d="M600-20C959-20 1141 218 1141 700C1141 1194 959 1440 600 1440C241 1440 59 1194 59 700C59 218 241-20 600-20ZM600 232C424 232 336 387 336 700C336 1027 424 1189 600 1189C776 1189 864 1027 864 700C864 387 776 232 600 232ZM452 1580L734 1580L1038 1855L674 1855Z"  horiz-adv-x="1200" vert-adv-y="2048"  />

      
      <glyph glyph-name="uni014E" unicode="&#x014E;" d="M600-20C959-20 1141 218 1141 700C1141 1194 959 1440 600 1440C241 1440 59 1194 59 700C59 218 241-20 600-20ZM600 232C424 232 336 387 336 700C336 1027 424 1189 600 1189C776 1189 864 1027 864 700C864 387 776 232 600 232ZM600 1553C848 1553 991 1665 991 1860L724 1860C724 1765 679 1731 600 1731C522 1731 476 1765 476 1860L209 1860C209 1665 352 1553 600 1553Z"  horiz-adv-x="1200" vert-adv-y="2048"  />

      
      <glyph glyph-name="unid4" unicode="&#xd4;" d="M600-20C959-20 1141 218 1141 700C1141 1194 959 1440 600 1440C241 1440 59 1194 59 700C59 218 241-20 600-20ZM600 232C424 232 336 387 336 700C336 1027 424 1189 600 1189C776 1189 864 1027 864 700C864 387 776 232 600 232ZM222 1580L519 1580L601 1695L683 1580L980 1580L737 1840L465 1840Z"  horiz-adv-x="1200" vert-adv-y="2048"  />

      
      <glyph glyph-name="uni1ED0" unicode="&#x1ED0;" d="M600-20C959-20 1141 218 1141 700C1141 1194 959 1440 600 1440C241 1440 59 1194 59 700C59 218 241-20 600-20ZM600 232C424 232 336 387 336 700C336 1027 424 1189 600 1189C776 1189 864 1027 864 700C864 387 776 232 600 232ZM222 1580L519 1580L601 1695L683 1580L980 1580L737 1840L465 1840ZM836 1828L1118 1828L1422 2103L1058 2103Z"  horiz-adv-x="1200" vert-adv-y="2048"  />

      
      <glyph glyph-name="uni1ED8" unicode="&#x1ED8;" d="M600-20C959-20 1141 218 1141 700C1141 1194 959 1440 600 1440C241 1440 59 1194 59 700C59 218 241-20 600-20ZM600 232C424 232 336 387 336 700C336 1027 424 1189 600 1189C776 1189 864 1027 864 700C864 387 776 232 600 232ZM222 1580L519 1580L601 1695L683 1580L980 1580L737 1840L465 1840ZM600-448C694-448 771-372 771-278C771-182 694-107 600-107C506-107 429-182 429-278C429-372 506-448 600-448Z"  horiz-adv-x="1200" vert-adv-y="2048"  />

      
      <glyph glyph-name="uni1ED2" unicode="&#x1ED2;" d="M600-20C959-20 1141 218 1141 700C1141 1194 959 1440 600 1440C241 1440 59 1194 59 700C59 218 241-20 600-20ZM600 232C424 232 336 387 336 700C336 1027 424 1189 600 1189C776 1189 864 1027 864 700C864 387 776 232 600 232ZM222 1580L519 1580L601 1695L683 1580L980 1580L737 1840L465 1840ZM848 1828L1130 1828L908 2103L545 2103Z"  horiz-adv-x="1200" vert-adv-y="2048"  />

      
      <glyph glyph-name="uni1ED4" unicode="&#x1ED4;" d="M600-20C959-20 1141 218 1141 700C1141 1194 959 1440 600 1440C241 1440 59 1194 59 700C59 218 241-20 600-20ZM600 232C424 232 336 387 336 700C336 1027 424 1189 600 1189C776 1189 864 1027 864 700C864 387 776 232 600 232ZM895 1777L1075 1777C1075 1790 1089 1796 1117 1812C1208 1865 1244 1909 1244 1989C1244 2104 1161 2160 992 2160C869 2160 777 2133 719 2077L786 1933C827 1962 876 1976 934 1976C978 1976 999 1963 999 1942C999 1928 992 1912 961 1893C910 1857 895 1827 895 1798ZM222 1580L519 1580L601 1695L683 1580L980 1580L737 1840L465 1840Z"  horiz-adv-x="1200" vert-adv-y="2048"  />

      
      <glyph glyph-name="uni1ED6" unicode="&#x1ED6;" d="M600-20C959-20 1141 218 1141 700C1141 1194 959 1440 600 1440C241 1440 59 1194 59 700C59 218 241-20 600-20ZM600 232C424 232 336 387 336 700C336 1027 424 1189 600 1189C776 1189 864 1027 864 700C864 387 776 232 600 232ZM208 1946L466 1946L466 2006C466 2046 483 2063 523 2063C543 2063 577 2052 631 2027C701 1994 755 1980 807 1980C950 1980 1012 2061 1012 2245L1012 2295L755 2295L755 2243C755 2210 744 2196 722 2196C700 2196 662 2209 590 2239C535 2261 488 2271 435 2271C278 2271 208 2187 208 1996ZM222 1580L519 1580L601 1695L683 1580L980 1580L737 1840L465 1840Z"  horiz-adv-x="1200" vert-adv-y="2048"  />

      
      <glyph glyph-name="unid6" unicode="&#xd6;" d="M600-20C959-20 1141 218 1141 700C1141 1194 959 1440 600 1440C241 1440 59 1194 59 700C59 218 241-20 600-20ZM600 232C424 232 336 387 336 700C336 1027 424 1189 600 1189C776 1189 864 1027 864 700C864 387 776 232 600 232ZM359 1586C454 1586 529 1662 529 1757C529 1852 454 1927 359 1927C264 1927 188 1852 188 1757C188 1662 264 1586 359 1586ZM841 1586C936 1586 1012 1662 1012 1757C1012 1852 936 1927 841 1927C747 1927 671 1852 671 1757C671 1662 747 1586 841 1586Z"  horiz-adv-x="1200" vert-adv-y="2048"  />

      
      <glyph glyph-name="uni1ECC" unicode="&#x1ECC;" d="M600-20C959-20 1141 218 1141 700C1141 1194 959 1440 600 1440C241 1440 59 1194 59 700C59 218 241-20 600-20ZM600 232C424 232 336 387 336 700C336 1027 424 1189 600 1189C776 1189 864 1027 864 700C864 387 776 232 600 232ZM600-448C694-448 771-372 771-278C771-182 694-107 600-107C506-107 429-182 429-278C429-372 506-448 600-448Z"  horiz-adv-x="1200" vert-adv-y="2048"  />

      
      <glyph glyph-name="unid2" unicode="&#xd2;" d="M600-20C959-20 1141 218 1141 700C1141 1194 959 1440 600 1440C241 1440 59 1194 59 700C59 218 241-20 600-20ZM600 232C424 232 336 387 336 700C336 1027 424 1189 600 1189C776 1189 864 1027 864 700C864 387 776 232 600 232ZM464 1580L746 1580L524 1855L161 1855Z"  horiz-adv-x="1200" vert-adv-y="2048"  />

      
      <glyph glyph-name="uni1ECE" unicode="&#x1ECE;" d="M600-20C959-20 1141 218 1141 700C1141 1194 959 1440 600 1440C241 1440 59 1194 59 700C59 218 241-20 600-20ZM600 232C424 232 336 387 336 700C336 1027 424 1189 600 1189C776 1189 864 1027 864 700C864 387 776 232 600 232ZM511 1529L691 1529C691 1542 705 1548 733 1564C824 1617 860 1661 860 1741C860 1856 777 1912 608 1912C485 1912 393 1885 335 1829L402 1685C443 1714 492 1728 550 1728C594 1728 615 1715 615 1694C615 1680 608 1664 577 1645C526 1609 511 1579 511 1550Z"  horiz-adv-x="1200" vert-adv-y="2048"  />

      
      <glyph glyph-name="uni01A0" unicode="&#x01A0;" d="M600-20C959-20 1141 218 1141 700C1141 931 1101 1108 1022 1231C1184 1297 1265 1437 1265 1653L1006 1653C1006 1508 956 1422 851 1405L822 1400C757 1427 683 1440 600 1440C241 1440 59 1194 59 700C59 218 241-20 600-20ZM600 232C424 232 336 387 336 700C336 1027 424 1189 600 1189C776 1189 864 1027 864 700C864 387 776 232 600 232Z"  horiz-adv-x="1200" vert-adv-y="2048"  />

      
      <glyph glyph-name="uni1EDA" unicode="&#x1EDA;" d="M600-20C959-20 1141 218 1141 700C1141 931 1101 1108 1022 1231C1184 1297 1265 1437 1265 1653L1006 1653C1006 1508 956 1422 851 1405L822 1400C757 1427 683 1440 600 1440C241 1440 59 1194 59 700C59 218 241-20 600-20ZM600 232C424 232 336 387 336 700C336 1027 424 1189 600 1189C776 1189 864 1027 864 700C864 387 776 232 600 232ZM452 1580L734 1580L1038 1855L674 1855Z"  horiz-adv-x="1200" vert-adv-y="2048"  />

      
      <glyph glyph-name="uni1EE2" unicode="&#x1EE2;" d="M600-20C959-20 1141 218 1141 700C1141 931 1101 1108 1022 1231C1184 1297 1265 1437 1265 1653L1006 1653C1006 1508 956 1422 851 1405L822 1400C757 1427 683 1440 600 1440C241 1440 59 1194 59 700C59 218 241-20 600-20ZM600 232C424 232 336 387 336 700C336 1027 424 1189 600 1189C776 1189 864 1027 864 700C864 387 776 232 600 232ZM600-448C694-448 771-372 771-278C771-182 694-107 600-107C506-107 429-182 429-278C429-372 506-448 600-448Z"  horiz-adv-x="1200" vert-adv-y="2048"  />

      
      <glyph glyph-name="uni1EDC" unicode="&#x1EDC;" d="M600-20C959-20 1141 218 1141 700C1141 931 1101 1108 1022 1231C1184 1297 1265 1437 1265 1653L1006 1653C1006 1508 956 1422 851 1405L822 1400C757 1427 683 1440 600 1440C241 1440 59 1194 59 700C59 218 241-20 600-20ZM600 232C424 232 336 387 336 700C336 1027 424 1189 600 1189C776 1189 864 1027 864 700C864 387 776 232 600 232ZM464 1580L746 1580L524 1855L161 1855Z"  horiz-adv-x="1200" vert-adv-y="2048"  />

      
      <glyph glyph-name="uni1EDE" unicode="&#x1EDE;" d="M600-20C959-20 1141 218 1141 700C1141 931 1101 1108 1022 1231C1184 1297 1265 1437 1265 1653L1006 1653C1006 1508 956 1422 851 1405L822 1400C757 1427 683 1440 600 1440C241 1440 59 1194 59 700C59 218 241-20 600-20ZM600 232C424 232 336 387 336 700C336 1027 424 1189 600 1189C776 1189 864 1027 864 700C864 387 776 232 600 232ZM511 1529L691 1529C691 1542 705 1548 733 1564C824 1617 860 1661 860 1741C860 1856 777 1912 608 1912C485 1912 393 1885 335 1829L402 1685C443 1714 492 1728 550 1728C594 1728 615 1715 615 1694C615 1680 608 1664 577 1645C526 1609 511 1579 511 1550Z"  horiz-adv-x="1200" vert-adv-y="2048"  />

      
      <glyph glyph-name="uni1EE0" unicode="&#x1EE0;" d="M600-20C959-20 1141 218 1141 700C1141 931 1101 1108 1022 1231C1184 1297 1265 1437 1265 1653L1006 1653C1006 1508 956 1422 851 1405L822 1400C757 1427 683 1440 600 1440C241 1440 59 1194 59 700C59 218 241-20 600-20ZM600 232C424 232 336 387 336 700C336 1027 424 1189 600 1189C776 1189 864 1027 864 700C864 387 776 232 600 232ZM208 1566L466 1566L466 1626C466 1666 483 1683 523 1683C543 1683 577 1672 631 1647C701 1614 755 1600 807 1600C950 1600 1012 1681 1012 1865L1012 1915L755 1915L755 1863C755 1830 744 1816 722 1816C700 1816 662 1829 590 1859C535 1881 488 1891 435 1891C278 1891 208 1807 208 1616Z"  horiz-adv-x="1200" vert-adv-y="2048"  />

      
      <glyph glyph-name="uni0150" unicode="&#x0150;" d="M600-20C959-20 1141 218 1141 700C1141 1194 959 1440 600 1440C241 1440 59 1194 59 700C59 218 241-20 600-20ZM600 232C424 232 336 387 336 700C336 1027 424 1189 600 1189C776 1189 864 1027 864 700C864 387 776 232 600 232ZM651 1580L934 1580L1134 1830L786 1830ZM224 1580L508 1580L699 1830L359 1830Z"  horiz-adv-x="1200" vert-adv-y="2048"  />

      
      <glyph glyph-name="uni014C" unicode="&#x014C;" d="M600-20C959-20 1141 218 1141 700C1141 1194 959 1440 600 1440C241 1440 59 1194 59 700C59 218 241-20 600-20ZM600 232C424 232 336 387 336 700C336 1027 424 1189 600 1189C776 1189 864 1027 864 700C864 387 776 232 600 232ZM213 1563L987 1563L987 1801L213 1801Z"  horiz-adv-x="1200" vert-adv-y="2048"  />

      
      <glyph glyph-name="uni1E52" unicode="&#x1E52;" d="M600-20C959-20 1141 218 1141 700C1141 1194 959 1440 600 1440C241 1440 59 1194 59 700C59 218 241-20 600-20ZM600 232C424 232 336 387 336 700C336 1027 424 1189 600 1189C776 1189 864 1027 864 700C864 387 776 232 600 232ZM213 1563L987 1563L987 1801L213 1801ZM452 1880L734 1880L1038 2155L674 2155Z"  horiz-adv-x="1200" vert-adv-y="2048"  />

      
      <glyph glyph-name="uni1E50" unicode="&#x1E50;" d="M600-20C959-20 1141 218 1141 700C1141 1194 959 1440 600 1440C241 1440 59 1194 59 700C59 218 241-20 600-20ZM600 232C424 232 336 387 336 700C336 1027 424 1189 600 1189C776 1189 864 1027 864 700C864 387 776 232 600 232ZM213 1563L987 1563L987 1801L213 1801ZM464 1880L746 1880L524 2155L161 2155Z"  horiz-adv-x="1200" vert-adv-y="2048"  />

      
      <glyph glyph-name="uni01EA" unicode="&#x01EA;" d="M658-432C689-432 724-427 765-415L783-203C753-211 729-214 709-214C643-214 626-176 626-151C626-56 703-28 772 2C1017 70 1141 302 1141 700C1141 1194 959 1440 600 1440C241 1440 59 1194 59 700C59 249 218 12 532-17L532-48C449-72 401-138 401-232C401-359 494-432 658-432ZM600 232C424 232 336 387 336 700C336 1027 424 1189 600 1189C776 1189 864 1027 864 700C864 387 776 232 600 232Z"  horiz-adv-x="1200" vert-adv-y="2048"  />

      
      <glyph glyph-name="uni0186" unicode="&#x0186;" d="M496-20C925-20 1141 256 1141 713C1141 1183 913 1440 475 1440C339 1440 212 1418 89 1372L152 1129C246 1169 339 1189 441 1189C720 1189 865 1013 865 705C865 410 738 232 524 232C365 232 292 262 173 360L20 151C144 37 309-20 496-20Z"  horiz-adv-x="1200" vert-adv-y="2048"  />

      
      <glyph glyph-name="unid8" unicode="&#xd8;" d="M251-134L343 35C415-2 501-20 600-20C959-20 1141 218 1141 700C1141 947 1095 1132 1005 1256L1114 1457L929 1532L850 1387C780 1422 696 1440 600 1440C241 1440 59 1194 59 700C59 464 102 287 189 167L66-59ZM600 232C550 232 506 245 470 270L840 952C856 883 864 799 864 700C864 387 776 232 600 232ZM356 476C343 539 336 613 336 700C336 1027 424 1189 600 1189C648 1189 689 1177 724 1153Z"  horiz-adv-x="1200" vert-adv-y="2048"  />

      
      <glyph glyph-name="uni01FE" unicode="&#x01FE;" d="M251-134L343 35C415-2 501-20 600-20C959-20 1141 218 1141 700C1141 947 1095 1132 1005 1256L1114 1457L929 1532L850 1387C780 1422 696 1440 600 1440C241 1440 59 1194 59 700C59 464 102 287 189 167L66-59ZM600 232C550 232 506 245 470 270L840 952C856 883 864 799 864 700C864 387 776 232 600 232ZM356 476C343 539 336 613 336 700C336 1027 424 1189 600 1189C648 1189 689 1177 724 1153ZM452 1580L734 1580L1038 1855L674 1855Z"  horiz-adv-x="1200" vert-adv-y="2048"  />

      
      <glyph glyph-name="unid5" unicode="&#xd5;" d="M600-20C959-20 1141 218 1141 700C1141 1194 959 1440 600 1440C241 1440 59 1194 59 700C59 218 241-20 600-20ZM600 232C424 232 336 387 336 700C336 1027 424 1189 600 1189C776 1189 864 1027 864 700C864 387 776 232 600 232ZM208 1566L466 1566L466 1626C466 1666 483 1683 523 1683C543 1683 577 1672 631 1647C701 1614 755 1600 807 1600C950 1600 1012 1681 1012 1865L1012 1915L755 1915L755 1863C755 1830 744 1816 722 1816C700 1816 662 1829 590 1859C535 1881 488 1891 435 1891C278 1891 208 1807 208 1616Z"  horiz-adv-x="1200" vert-adv-y="2048"  />

      
      <glyph glyph-name="uni0152" unicode="&#x0152;" d="M503-20C617-20 704 0 775 0L1117 0L1117 242L820 242L820 590L1057 590L1057 832L820 832L820 1178L1117 1178L1117 1420L775 1420C681 1420 612 1440 503 1440C221 1440 59 1170 59 700C59 242 221-20 503-20ZM513 226C401 226 336 404 336 706C336 1020 397 1194 503 1194C525 1194 545 1190 560 1181L560 232C547 228 530 226 513 226Z"  horiz-adv-x="1200" vert-adv-y="2048"  />

      
      <glyph glyph-name="uni50" unicode="&#x50;" d="M143 0L407 0L407 407L578 407C934 407 1137 601 1137 940C1137 1245 934 1420 578 1420L143 1420ZM407 650L407 1177L578 1177C752 1177 852 1085 852 923C852 751 752 650 578 650Z"  horiz-adv-x="1200" vert-adv-y="2048"  />

      
      <glyph glyph-name="unide" unicode="&#xde;" d="M143 0L407 0L407 208L578 208C934 208 1137 398 1137 731C1137 1042 934 1221 578 1221L407 1221L407 1420L143 1420ZM407 451L407 978L578 978C752 978 852 882 852 714C852 548 752 451 578 451Z"  horiz-adv-x="1200" vert-adv-y="2048"  />

      
      <glyph glyph-name="uni51" unicode="&#x51;" d="M947-460L1029-460L1049-209L947-209C800-209 728-147 728-22L728-9C1002 44 1141 279 1141 700C1141 1194 959 1440 600 1440C241 1440 59 1194 59 700C59 284 194 50 462-6L462-20C462-314 625-460 947-460ZM600 232C424 232 336 387 336 700C336 1027 424 1189 600 1189C776 1189 864 1027 864 700C864 387 776 232 600 232Z"  horiz-adv-x="1200" vert-adv-y="2048"  />

      
      <glyph glyph-name="uni52" unicode="&#x52;" d="M123 0L387 0L387 520L628 520C630 520 633 520 635 520L844 0L1159 0L895 579C1032 653 1107 795 1107 990C1107 1264 933 1420 628 1420L123 1420ZM387 763L387 1177L628 1177C750 1177 822 1102 822 970C822 839 750 763 628 763Z"  horiz-adv-x="1200" vert-adv-y="2048"  />

      
      <glyph glyph-name="uni0154" unicode="&#x0154;" d="M123 0L387 0L387 520L628 520C630 520 633 520 635 520L844 0L1159 0L895 579C1032 653 1107 795 1107 990C1107 1264 933 1420 628 1420L123 1420ZM387 763L387 1177L628 1177C750 1177 822 1102 822 970C822 839 750 763 628 763ZM412 1580L694 1580L998 1855L634 1855Z"  horiz-adv-x="1200" vert-adv-y="2048"  />

      
      <glyph glyph-name="uni0158" unicode="&#x0158;" d="M123 0L387 0L387 520L628 520C630 520 633 520 635 520L844 0L1159 0L895 579C1032 653 1107 795 1107 990C1107 1264 933 1420 628 1420L123 1420ZM387 763L387 1177L628 1177C750 1177 822 1102 822 970C822 839 750 763 628 763ZM424 1580L696 1580L939 1840L642 1840L560 1723L478 1840L181 1840Z"  horiz-adv-x="1200" vert-adv-y="2048"  />

      
      <glyph glyph-name="uni0156" unicode="&#x0156;" d="M123 0L387 0L387 520L628 520C630 520 633 520 635 520L844 0L1159 0L895 579C1032 653 1107 795 1107 990C1107 1264 933 1420 628 1420L123 1420ZM387 763L387 1177L628 1177C750 1177 822 1102 822 970C822 839 750 763 628 763ZM392-480L640-480L757-140L469-140Z"  horiz-adv-x="1200" vert-adv-y="2048"  />

      
      <glyph glyph-name="uni1E5A" unicode="&#x1E5A;" d="M123 0L387 0L387 520L628 520C630 520 633 520 635 520L844 0L1159 0L895 579C1032 653 1107 795 1107 990C1107 1264 933 1420 628 1420L123 1420ZM387 763L387 1177L628 1177C750 1177 822 1102 822 970C822 839 750 763 628 763ZM610-448C704-448 781-372 781-278C781-182 704-107 610-107C516-107 439-182 439-278C439-372 516-448 610-448Z"  horiz-adv-x="1200" vert-adv-y="2048"  />

      
      <glyph glyph-name="uni53" unicode="&#x53;" d="M551-20C886-20 1074 122 1074 374C1074 533 961 675 761 779L569 878C484 923 436 980 436 1043C436 1137 504 1189 622 1189C708 1189 804 1140 896 1052L1078 1261C956 1377 795 1440 621 1440C321 1440 150 1298 150 1050C150 874 266 724 467 626L671 527C745 492 788 438 788 379C788 284 709 232 567 232C444 232 294 266 148 328L112 58C232 8 390-20 551-20Z"  horiz-adv-x="1200" vert-adv-y="2048"  />

      
      <glyph glyph-name="uni015A" unicode="&#x015A;" d="M551-20C886-20 1074 122 1074 374C1074 533 961 675 761 779L569 878C484 923 436 980 436 1043C436 1137 504 1189 622 1189C708 1189 804 1140 896 1052L1078 1261C956 1377 795 1440 621 1440C321 1440 150 1298 150 1050C150 874 266 724 467 626L671 527C745 492 788 438 788 379C788 284 709 232 567 232C444 232 294 266 148 328L112 58C232 8 390-20 551-20ZM472 1580L754 1580L1058 1855L694 1855Z"  horiz-adv-x="1200" vert-adv-y="2048"  />

      
      <glyph glyph-name="uni0160" unicode="&#x0160;" d="M551-20C886-20 1074 122 1074 374C1074 533 961 675 761 779L569 878C484 923 436 980 436 1043C436 1137 504 1189 622 1189C708 1189 804 1140 896 1052L1078 1261C956 1377 795 1440 621 1440C321 1440 150 1298 150 1050C150 874 266 724 467 626L671 527C745 492 788 438 788 379C788 284 709 232 567 232C444 232 294 266 148 328L112 58C232 8 390-20 551-20ZM484 1580L756 1580L999 1840L702 1840L620 1723L538 1840L241 1840Z"  horiz-adv-x="1200" vert-adv-y="2048"  />

      
      <glyph glyph-name="uni015E" unicode="&#x015E;" d="M416-480C702-480 844-409 844-267C844-183 793-132 688-108L712-7C946 33 1074 166 1074 374C1074 533 961 675 761 779L569 878C484 923 436 980 436 1043C436 1137 504 1189 622 1189C708 1189 804 1140 896 1052L1078 1261C956 1377 795 1440 621 1440C321 1440 150 1298 150 1050C150 874 266 724 467 626L671 527C745 492 788 438 788 379C788 284 709 232 567 232C444 232 294 266 148 328L112 58C220 13 359-14 502-19L442-198C540-198 587-218 587-258C587-300 531-322 416-322Z"  horiz-adv-x="1200" vert-adv-y="2048"  />

      
      <glyph glyph-name="uni015C" unicode="&#x015C;" d="M551-20C886-20 1074 122 1074 374C1074 533 961 675 761 779L569 878C484 923 436 980 436 1043C436 1137 504 1189 622 1189C708 1189 804 1140 896 1052L1078 1261C956 1377 795 1440 621 1440C321 1440 150 1298 150 1050C150 874 266 724 467 626L671 527C745 492 788 438 788 379C788 284 709 232 567 232C444 232 294 266 148 328L112 58C232 8 390-20 551-20ZM242 1580L539 1580L621 1695L703 1580L1000 1580L757 1840L485 1840Z"  horiz-adv-x="1200" vert-adv-y="2048"  />

      
      <glyph glyph-name="uni0218" unicode="&#x0218;" d="M551-20C886-20 1074 122 1074 374C1074 533 961 675 761 779L569 878C484 923 436 980 436 1043C436 1137 504 1189 622 1189C708 1189 804 1140 896 1052L1078 1261C956 1377 795 1440 621 1440C321 1440 150 1298 150 1050C150 874 266 724 467 626L671 527C745 492 788 438 788 379C788 284 709 232 567 232C444 232 294 266 148 328L112 58C232 8 390-20 551-20ZM392-480L640-480L757-140L469-140Z"  horiz-adv-x="1200" vert-adv-y="2048"  />

      
      <glyph glyph-name="uni1E62" unicode="&#x1E62;" d="M551-20C886-20 1074 122 1074 374C1074 533 961 675 761 779L569 878C484 923 436 980 436 1043C436 1137 504 1189 622 1189C708 1189 804 1140 896 1052L1078 1261C956 1377 795 1440 621 1440C321 1440 150 1298 150 1050C150 874 266 724 467 626L671 527C745 492 788 438 788 379C788 284 709 232 567 232C444 232 294 266 148 328L112 58C232 8 390-20 551-20ZM610-448C704-448 781-372 781-278C781-182 704-107 610-107C516-107 439-182 439-278C439-372 516-448 610-448Z"  horiz-adv-x="1200" vert-adv-y="2048"  />

      
      <glyph glyph-name="uni1E9E" unicode="&#x1E9E;" d="M123 0L387 0L387 930C387 1111 467 1189 656 1188C703 1188 749 1178 795 1158L546 687L721 637C833 605 896 528 896 432C896 305 816 233 677 233C615 233 545 240 485 251L459 3C509-11 583-20 661-20C987-20 1174 150 1174 446C1174 639 1076 779 899 845L1122 1270L1121 1270L1121 1270C986 1384 833 1440 656 1440C282 1440 123 1288 123 930Z"  horiz-adv-x="1200" vert-adv-y="2048"  />

      
      <glyph glyph-name="uni018F" unicode="&#x018F;" d="M600-20C959-20 1141 218 1141 700C1141 1194 925 1440 500 1440C379 1440 261 1425 151 1394L179 1150C278 1176 387 1189 500 1189C710 1189 829 1068 857 825L63 825C60 779 59 730 59 680C59 211 241-20 600-20ZM859 581C838 348 752 232 600 232C445 232 358 347 340 581Z"  horiz-adv-x="1200" vert-adv-y="2048"  />

      
      <glyph glyph-name="uni54" unicode="&#x54;" d="M468 0L732 0L732 1177L1137 1177L1137 1420L63 1420L63 1177L468 1177Z"  horiz-adv-x="1200" vert-adv-y="2048"  />

      
      <glyph glyph-name="uni0166" unicode="&#x0166;" d="M172 561L468 561L468 0L732 0L732 561L1028 561L1028 803L732 803L732 1177L1137 1177L1137 1420L63 1420L63 1177L468 1177L468 803L172 803Z"  horiz-adv-x="1200" vert-adv-y="2048"  />

      
      <glyph glyph-name="uni0164" unicode="&#x0164;" d="M468 0L732 0L732 1177L1137 1177L1137 1420L63 1420L63 1177L468 1177ZM464 1580L736 1580L979 1840L682 1840L600 1723L518 1840L221 1840Z"  horiz-adv-x="1200" vert-adv-y="2048"  />

      
      <glyph glyph-name="uni0162" unicode="&#x0162;" d="M468 0L494 0L427-198C525-198 572-218 572-258C572-300 516-322 401-322L401-480C687-480 829-409 829-267C829-183 778-132 673-108L698-5L606 0L732 0L732 1177L1137 1177L1137 1420L63 1420L63 1177L468 1177Z"  horiz-adv-x="1200" vert-adv-y="2048"  />

      
      <glyph glyph-name="uni021A" unicode="&#x021A;" d="M468 0L732 0L732 1177L1137 1177L1137 1420L63 1420L63 1177L468 1177ZM377-480L625-480L742-140L454-140Z"  horiz-adv-x="1200" vert-adv-y="2048"  />

      
      <glyph glyph-name="uni023E" unicode="&#x023E;" d="M405-350L525 0L732 0L732 600L931 1177L1137 1177L1137 1420L1014 1420L1101 1672L908 1716L808 1420L63 1420L63 1177L468 1177L468 413L232-286Z"  horiz-adv-x="1200" vert-adv-y="2048"  />

      
      <glyph glyph-name="uni1E6E" unicode="&#x1E6E;" d="M468 0L732 0L732 1177L1137 1177L1137 1420L63 1420L63 1177L468 1177ZM165-459L1025-459L1025-208L165-208Z"  horiz-adv-x="1200" vert-adv-y="2048"  />

      
      <glyph glyph-name="uni55" unicode="&#x55;" d="M596-20C911-20 1077 138 1077 456L1077 1420L813 1420L813 456C813 308 741 233 600 233C453 233 387 308 387 456L387 1420L123 1420L123 456C123 138 281-20 596-20Z"  horiz-adv-x="1200" vert-adv-y="2048"  />

      
      <glyph glyph-name="unida" unicode="&#xda;" d="M596-20C911-20 1077 138 1077 456L1077 1420L813 1420L813 456C813 308 741 233 600 233C453 233 387 308 387 456L387 1420L123 1420L123 456C123 138 281-20 596-20ZM452 1580L734 1580L1038 1855L674 1855Z"  horiz-adv-x="1200" vert-adv-y="2048"  />

      
      <glyph glyph-name="uni016C" unicode="&#x016C;" d="M596-20C911-20 1077 138 1077 456L1077 1420L813 1420L813 456C813 308 741 233 600 233C453 233 387 308 387 456L387 1420L123 1420L123 456C123 138 281-20 596-20ZM600 1553C848 1553 991 1665 991 1860L724 1860C724 1765 679 1731 600 1731C522 1731 476 1765 476 1860L209 1860C209 1665 352 1553 600 1553Z"  horiz-adv-x="1200" vert-adv-y="2048"  />

      
      <glyph glyph-name="unidb" unicode="&#xdb;" d="M596-20C911-20 1077 138 1077 456L1077 1420L813 1420L813 456C813 308 741 233 600 233C453 233 387 308 387 456L387 1420L123 1420L123 456C123 138 281-20 596-20ZM222 1580L519 1580L601 1695L683 1580L980 1580L737 1840L465 1840Z"  horiz-adv-x="1200" vert-adv-y="2048"  />

      
      <glyph glyph-name="unidc" unicode="&#xdc;" d="M596-20C911-20 1077 138 1077 456L1077 1420L813 1420L813 456C813 308 741 233 600 233C453 233 387 308 387 456L387 1420L123 1420L123 456C123 138 281-20 596-20ZM359 1586C454 1586 529 1662 529 1757C529 1852 454 1927 359 1927C264 1927 188 1852 188 1757C188 1662 264 1586 359 1586ZM841 1586C936 1586 1012 1662 1012 1757C1012 1852 936 1927 841 1927C747 1927 671 1852 671 1757C671 1662 747 1586 841 1586Z"  horiz-adv-x="1200" vert-adv-y="2048"  />

      
      <glyph glyph-name="uni1EE4" unicode="&#x1EE4;" d="M596-20C911-20 1077 138 1077 456L1077 1420L813 1420L813 456C813 308 741 233 600 233C453 233 387 308 387 456L387 1420L123 1420L123 456C123 138 281-20 596-20ZM600-448C694-448 771-372 771-278C771-182 694-107 600-107C506-107 429-182 429-278C429-372 506-448 600-448Z"  horiz-adv-x="1200" vert-adv-y="2048"  />

      
      <glyph glyph-name="unid9" unicode="&#xd9;" d="M596-20C911-20 1077 138 1077 456L1077 1420L813 1420L813 456C813 308 741 233 600 233C453 233 387 308 387 456L387 1420L123 1420L123 456C123 138 281-20 596-20ZM464 1580L746 1580L524 1855L161 1855Z"  horiz-adv-x="1200" vert-adv-y="2048"  />

      
      <glyph glyph-name="uni1EE6" unicode="&#x1EE6;" d="M596-20C911-20 1077 138 1077 456L1077 1420L813 1420L813 456C813 308 741 233 600 233C453 233 387 308 387 456L387 1420L123 1420L123 456C123 138 281-20 596-20ZM511 1529L691 1529C691 1542 705 1548 733 1564C824 1617 860 1661 860 1741C860 1856 777 1912 608 1912C485 1912 393 1885 335 1829L402 1685C443 1714 492 1728 550 1728C594 1728 615 1715 615 1694C615 1680 608 1664 577 1645C526 1609 511 1579 511 1550Z"  horiz-adv-x="1200" vert-adv-y="2048"  />

      
      <glyph glyph-name="uni01AF" unicode="&#x01AF;" d="M596-20C911-20 1077 138 1077 456L1077 1245C1225 1307 1298 1444 1298 1653L1039 1653C1039 1518 987 1425 877 1422L827 1420L813 1420L813 456C813 308 741 233 600 233C453 233 387 308 387 456L387 1420L123 1420L123 456C123 138 281-20 596-20Z"  horiz-adv-x="1200" vert-adv-y="2048"  />

      
      <glyph glyph-name="uni1EE8" unicode="&#x1EE8;" d="M596-20C911-20 1077 138 1077 456L1077 1245C1225 1307 1298 1444 1298 1653L1039 1653C1039 1518 987 1425 877 1422L827 1420L813 1420L813 456C813 308 741 233 600 233C453 233 387 308 387 456L387 1420L123 1420L123 456C123 138 281-20 596-20ZM452 1580L734 1580L1038 1855L674 1855Z"  horiz-adv-x="1200" vert-adv-y="2048"  />

      
      <glyph glyph-name="uni1EF0" unicode="&#x1EF0;" d="M596-20C911-20 1077 138 1077 456L1077 1245C1225 1307 1298 1444 1298 1653L1039 1653C1039 1518 987 1425 877 1422L827 1420L813 1420L813 456C813 308 741 233 600 233C453 233 387 308 387 456L387 1420L123 1420L123 456C123 138 281-20 596-20ZM600-448C694-448 771-372 771-278C771-182 694-107 600-107C506-107 429-182 429-278C429-372 506-448 600-448Z"  horiz-adv-x="1200" vert-adv-y="2048"  />

      
      <glyph glyph-name="uni1EEA" unicode="&#x1EEA;" d="M596-20C911-20 1077 138 1077 456L1077 1245C1225 1307 1298 1444 1298 1653L1039 1653C1039 1518 987 1425 877 1422L827 1420L813 1420L813 456C813 308 741 233 600 233C453 233 387 308 387 456L387 1420L123 1420L123 456C123 138 281-20 596-20ZM464 1580L746 1580L524 1855L161 1855Z"  horiz-adv-x="1200" vert-adv-y="2048"  />

      
      <glyph glyph-name="uni1EEC" unicode="&#x1EEC;" d="M596-20C911-20 1077 138 1077 456L1077 1245C1225 1307 1298 1444 1298 1653L1039 1653C1039 1518 987 1425 877 1422L827 1420L813 1420L813 456C813 308 741 233 600 233C453 233 387 308 387 456L387 1420L123 1420L123 456C123 138 281-20 596-20ZM511 1529L691 1529C691 1542 705 1548 733 1564C824 1617 860 1661 860 1741C860 1856 777 1912 608 1912C485 1912 393 1885 335 1829L402 1685C443 1714 492 1728 550 1728C594 1728 615 1715 615 1694C615 1680 608 1664 577 1645C526 1609 511 1579 511 1550Z"  horiz-adv-x="1200" vert-adv-y="2048"  />

      
      <glyph glyph-name="uni1EEE" unicode="&#x1EEE;" d="M596-20C911-20 1077 138 1077 456L1077 1245C1225 1307 1298 1444 1298 1653L1039 1653C1039 1518 987 1425 877 1422L827 1420L813 1420L813 456C813 308 741 233 600 233C453 233 387 308 387 456L387 1420L123 1420L123 456C123 138 281-20 596-20ZM208 1566L466 1566L466 1626C466 1666 483 1683 523 1683C543 1683 577 1672 631 1647C701 1614 755 1600 807 1600C950 1600 1012 1681 1012 1865L1012 1915L755 1915L755 1863C755 1830 744 1816 722 1816C700 1816 662 1829 590 1859C535 1881 488 1891 435 1891C278 1891 208 1807 208 1616Z"  horiz-adv-x="1200" vert-adv-y="2048"  />

      
      <glyph glyph-name="uni0170" unicode="&#x0170;" d="M596-20C911-20 1077 138 1077 456L1077 1420L813 1420L813 456C813 308 741 233 600 233C453 233 387 308 387 456L387 1420L123 1420L123 456C123 138 281-20 596-20ZM651 1580L934 1580L1134 1830L786 1830ZM224 1580L508 1580L699 1830L359 1830Z"  horiz-adv-x="1200" vert-adv-y="2048"  />

      
      <glyph glyph-name="uni016A" unicode="&#x016A;" d="M596-20C911-20 1077 138 1077 456L1077 1420L813 1420L813 456C813 308 741 233 600 233C453 233 387 308 387 456L387 1420L123 1420L123 456C123 138 281-20 596-20ZM213 1563L987 1563L987 1801L213 1801Z"  horiz-adv-x="1200" vert-adv-y="2048"  />

      
      <glyph glyph-name="uni0172" unicode="&#x0172;" d="M660-432C691-432 726-427 766-415L784-203C755-211 730-214 711-214C644-214 628-176 628-151C628-55 710-27 781 3C976 57 1077 208 1077 456L1077 1420L813 1420L813 456C813 308 741 233 600 233C453 233 387 308 387 456L387 1420L123 1420L123 456C123 160 260 2 534-18L534-48C451-72 403-138 403-232C403-359 496-432 660-432Z"  horiz-adv-x="1200" vert-adv-y="2048"  />

      
      <glyph glyph-name="uni01B1" unicode="&#x01B1;" d="M87 1420L87 1177L317 1177L317 1144C161 1046 59 905 59 603C59 207 256-20 600-20C944-20 1141 207 1141 603C1141 910 1047 1050 907 1141L907 1177L1113 1177L1113 1420L661 1420L661 1177C774 1128 864 955 864 653C864 385 768 231 600 231C432 231 336 385 336 653C336 949 434 1123 563 1177L563 1420Z"  horiz-adv-x="1200" vert-adv-y="2048"  />

      
      <glyph glyph-name="uni016E" unicode="&#x016E;" d="M596-20C911-20 1077 138 1077 456L1077 1420L813 1420L813 456C813 308 741 233 600 233C453 233 387 308 387 456L387 1420L123 1420L123 456C123 138 281-20 596-20ZM600 1480C783 1480 888 1558 888 1694C888 1830 783 1908 600 1908C417 1908 312 1830 312 1694C312 1558 417 1480 600 1480ZM600 1629C549 1629 521 1652 521 1694C521 1736 549 1760 600 1760C651 1760 679 1736 679 1694C679 1652 651 1629 600 1629Z"  horiz-adv-x="1200" vert-adv-y="2048"  />

      
      <glyph glyph-name="uni0168" unicode="&#x0168;" d="M596-20C911-20 1077 138 1077 456L1077 1420L813 1420L813 456C813 308 741 233 600 233C453 233 387 308 387 456L387 1420L123 1420L123 456C123 138 281-20 596-20ZM208 1566L466 1566L466 1626C466 1666 483 1683 523 1683C543 1683 577 1672 631 1647C701 1614 755 1600 807 1600C950 1600 1012 1681 1012 1865L1012 1915L755 1915L755 1863C755 1830 744 1816 722 1816C700 1816 662 1829 590 1859C535 1881 488 1891 435 1891C278 1891 208 1807 208 1616Z"  horiz-adv-x="1200" vert-adv-y="2048"  />

      
      <glyph glyph-name="uni56" unicode="&#x56;" d="M395 0L805 0L1172 1420L899 1420L609 237L591 237L301 1420L28 1420Z"  horiz-adv-x="1200" vert-adv-y="2048"  />

      
      <glyph glyph-name="uni0194" unicode="&#x0194;" d="M600-462C825-462 956-366 956-196C956-110 925-45 821 62L1172 1420L899 1420L609 237L591 237L301 1420L28 1420L379 62C275-45 244-110 244-196C244-366 375-462 600-462ZM504-152C504-108 528-63 600 24C672-63 696-108 696-152C696-209 662-242 600-242C538-242 504-209 504-152Z"  horiz-adv-x="1200" vert-adv-y="2048"  />

      
      <glyph glyph-name="uni01B2" unicode="&#x01B2;" d="M573 1420L573 1175L654 1175C770 1175 813 1125 813 988L813 456C813 308 741 233 600 233C453 233 387 308 387 456L387 1420L123 1420L123 456C123 138 281-20 596-20C911-20 1077 138 1077 456L1077 1100C1077 1335 991 1420 753 1420Z"  horiz-adv-x="1200" vert-adv-y="2048"  />

      
      <glyph glyph-name="uni0245" unicode="&#x0245;" d="M28 0L315 0L591 1073L609 1073L885 0L1172 0L762 1420L438 1420Z"  horiz-adv-x="1200" vert-adv-y="2048"  />

      
      <glyph glyph-name="uni57" unicode="&#x57;" d="M155 0L514 0L594 787L606 787L686 0L1045 0L1197 1420L937 1420L850 235L822 235L718 1060L484 1060L378 235L350 235L263 1420L3 1420Z"  horiz-adv-x="1200" vert-adv-y="2048"  />

      
      <glyph glyph-name="uni1E82" unicode="&#x1E82;" d="M155 0L514 0L594 787L606 787L686 0L1045 0L1197 1420L937 1420L850 235L822 235L718 1060L484 1060L378 235L350 235L263 1420L3 1420ZM452 1580L734 1580L1038 1855L674 1855Z"  horiz-adv-x="1200" vert-adv-y="2048"  />

      
      <glyph glyph-name="uni0174" unicode="&#x0174;" d="M155 0L514 0L594 787L606 787L686 0L1045 0L1197 1420L937 1420L850 235L822 235L718 1060L484 1060L378 235L350 235L263 1420L3 1420ZM222 1580L519 1580L601 1695L683 1580L980 1580L737 1840L465 1840Z"  horiz-adv-x="1200" vert-adv-y="2048"  />

      
      <glyph glyph-name="uni1E84" unicode="&#x1E84;" d="M155 0L514 0L594 787L606 787L686 0L1045 0L1197 1420L937 1420L850 235L822 235L718 1060L484 1060L378 235L350 235L263 1420L3 1420ZM359 1586C454 1586 529 1662 529 1757C529 1852 454 1927 359 1927C264 1927 188 1852 188 1757C188 1662 264 1586 359 1586ZM841 1586C936 1586 1012 1662 1012 1757C1012 1852 936 1927 841 1927C747 1927 671 1852 671 1757C671 1662 747 1586 841 1586Z"  horiz-adv-x="1200" vert-adv-y="2048"  />

      
      <glyph glyph-name="uni1E80" unicode="&#x1E80;" d="M155 0L514 0L594 787L606 787L686 0L1045 0L1197 1420L937 1420L850 235L822 235L718 1060L484 1060L378 235L350 235L263 1420L3 1420ZM464 1580L746 1580L524 1855L161 1855Z"  horiz-adv-x="1200" vert-adv-y="2048"  />

      
      <glyph glyph-name="uni58" unicode="&#x58;" d="M839 0L1169 0L728 703L1169 1420L839 1420L600 943L362 1420L32 1420L472 703L32 0L362 0L600 469Z"  horiz-adv-x="1200" vert-adv-y="2048"  />

      
      <glyph glyph-name="uni59" unicode="&#x59;" d="M468 0L732 0L732 455L1192 1420L897 1420L609 760L591 760L303 1420L8 1420L468 455Z"  horiz-adv-x="1200" vert-adv-y="2048"  />

      
      <glyph glyph-name="unidd" unicode="&#xdd;" d="M468 0L732 0L732 455L1192 1420L897 1420L609 760L591 760L303 1420L8 1420L468 455ZM452 1580L734 1580L1038 1855L674 1855Z"  horiz-adv-x="1200" vert-adv-y="2048"  />

      
      <glyph glyph-name="uni0176" unicode="&#x0176;" d="M468 0L732 0L732 455L1192 1420L897 1420L609 760L591 760L303 1420L8 1420L468 455ZM222 1580L519 1580L601 1695L683 1580L980 1580L737 1840L465 1840Z"  horiz-adv-x="1200" vert-adv-y="2048"  />

      
      <glyph glyph-name="uni0178" unicode="&#x0178;" d="M468 0L732 0L732 455L1192 1420L897 1420L609 760L591 760L303 1420L8 1420L468 455ZM359 1586C454 1586 529 1662 529 1757C529 1852 454 1927 359 1927C264 1927 188 1852 188 1757C188 1662 264 1586 359 1586ZM841 1586C936 1586 1012 1662 1012 1757C1012 1852 936 1927 841 1927C747 1927 671 1852 671 1757C671 1662 747 1586 841 1586Z"  horiz-adv-x="1200" vert-adv-y="2048"  />

      
      <glyph glyph-name="uni1EF4" unicode="&#x1EF4;" d="M468 0L732 0L732 455L1192 1420L897 1420L609 760L591 760L303 1420L8 1420L468 455ZM600-448C694-448 771-372 771-278C771-182 694-107 600-107C506-107 429-182 429-278C429-372 506-448 600-448Z"  horiz-adv-x="1200" vert-adv-y="2048"  />

      
      <glyph glyph-name="uni1EF2" unicode="&#x1EF2;" d="M468 0L732 0L732 455L1192 1420L897 1420L609 760L591 760L303 1420L8 1420L468 455ZM464 1580L746 1580L524 1855L161 1855Z"  horiz-adv-x="1200" vert-adv-y="2048"  />

      
      <glyph glyph-name="uni1EF6" unicode="&#x1EF6;" d="M468 0L732 0L732 455L1192 1420L897 1420L609 760L591 760L303 1420L8 1420L468 455ZM511 1529L691 1529C691 1542 705 1548 733 1564C824 1617 860 1661 860 1741C860 1856 777 1912 608 1912C485 1912 393 1885 335 1829L402 1685C443 1714 492 1728 550 1728C594 1728 615 1715 615 1694C615 1680 608 1664 577 1645C526 1609 511 1579 511 1550Z"  horiz-adv-x="1200" vert-adv-y="2048"  />

      
      <glyph glyph-name="uni0232" unicode="&#x0232;" d="M468 0L732 0L732 455L1192 1420L897 1420L609 760L591 760L303 1420L8 1420L468 455ZM213 1563L987 1563L987 1801L213 1801Z"  horiz-adv-x="1200" vert-adv-y="2048"  />

      
      <glyph glyph-name="uni1EF8" unicode="&#x1EF8;" d="M468 0L732 0L732 455L1192 1420L897 1420L609 760L591 760L303 1420L8 1420L468 455ZM208 1566L466 1566L466 1626C466 1666 483 1683 523 1683C543 1683 577 1672 631 1647C701 1614 755 1600 807 1600C950 1600 1012 1681 1012 1865L1012 1915L755 1915L755 1863C755 1830 744 1816 722 1816C700 1816 662 1829 590 1859C535 1881 488 1891 435 1891C278 1891 208 1807 208 1616Z"  horiz-adv-x="1200" vert-adv-y="2048"  />

      
      <glyph glyph-name="uni5a" unicode="&#x5a;" d="M128 0L1082 0L1082 243L424 243L1062 1177L1062 1420L128 1420L128 1177L760 1177L128 243Z"  horiz-adv-x="1200" vert-adv-y="2048"  />

      
      <glyph glyph-name="uni0179" unicode="&#x0179;" d="M128 0L1082 0L1082 243L424 243L1062 1177L1062 1420L128 1420L128 1177L760 1177L128 243ZM452 1580L734 1580L1038 1855L674 1855Z"  horiz-adv-x="1200" vert-adv-y="2048"  />

      
      <glyph glyph-name="uni017D" unicode="&#x017D;" d="M128 0L1082 0L1082 243L424 243L1062 1177L1062 1420L128 1420L128 1177L760 1177L128 243ZM464 1580L736 1580L979 1840L682 1840L600 1723L518 1840L221 1840Z"  horiz-adv-x="1200" vert-adv-y="2048"  />

      
      <glyph glyph-name="uni017B" unicode="&#x017B;" d="M128 0L1082 0L1082 243L424 243L1062 1177L1062 1420L128 1420L128 1177L760 1177L128 243ZM600 1572C694 1572 771 1648 771 1742C771 1838 694 1913 600 1913C506 1913 429 1838 429 1742C429 1648 506 1572 600 1572Z"  horiz-adv-x="1200" vert-adv-y="2048"  />

      
      <glyph glyph-name="uni1D00" unicode="&#x1D00;" d="M35 0L295 0L365 197L835 197L905 0L1165 0L755 1079L445 1079ZM440 407L591 831L609 831L760 407Z"  horiz-adv-x="1200" vert-adv-y="2048"  />

      
      <glyph glyph-name="uni0262" unicode="&#x0262;" d="M682-15C892-15 1062 17 1127 30L1127 609L660 609L660 388L876 388L876 253C825 247 768 242 706 242C474 242 356 338 356 549C356 732 491 837 726 837C839 837 944 817 1011 783L1127 1004C1039 1061 889 1094 714 1094C306 1094 69 892 69 541C69 164 274-15 682-15Z"  horiz-adv-x="1200" vert-adv-y="2048"  />

      
      <glyph glyph-name="uni026A" unicode="&#x026A;" d="M168 0L1032 0L1032 249L735 249L735 811L1032 811L1032 1060L168 1060L168 811L465 811L465 249L168 249Z"  horiz-adv-x="1200" vert-adv-y="2048"  />

      
      <glyph glyph-name="uni029F" unicode="&#x029F;" d="M142 0L1119 0L1119 250L412 250L412 1079L142 1079Z"  horiz-adv-x="1200" vert-adv-y="2048"  />

      
      <glyph glyph-name="uni61" unicode="&#x61;" d="M795-10L1175 0L1175 220L1028 242L1028 634C1028 914 844 1062 460 1067L229 1070L209 824L480 817C671 812 768 762 768 649L768 646C704 660 639 667 551 667C250 667 79 536 79 299C79 95 210-20 436-20C620-20 735 61 754 224L778 224ZM768 423C764 317 675 208 503 208C406 208 354 247 354 319C354 398 427 439 564 439C634 439 691 439 768 423Z"  horiz-adv-x="1200" vert-adv-y="2048"  />

      
      <glyph glyph-name="unie1" unicode="&#xe1;" d="M795-10L1175 0L1175 220L1028 242L1028 634C1028 914 844 1062 460 1067L229 1070L209 824L480 817C671 812 768 762 768 649L768 646C704 660 639 667 551 667C250 667 79 536 79 299C79 95 210-20 436-20C620-20 735 61 754 224L778 224ZM442 1248L709 1248L915 1628L628 1628ZM768 423C764 317 675 208 503 208C406 208 354 247 354 319C354 398 427 439 564 439C634 439 691 439 768 423Z"  horiz-adv-x="1200" vert-adv-y="2048"  />

      
      <glyph glyph-name="uni0103" unicode="&#x0103;" d="M795-10L1175 0L1175 220L1028 242L1028 634C1028 914 844 1062 460 1067L229 1070L209 824L480 817C671 812 768 762 768 649L768 646C704 660 639 667 551 667C250 667 79 536 79 299C79 95 210-20 436-20C620-20 735 61 754 224L778 224ZM580 1238C828 1238 971 1355 971 1560L971 1603L712 1603L712 1560C712 1478 665 1432 580 1432C495 1432 448 1478 448 1560L448 1603L189 1603L189 1560C189 1355 332 1238 580 1238ZM768 423C764 317 675 208 503 208C406 208 354 247 354 319C354 398 427 439 564 439C634 439 691 439 768 423Z"  horiz-adv-x="1200" vert-adv-y="2048"  />

      
      <glyph glyph-name="uni1EAF" unicode="&#x1EAF;" d="M795-10L1175 0L1175 220L1028 242L1028 634C1028 914 844 1062 460 1067L229 1070L209 824L480 817C671 812 768 762 768 649L768 646C704 660 639 667 551 667C250 667 79 536 79 299C79 95 210-20 436-20C620-20 735 61 754 224L778 224ZM580 1238C828 1238 971 1355 971 1560L971 1603L712 1603L712 1560C712 1478 665 1432 580 1432C495 1432 448 1478 448 1560L448 1603L189 1603L189 1560C189 1355 332 1238 580 1238ZM442 1728L709 1728L915 2108L628 2108ZM768 423C764 317 675 208 503 208C406 208 354 247 354 319C354 398 427 439 564 439C634 439 691 439 768 423Z"  horiz-adv-x="1200" vert-adv-y="2048"  />

      
      <glyph glyph-name="uni1EB7" unicode="&#x1EB7;" d="M795-10L1175 0L1175 220L1028 242L1028 634C1028 914 844 1062 460 1067L229 1070L209 824L480 817C671 812 768 762 768 649L768 646C704 660 639 667 551 667C250 667 79 536 79 299C79 95 210-20 436-20C620-20 735 61 754 224L778 224ZM580 1238C828 1238 971 1355 971 1560L971 1603L712 1603L712 1560C712 1478 665 1432 580 1432C495 1432 448 1478 448 1560L448 1603L189 1603L189 1560C189 1355 332 1238 580 1238ZM600-448C694-448 771-372 771-278C771-182 694-107 600-107C506-107 429-182 429-278C429-372 506-448 600-448ZM768 423C764 317 675 208 503 208C406 208 354 247 354 319C354 398 427 439 564 439C634 439 691 439 768 423Z"  horiz-adv-x="1200" vert-adv-y="2048"  />

      
      <glyph glyph-name="uni1EB1" unicode="&#x1EB1;" d="M795-10L1175 0L1175 220L1028 242L1028 634C1028 914 844 1062 460 1067L229 1070L209 824L480 817C671 812 768 762 768 649L768 646C704 660 639 667 551 667C250 667 79 536 79 299C79 95 210-20 436-20C620-20 735 61 754 224L778 224ZM580 1238C828 1238 971 1355 971 1560L971 1603L712 1603L712 1560C712 1478 665 1432 580 1432C495 1432 448 1478 448 1560L448 1603L189 1603L189 1560C189 1355 332 1238 580 1238ZM467 1728L734 1728L547 2108L260 2108ZM768 423C764 317 675 208 503 208C406 208 354 247 354 319C354 398 427 439 564 439C634 439 691 439 768 423Z"  horiz-adv-x="1200" vert-adv-y="2048"  />

      
      <glyph glyph-name="uni1EB3" unicode="&#x1EB3;" d="M795-10L1175 0L1175 220L1028 242L1028 634C1028 914 844 1062 460 1067L229 1070L209 824L480 817C671 812 768 762 768 649L768 646C704 660 639 667 551 667C250 667 79 536 79 299C79 95 210-20 436-20C620-20 735 61 754 224L778 224ZM580 1238C828 1238 971 1355 971 1560L971 1603L712 1603L712 1560C712 1478 665 1432 580 1432C495 1432 448 1478 448 1560L448 1603L189 1603L189 1560C189 1355 332 1238 580 1238ZM477 1728L682 1728L682 1737C682 1849 825 1860 825 1996C825 2102 730 2172 585 2172C484 2172 387 2142 339 2097L415 1953C440 1974 479 1988 514 1988C546 1988 567 1972 567 1948C567 1887 477 1861 477 1764ZM768 423C764 317 675 208 503 208C406 208 354 247 354 319C354 398 427 439 564 439C634 439 691 439 768 423Z"  horiz-adv-x="1200" vert-adv-y="2048"  />

      
      <glyph glyph-name="uni1EB5" unicode="&#x1EB5;" d="M795-10L1175 0L1175 220L1028 242L1028 634C1028 914 844 1062 460 1067L229 1070L209 824L480 817C671 812 768 762 768 649L768 646C704 660 639 667 551 667C250 667 79 536 79 299C79 95 210-20 436-20C620-20 735 61 754 224L778 224ZM188 1736L446 1736L446 1778C446 1834 471 1852 520 1852C557 1852 583 1834 626 1810C677 1783 729 1760 797 1760C922 1760 977 1840 977 2000L977 2097L730 2097L730 2036C730 1996 712 1976 676 1976C639 1976 620 1992 580 2015C521 2050 484 2068 423 2068C267 2068 188 1971 188 1776ZM580 1238C828 1238 971 1355 971 1560L971 1603L712 1603L712 1560C712 1478 665 1432 580 1432C495 1432 448 1478 448 1560L448 1603L189 1603L189 1560C189 1355 332 1238 580 1238ZM768 423C764 317 675 208 503 208C406 208 354 247 354 319C354 398 427 439 564 439C634 439 691 439 768 423Z"  horiz-adv-x="1200" vert-adv-y="2048"  />

      
      <glyph glyph-name="uni01CE" unicode="&#x01CE;" d="M795-10L1175 0L1175 220L1028 242L1028 634C1028 914 844 1062 460 1067L229 1070L209 824L480 817C671 812 768 762 768 649L768 646C704 660 639 667 551 667C250 667 79 536 79 299C79 95 210-20 436-20C620-20 735 61 754 224L778 224ZM436 1210L724 1210L964 1590L669 1590L580 1369L491 1590L196 1590ZM768 423C764 317 675 208 503 208C406 208 354 247 354 319C354 398 427 439 564 439C634 439 691 439 768 423Z"  horiz-adv-x="1200" vert-adv-y="2048"  />

      
      <glyph glyph-name="unie2" unicode="&#xe2;" d="M795-10L1175 0L1175 220L1028 242L1028 634C1028 914 844 1062 460 1067L229 1070L209 824L480 817C671 812 768 762 768 649L768 646C704 660 639 667 551 667C250 667 79 536 79 299C79 95 210-20 436-20C620-20 735 61 754 224L778 224ZM196 1248L491 1248L580 1469L669 1248L964 1248L724 1628L436 1628ZM768 423C764 317 675 208 503 208C406 208 354 247 354 319C354 398 427 439 564 439C634 439 691 439 768 423Z"  horiz-adv-x="1200" vert-adv-y="2048"  />

      
      <glyph glyph-name="uni1EA5" unicode="&#x1EA5;" d="M795-10L1175 0L1175 220L1028 242L1028 634C1028 914 844 1062 460 1067L229 1070L209 824L480 817C671 812 768 762 768 649L768 646C704 660 639 667 551 667C250 667 79 536 79 299C79 95 210-20 436-20C620-20 735 61 754 224L778 224ZM196 1248L491 1248L580 1469L669 1248L964 1248L724 1628L436 1628ZM800 1588L1067 1588L1273 1968L986 1968ZM768 423C764 317 675 208 503 208C406 208 354 247 354 319C354 398 427 439 564 439C634 439 691 439 768 423Z"  horiz-adv-x="1200" vert-adv-y="2048"  />

      
      <glyph glyph-name="uni1EAD" unicode="&#x1EAD;" d="M795-10L1175 0L1175 220L1028 242L1028 634C1028 914 844 1062 460 1067L229 1070L209 824L480 817C671 812 768 762 768 649L768 646C704 660 639 667 551 667C250 667 79 536 79 299C79 95 210-20 436-20C620-20 735 61 754 224L778 224ZM196 1248L491 1248L580 1469L669 1248L964 1248L724 1628L436 1628ZM600-448C694-448 771-372 771-278C771-182 694-107 600-107C506-107 429-182 429-278C429-372 506-448 600-448ZM768 423C764 317 675 208 503 208C406 208 354 247 354 319C354 398 427 439 564 439C634 439 691 439 768 423Z"  horiz-adv-x="1200" vert-adv-y="2048"  />

      
      <glyph glyph-name="uni1EA7" unicode="&#x1EA7;" d="M795-10L1175 0L1175 220L1028 242L1028 634C1028 914 844 1062 460 1067L229 1070L209 824L480 817C671 812 768 762 768 649L768 646C704 660 639 667 551 667C250 667 79 536 79 299C79 95 210-20 436-20C620-20 735 61 754 224L778 224ZM196 1248L491 1248L580 1469L669 1248L964 1248L724 1628L436 1628ZM825 1588L1092 1588L905 1968L618 1968ZM768 423C764 317 675 208 503 208C406 208 354 247 354 319C354 398 427 439 564 439C634 439 691 439 768 423Z"  horiz-adv-x="1200" vert-adv-y="2048"  />

      
      <glyph glyph-name="uni1EA9" unicode="&#x1EA9;" d="M795-10L1175 0L1175 220L1028 242L1028 634C1028 914 844 1062 460 1067L229 1070L209 824L480 817C671 812 768 762 768 649L768 646C704 660 639 667 551 667C250 667 79 536 79 299C79 95 210-20 436-20C620-20 735 61 754 224L778 224ZM196 1248L491 1248L580 1469L669 1248L964 1248L724 1628L436 1628ZM835 1588L1040 1588L1040 1597C1040 1709 1183 1720 1183 1856C1183 1962 1088 2032 943 2032C842 2032 745 2002 697 1957L773 1813C798 1834 837 1848 872 1848C904 1848 925 1832 925 1808C925 1747 835 1721 835 1624ZM768 423C764 317 675 208 503 208C406 208 354 247 354 319C354 398 427 439 564 439C634 439 691 439 768 423Z"  horiz-adv-x="1200" vert-adv-y="2048"  />

      
      <glyph glyph-name="uni1EAB" unicode="&#x1EAB;" d="M795-10L1175 0L1175 220L1028 242L1028 634C1028 914 844 1062 460 1067L229 1070L209 824L480 817C671 812 768 762 768 649L768 646C704 660 639 667 551 667C250 667 79 536 79 299C79 95 210-20 436-20C620-20 735 61 754 224L778 224ZM188 1776L446 1776L446 1818C446 1874 471 1892 520 1892C557 1892 583 1874 626 1850C677 1823 729 1800 797 1800C922 1800 977 1880 977 2040L977 2137L730 2137L730 2076C730 2036 712 2016 676 2016C639 2016 620 2032 580 2055C521 2090 484 2108 423 2108C267 2108 188 2011 188 1816ZM196 1248L491 1248L580 1469L669 1248L964 1248L724 1628L436 1628ZM768 423C764 317 675 208 503 208C406 208 354 247 354 319C354 398 427 439 564 439C634 439 691 439 768 423Z"  horiz-adv-x="1200" vert-adv-y="2048"  />

      
      <glyph glyph-name="unie4" unicode="&#xe4;" d="M795-10L1175 0L1175 220L1028 242L1028 634C1028 914 844 1062 460 1067L229 1070L209 824L480 817C671 812 768 762 768 649L768 646C704 660 639 667 551 667C250 667 79 536 79 299C79 95 210-20 436-20C620-20 735 61 754 224L778 224ZM806 1231C893 1231 964 1302 964 1389C964 1477 893 1546 806 1546C719 1546 649 1477 649 1389C649 1302 719 1231 806 1231ZM358 1231C445 1231 515 1302 515 1389C515 1477 445 1546 358 1546C271 1546 201 1477 201 1389C201 1302 271 1231 358 1231ZM768 423C764 317 675 208 503 208C406 208 354 247 354 319C354 398 427 439 564 439C634 439 691 439 768 423Z"  horiz-adv-x="1200" vert-adv-y="2048"  />

      
      <glyph glyph-name="uni1EA1" unicode="&#x1EA1;" d="M795-10L1175 0L1175 220L1028 242L1028 634C1028 914 844 1062 460 1067L229 1070L209 824L480 817C671 812 768 762 768 649L768 646C704 660 639 667 551 667C250 667 79 536 79 299C79 95 210-20 436-20C620-20 735 61 754 224L778 224ZM600-448C694-448 771-372 771-278C771-182 694-107 600-107C506-107 429-182 429-278C429-372 506-448 600-448ZM768 423C764 317 675 208 503 208C406 208 354 247 354 319C354 398 427 439 564 439C634 439 691 439 768 423Z"  horiz-adv-x="1200" vert-adv-y="2048"  />

      
      <glyph glyph-name="unie0" unicode="&#xe0;" d="M795-10L1175 0L1175 220L1028 242L1028 634C1028 914 844 1062 460 1067L229 1070L209 824L480 817C671 812 768 762 768 649L768 646C704 660 639 667 551 667C250 667 79 536 79 299C79 95 210-20 436-20C620-20 735 61 754 224L778 224ZM467 1248L734 1248L547 1628L260 1628ZM768 423C764 317 675 208 503 208C406 208 354 247 354 319C354 398 427 439 564 439C634 439 691 439 768 423Z"  horiz-adv-x="1200" vert-adv-y="2048"  />

      
      <glyph glyph-name="uni1EA3" unicode="&#x1EA3;" d="M795-10L1175 0L1175 220L1028 242L1028 634C1028 914 844 1062 460 1067L229 1070L209 824L480 817C671 812 768 762 768 649L768 646C704 660 639 667 551 667C250 667 79 536 79 299C79 95 210-20 436-20C620-20 735 61 754 224L778 224ZM477 1248L682 1248L682 1257C682 1369 825 1380 825 1516C825 1622 730 1692 585 1692C484 1692 387 1662 339 1617L415 1473C440 1494 479 1508 514 1508C546 1508 567 1492 567 1468C567 1407 477 1381 477 1284ZM768 423C764 317 675 208 503 208C406 208 354 247 354 319C354 398 427 439 564 439C634 439 691 439 768 423Z"  horiz-adv-x="1200" vert-adv-y="2048"  />

      
      <glyph glyph-name="uni0251" unicode="&#x0251;" d="M468-20C611-20 707 51 720 192L755 192L766-10L1165 0L1165 220L1019 242L1019 1060L748 1060L748 868L716 868C701 1010 620 1080 472 1080C203 1080 49 876 49 520C49 172 202-20 468-20ZM748 497C748 322 697 235 551 235C408 235 334 331 334 520C334 715 412 825 549 825C682 825 748 738 748 563Z"  horiz-adv-x="1200" vert-adv-y="2048"  />

      
      <glyph glyph-name="uni0101" unicode="&#x0101;" d="M795-10L1175 0L1175 220L1028 242L1028 634C1028 914 844 1062 460 1067L229 1070L209 824L480 817C671 812 768 762 768 649L768 646C704 660 639 667 551 667C250 667 79 536 79 299C79 95 210-20 436-20C620-20 735 61 754 224L778 224ZM150 1248L1010 1248L1010 1499L150 1499ZM768 423C764 317 675 208 503 208C406 208 354 247 354 319C354 398 427 439 564 439C634 439 691 439 768 423Z"  horiz-adv-x="1200" vert-adv-y="2048"  />

      
      <glyph glyph-name="uni0105" unicode="&#x0105;" d="M1020-424C1051-424 1090-421 1127-415L1153-178C1120-185 1088-189 1063-189C1010-189 980-167 980-126C980-54 1032-10 1122-1L1175 0L1175 220L1028 242L1028 634C1028 914 844 1062 460 1067L229 1070L209 824L480 817C671 812 768 762 768 649L768 646C704 660 639 667 551 667C250 667 79 536 79 299C79 95 210-20 436-20C620-20 735 61 754 224L778 224L795-10L894-7L894-43C821-66 780-135 780-229C780-353 867-424 1020-424ZM768 423C764 317 675 208 503 208C406 208 354 247 354 319C354 398 427 439 564 439C634 439 691 439 768 423Z"  horiz-adv-x="1200" vert-adv-y="2048"  />

      
      <glyph glyph-name="unie5" unicode="&#xe5;" d="M795-10L1175 0L1175 220L1028 242L1028 634C1028 914 844 1062 460 1067L229 1070L209 824L480 817C671 812 768 762 768 649L768 646C704 660 639 667 551 667C250 667 79 536 79 299C79 95 210-20 436-20C620-20 735 61 754 224L778 224ZM580 1190C758 1190 860 1272 860 1414C860 1556 758 1638 580 1638C402 1638 300 1556 300 1414C300 1272 402 1190 580 1190ZM768 423C764 317 675 208 503 208C406 208 354 247 354 319C354 398 427 439 564 439C634 439 691 439 768 423ZM580 1339C534 1339 509 1366 509 1414C509 1461 534 1489 580 1489C626 1489 651 1461 651 1414C651 1366 626 1339 580 1339Z"  horiz-adv-x="1200" vert-adv-y="2048"  />

      
      <glyph glyph-name="uni01FB" unicode="&#x01FB;" d="M795-10L1175 0L1175 220L1028 242L1028 634C1028 914 844 1062 460 1067L229 1070L209 824L480 817C671 812 768 762 768 649L768 646C704 660 639 667 551 667C250 667 79 536 79 299C79 95 210-20 436-20C620-20 735 61 754 224L778 224ZM580 1190C758 1190 860 1272 860 1414C860 1511 812 1580 725 1614L884 1908L597 1908L457 1622C356 1591 300 1519 300 1414C300 1272 402 1190 580 1190ZM768 423C764 317 675 208 503 208C406 208 354 247 354 319C354 398 427 439 564 439C634 439 691 439 768 423ZM580 1339C534 1339 509 1366 509 1414C509 1461 534 1489 580 1489C626 1489 651 1461 651 1414C651 1366 626 1339 580 1339Z"  horiz-adv-x="1200" vert-adv-y="2048"  />

      
      <glyph glyph-name="unie3" unicode="&#xe3;" d="M795-10L1175 0L1175 220L1028 242L1028 634C1028 914 844 1062 460 1067L229 1070L209 824L480 817C671 812 768 762 768 649L768 646C704 660 639 667 551 667C250 667 79 536 79 299C79 95 210-20 436-20C620-20 735 61 754 224L778 224ZM188 1256L446 1256L446 1298C446 1354 471 1372 520 1372C557 1372 583 1354 626 1330C677 1303 729 1280 797 1280C922 1280 977 1360 977 1520L977 1617L730 1617L730 1556C730 1516 712 1496 676 1496C639 1496 620 1512 580 1535C521 1570 484 1588 423 1588C267 1588 188 1491 188 1296ZM768 423C764 317 675 208 503 208C406 208 354 247 354 319C354 398 427 439 564 439C634 439 691 439 768 423Z"  horiz-adv-x="1200" vert-adv-y="2048"  />

      
      <glyph glyph-name="unie6" unicode="&#xe6;" d="M299-20C479-20 565 84 590 266L608 266C663 78 786-20 963-20C1023-20 1092-13 1150-2L1124 247C1080 239 1029 234 987 234C860 234 774 302 742 423L1186 423C1190 467 1192 522 1192 572C1192 895 1081 1080 887 1080C754 1080 658 990 610 825C555 976 429 1063 245 1067L134 1070L114 815L225 812C385 807 479 741 479 633L479 629C451 632 422 634 391 634C145 634 4 507 4 286C4 91 111-20 299-20ZM479 380C479 271 432 208 351 208C294 208 261 246 261 313C261 393 319 441 420 441C441 441 461 441 479 440ZM730 610C737 759 771 824 839 824C913 824 945 761 945 610Z"  horiz-adv-x="1200" vert-adv-y="2048"  />

      
      <glyph glyph-name="uni01FD" unicode="&#x01FD;" d="M299-20C479-20 565 84 590 266L608 266C663 78 786-20 963-20C1023-20 1092-13 1150-2L1124 247C1080 239 1029 234 987 234C860 234 774 302 742 423L1186 423C1190 467 1192 522 1192 572C1192 895 1081 1080 887 1080C754 1080 658 990 610 825C555 976 429 1063 245 1067L134 1070L114 815L225 812C385 807 479 741 479 633L479 629C451 632 422 634 391 634C145 634 4 507 4 286C4 91 111-20 299-20ZM462 1248L729 1248L935 1628L648 1628ZM479 380C479 271 432 208 351 208C294 208 261 246 261 313C261 393 319 441 420 441C441 441 461 441 479 440ZM730 610C737 759 771 824 839 824C913 824 945 761 945 610Z"  horiz-adv-x="1200" vert-adv-y="2048"  />

      
      <glyph glyph-name="uni62" unicode="&#x62;" d="M447-20C873-20 1116 206 1116 600C1116 906 963 1080 697 1080C546 1080 463 1010 445 868L417 868L417 1500L146 1500L146 0C248-12 345-20 447-20ZM417 596C417 750 493 825 645 825C764 825 831 744 831 600C831 368 707 235 489 235C465 235 441 235 417 236Z"  horiz-adv-x="1200" vert-adv-y="2048"  />

      
      <glyph glyph-name="uni63" unicode="&#x63;" d="M724-20C833-20 951-14 1059 10L1031 263C940 247 844 237 748 237C529 237 406 343 406 542C406 722 502 823 666 823C774 823 867 771 926 679L1122 835C1056 991 893 1080 674 1080C318 1080 119 878 119 532C119 176 338-20 724-20Z"  horiz-adv-x="1200" vert-adv-y="2048"  />

      
      <glyph glyph-name="uni0107" unicode="&#x0107;" d="M724-20C833-20 951-14 1059 10L1031 263C940 247 844 237 748 237C529 237 406 343 406 542C406 722 502 823 666 823C774 823 867 771 926 679L1122 835C1056 991 893 1080 674 1080C318 1080 119 878 119 532C119 176 338-20 724-20ZM512 1248L779 1248L985 1628L698 1628Z"  horiz-adv-x="1200" vert-adv-y="2048"  />

      
      <glyph glyph-name="uni010D" unicode="&#x010D;" d="M724-20C833-20 951-14 1059 10L1031 263C940 247 844 237 748 237C529 237 406 343 406 542C406 722 502 823 666 823C774 823 867 771 926 679L1122 835C1056 991 893 1080 674 1080C318 1080 119 878 119 532C119 176 338-20 724-20ZM506 1210L794 1210L1034 1590L739 1590L650 1369L561 1590L266 1590Z"  horiz-adv-x="1200" vert-adv-y="2048"  />

      
      <glyph glyph-name="unie7" unicode="&#xe7;" d="M456-480C742-480 884-409 884-267C884-183 833-132 728-108L749-20C851-19 959-12 1059 10L1031 263C940 247 844 237 748 237C529 237 406 343 406 542C406 722 502 823 666 823C774 823 867 771 926 679L1122 835C1056 991 893 1080 674 1080C318 1080 119 878 119 532C119 234 272 49 548-4L482-198C580-198 627-218 627-258C627-300 571-322 456-322Z"  horiz-adv-x="1200" vert-adv-y="2048"  />

      
      <glyph glyph-name="uni0109" unicode="&#x0109;" d="M724-20C833-20 951-14 1059 10L1031 263C940 247 844 237 748 237C529 237 406 343 406 542C406 722 502 823 666 823C774 823 867 771 926 679L1122 835C1056 991 893 1080 674 1080C318 1080 119 878 119 532C119 176 338-20 724-20ZM266 1248L561 1248L650 1469L739 1248L1034 1248L794 1628L506 1628Z"  horiz-adv-x="1200" vert-adv-y="2048"  />

      
      <glyph glyph-name="uni010B" unicode="&#x010B;" d="M724-20C833-20 951-14 1059 10L1031 263C940 247 844 237 748 237C529 237 406 343 406 542C406 722 502 823 666 823C774 823 867 771 926 679L1122 835C1056 991 893 1080 674 1080C318 1080 119 878 119 532C119 176 338-20 724-20ZM648 1198C742 1198 819 1275 819 1369C819 1465 742 1539 648 1539C554 1539 477 1465 477 1369C477 1275 554 1198 648 1198Z"  horiz-adv-x="1200" vert-adv-y="2048"  />

      
      <glyph glyph-name="uni64" unicode="&#x64;" d="M495-20C643-20 735 51 756 192L779 192L817-10L1049 0L1049 1500L778 1500L778 868L752 868C728 1010 652 1080 497 1080C232 1080 79 879 79 529C79 175 232-20 495-20ZM778 529C778 323 725 235 571 235C435 235 364 334 364 529C364 717 439 825 571 825C709 825 778 734 778 529Z"  horiz-adv-x="1200" vert-adv-y="2048"  />

      
      <glyph glyph-name="unif0" unicode="&#xf0;" d="M587-20C912-20 1096 191 1096 559L1096 607C1096 836 1050 1018 951 1160L1107 1204L1055 1429L762 1347C661 1417 535 1472 383 1516L325 1358C392 1333 451 1306 504 1274L229 1197L281 972L702 1090C769 989 804 863 808 708L774 708C742 843 640 920 501 920C242 920 96 746 96 440C96 149 274-20 587-20ZM599 236C463 236 382 312 382 440C382 581 463 664 599 664C722 664 799 592 808 470L808 415C797 302 721 236 599 236Z"  horiz-adv-x="1200" vert-adv-y="2048"  />

      
      <glyph glyph-name="uni010F" unicode="&#x010F;" d="M495-20C643-20 735 51 756 192L779 192L817-10L1049 0L1049 1500L778 1500L778 868L752 868C728 1010 652 1080 497 1080C232 1080 79 879 79 529C79 175 232-20 495-20ZM778 529C778 323 725 235 571 235C435 235 364 334 364 529C364 717 439 825 571 825C709 825 778 734 778 529ZM1105 1188L1311 1188L1401 1568L1155 1568Z"  horiz-adv-x="1200" vert-adv-y="2048"  />

      
      <glyph glyph-name="uni0111" unicode="&#x0111;" d="M462 1168L778 1168L778 868L752 868C728 1010 652 1080 497 1080C232 1080 79 879 79 529C79 175 232-20 495-20C643-20 735 51 756 192L779 192L817-10L1049 0L1049 1168L1155 1168L1155 1392L1049 1392L1049 1500L778 1500L778 1392L462 1392ZM778 529C778 323 725 235 571 235C435 235 364 334 364 529C364 717 439 825 571 825C709 825 778 734 778 529Z"  horiz-adv-x="1200" vert-adv-y="2048"  />

      
      <glyph glyph-name="uni65" unicode="&#x65;" d="M694-20C780-20 893-16 1029 8L1003 264C906 246 814 236 718 236C552 236 443 300 402 423L1075 423C1079 466 1081 510 1081 560C1081 898 908 1080 606 1080C297 1080 119 878 119 532C119 176 327-20 694-20ZM389 611C408 753 486 832 608 832C738 832 815 754 815 611Z"  horiz-adv-x="1200" vert-adv-y="2048"  />

      
      <glyph glyph-name="unie9" unicode="&#xe9;" d="M694-20C780-20 893-16 1029 8L1003 264C906 246 814 236 718 236C552 236 443 300 402 423L1075 423C1079 466 1081 510 1081 560C1081 898 908 1080 606 1080C297 1080 119 878 119 532C119 176 327-20 694-20ZM472 1248L739 1248L945 1628L658 1628ZM389 611C408 753 486 832 608 832C738 832 815 754 815 611Z"  horiz-adv-x="1200" vert-adv-y="2048"  />

      
      <glyph glyph-name="uni0115" unicode="&#x0115;" d="M694-20C780-20 893-16 1029 8L1003 264C906 246 814 236 718 236C552 236 443 300 402 423L1075 423C1079 466 1081 510 1081 560C1081 898 908 1080 606 1080C297 1080 119 878 119 532C119 176 327-20 694-20ZM610 1238C858 1238 1001 1355 1001 1560L1001 1603L742 1603L742 1560C742 1478 695 1432 610 1432C525 1432 478 1478 478 1560L478 1603L219 1603L219 1560C219 1355 362 1238 610 1238ZM389 611C408 753 486 832 608 832C738 832 815 754 815 611Z"  horiz-adv-x="1200" vert-adv-y="2048"  />

      
      <glyph glyph-name="uni011B" unicode="&#x011B;" d="M694-20C780-20 893-16 1029 8L1003 264C906 246 814 236 718 236C552 236 443 300 402 423L1075 423C1079 466 1081 510 1081 560C1081 898 908 1080 606 1080C297 1080 119 878 119 532C119 176 327-20 694-20ZM466 1210L754 1210L994 1590L699 1590L610 1369L521 1590L226 1590ZM389 611C408 753 486 832 608 832C738 832 815 754 815 611Z"  horiz-adv-x="1200" vert-adv-y="2048"  />

      
      </font>
</defs>
</svg>
