<svg width="40" height="40" viewBox="0 0 40 40" fill="none" xmlns="http://www.w3.org/2000/svg">
<mask id="mask0_578_175" style="mask-type:luminance" maskUnits="userSpaceOnUse" x="1" y="1" width="38" height="38">
<path d="M20 1C25.0391 1 29.8718 2.97563 33.435 6.49227C36.9982 10.0089 39 14.7785 39 19.7518C39 24.7251 36.9982 29.4946 33.435 33.0113C29.8718 36.5279 25.0391 38.5036 20 38.5036C14.9609 38.5036 10.1282 36.5279 6.56497 33.0113C3.00178 29.4946 1 24.7251 1 19.7518C1 14.7785 3.00178 10.0089 6.56497 6.49227C10.1282 2.97563 14.9609 1 20 1Z" fill="white"/>
</mask>
<g mask="url(#mask0_578_175)">
<path d="M24.4737 18.8996H13.2464V14.51H24.4737C25.1271 14.51 25.5849 14.6237 25.8123 14.8225C26.0397 15.0214 26.1837 15.3908 26.1837 15.9164V17.4791C26.1837 18.0473 26.0426 18.4081 25.8123 18.6155C25.582 18.8229 25.1271 18.8996 24.4737 18.8996ZM25.2423 10.3761H8.48486V29.1279H13.2464V23.0279H22.0152L26.1837 29.1279H31.5152L26.9091 22.9995C28.6018 22.7523 29.3618 22.2409 29.9894 21.397C30.617 20.5532 30.9394 19.2036 30.9394 17.4052V15.9846C30.9605 15.1218 30.8548 14.2605 30.6256 13.4275C30.4237 12.7874 30.0716 12.2034 29.5979 11.7228C29.0952 11.2498 28.4911 10.8944 27.8303 10.683C26.9855 10.4611 26.1134 10.3568 25.2394 10.3733L25.2423 10.3761Z" fill="white"/>
<path d="M58 1.00007C58 5.97335 55.9982 10.7429 52.435 14.2596C48.8718 17.7762 44.0391 19.7518 39 19.7518C36.9257 19.7541 34.8651 19.421 32.8998 18.766C32.943 18.3199 32.9603 17.8625 32.9603 17.405V15.9844C32.9809 14.9289 32.8451 13.876 32.5573 12.8591C32.2658 11.9218 31.7549 11.0654 31.066 10.3589L31.0286 10.3191L30.9883 10.2822C30.2732 9.60892 29.4145 9.10216 28.4751 8.7991H28.4377H28.4003C27.3685 8.5231 26.3025 8.39206 25.2336 8.40986H21.5315C20.5156 6.06845 19.9945 3.5471 20 1.00007C20 -3.97321 22.0018 -8.7428 25.565 -12.2594C29.1281 -15.7761 33.9609 -17.7517 39 -17.7517C44.0391 -17.7517 48.8718 -15.7761 52.435 -12.2594C55.9982 -8.7428 58 -3.97321 58 1.00007Z" fill="white"/>
</g>
<path d="M20 1C25.0391 1 29.8718 2.97563 33.435 6.49227C36.9982 10.0089 39 14.7785 39 19.7518C39 24.7251 36.9982 29.4946 33.435 33.0113C29.8718 36.5279 25.0391 38.5036 20 38.5036C14.9609 38.5036 10.1282 36.5279 6.56497 33.0113C3.00178 29.4946 1 24.7251 1 19.7518C1 14.7785 3.00178 10.0089 6.56497 6.49227C10.1282 2.97563 14.9609 1 20 1Z" stroke="white" stroke-width="2"/>
</svg>
