<svg width="49" height="49" viewBox="0 0 49 49" fill="none" xmlns="http://www.w3.org/2000/svg">
<g clip-path="url(#clip0_89_245)">
<path d="M44.5042 18.1892C44.409 17.8876 44.2286 17.62 43.9848 17.4185C43.741 17.217 43.4441 17.0903 43.13 17.0536L14.0938 13.6154L14.089 13.6129C13.7533 13.5749 13.4141 13.6416 13.1177 13.8036C12.8213 13.9657 12.5821 14.2153 12.4329 14.5184C12.2837 14.8214 12.2316 15.1632 12.2839 15.4969C12.3361 15.8307 12.4902 16.1402 12.7249 16.3831L12.7456 16.4039L19.2224 24.2911C19.3591 24.4249 19.5286 24.5205 19.7138 24.5683C19.8991 24.6161 20.0936 24.6145 20.2781 24.5636L40.1194 19.0636C40.18 19.0445 40.2437 19.0375 40.3069 19.043C40.3701 19.0485 40.4317 19.0665 40.488 19.0958C40.5443 19.1251 40.5943 19.1652 40.6351 19.2138C40.6759 19.2624 40.7068 19.3186 40.7259 19.3791C40.745 19.4396 40.752 19.5033 40.7464 19.5666C40.7409 19.6298 40.723 19.6913 40.6937 19.7477C40.6644 19.804 40.6243 19.854 40.5757 19.8948C40.5271 19.9356 40.4709 19.9664 40.4104 19.9855L21.0089 26.8648C20.8287 26.9291 20.6684 27.0394 20.5442 27.1849C20.42 27.3304 20.3361 27.5059 20.3009 27.694L19.5235 37.8756C19.5209 37.8896 19.5188 37.9024 19.5171 37.9161C19.4187 38.5793 19.7036 39.2314 20.2834 39.567L20.344 39.5985C20.6429 39.7561 20.9822 39.8202 21.318 39.7824C21.6537 39.7446 21.9703 39.6067 22.2266 39.3866L44.0244 19.9099C44.262 19.7001 44.4338 19.426 44.519 19.1206C44.6041 18.8152 44.599 18.4917 44.5042 18.1892Z" fill="#ECECEC"/>
</g>
<defs>
<clipPath id="clip0_89_245">
<rect width="35" height="35" fill="white" transform="translate(17.0515 0.898682) rotate(27.4845)"/>
</clipPath>
</defs>
</svg>
