<svg width="30" height="30" viewBox="0 0 30 30" fill="none" xmlns="http://www.w3.org/2000/svg">
<g clip-path="url(#clip0_89_235)">
<path d="M29.803 8.71816C29.803 6.08144 27.8635 3.96035 25.4671 3.96035C22.221 3.80859 18.9104 3.75 15.5272 3.75H14.4725C11.0975 3.75 7.78112 3.80859 4.53502 3.96094C2.1444 3.96094 0.204946 6.09375 0.204946 8.73047C0.0584618 10.8158 -0.00364759 12.9018 -0.000131968 14.9877C-0.00599134 17.0736 0.0604149 19.1615 0.199087 21.2514C0.199087 23.8881 2.13854 26.0268 4.52917 26.0268C7.93932 26.185 11.4374 26.2553 14.994 26.2494C18.5565 26.2611 22.0448 26.1869 25.4589 26.0268C27.8553 26.0268 29.7948 23.8881 29.7948 21.2514C29.9354 19.1596 29.9999 17.0736 29.994 14.9818C30.0073 12.8959 29.9436 10.808 29.803 8.71816ZM12.1288 20.7357V9.22207L20.6249 14.976L12.1288 20.7357Z" fill="#ECECEC"/>
</g>
<defs>
<clipPath id="clip0_89_235">
<rect width="30" height="30" fill="white"/>
</clipPath>
</defs>
</svg>
