<svg width="30" height="30" viewBox="0 0 30 30" fill="none" xmlns="http://www.w3.org/2000/svg">
<path d="M14.9816 29.9969C12.326 29.9572 9.98968 29.062 8.06771 27.1973C6.2941 25.4742 4.52423 23.7511 2.82855 21.953C-0.950202 17.9494 -0.940461 12.0287 2.84804 8.03109C4.53747 6.24706 6.27586 4.50922 8.06321 2.81758C12.063 -0.97475 18.0822 -0.939539 22.0453 2.88725C23.8489 4.62909 25.642 6.3904 27.3519 8.21989C29.4282 10.4374 30.2517 13.1187 29.934 16.1372C29.6815 18.5383 28.6369 20.5573 26.9293 22.2512C25.2448 23.9204 23.5963 25.6225 21.8849 27.2654C19.9712 29.1032 17.6453 29.9685 14.9816 29.9969ZM14.8482 4.87706C13.6598 4.86807 12.4204 5.38201 11.4014 6.3904C9.74041 8.02909 8.09194 9.67928 6.45595 11.341C5.34173 12.4782 4.82096 13.8612 4.97906 15.4614C5.17763 17.4647 6.20043 18.9316 8.03174 19.7497C9.90501 20.5858 11.7033 20.349 13.3518 19.1174C13.9235 18.6904 14.3821 18.139 14.8871 17.6385C16.1812 16.3559 17.4565 15.0546 18.7581 13.7803C19.4976 13.0558 20.5759 13.0828 21.2705 13.8005C21.9524 14.5047 21.9291 15.5536 21.2038 16.281C19.5833 17.9077 17.9598 19.5309 16.3333 21.1507C15.6874 21.7935 14.774 21.8729 14.0532 21.3372C13.8666 21.1986 13.7767 21.2151 13.6261 21.3687C12.9507 22.0564 12.2693 22.7349 11.582 23.4042C11.4141 23.5675 11.4179 23.6529 11.5902 23.8117C13.5317 25.6053 16.7604 25.5775 18.6337 23.7226C20.3653 22.013 22.0932 20.2988 23.7934 18.5578C24.9361 17.3876 25.3917 15.9356 25.1601 14.3317C24.8529 12.2092 23.6495 10.7356 21.6054 10.0614C19.5613 9.3871 17.7443 9.90553 16.2209 11.4166C14.6166 13.0071 13.0281 14.6134 11.4254 16.2046C10.6843 16.9403 9.62252 16.9418 8.91742 16.2316C8.21232 15.5214 8.21907 14.4755 8.96088 13.7301C9.83307 12.855 10.7143 11.989 11.5835 11.108C12.3522 10.3243 13.0963 9.51521 13.9153 8.78551C14.5739 8.19666 15.4012 8.15621 16.11 8.67613C16.3228 8.83121 16.4172 8.77353 16.5671 8.62144C17.2145 7.96367 17.8597 7.30289 18.5288 6.66684C18.7626 6.44209 18.7056 6.32372 18.4988 6.14767C17.5187 5.31833 16.3948 4.88455 14.8482 4.88006V4.87706Z" fill="#ECECEC"/>
</svg>
