<?xml version="1.0" standalone="no"?>
  <!DOCTYPE svg PUBLIC "-//W3C//DTD SVG 1.1//EN" "http://www.w3.org/Graphics/SVG/1.1/DTD/svg11.dtd" >
  <svg>
  <metadata>
  Created by font-carrier
  </metadata>
  <defs>
  <font id="RobotoMono-Bold" horiz-adv-x="2458" vert-adv-y="2458" >
    <font-face
      
      font-family="Roboto Mono"
      
      font-weight="400"
      
      font-stretch="normal"
      
      units-per-em="2048"
      
      ascent="2146"
      
      descent="-555"
      
    />
      <missing-glyph />

      

      
      <glyph glyph-name="uni22" unicode="&#x22;" d="M487 1428L458 1008L281 1008L281 1536L487 1536L487 1428M898 1428L870 1008L693 1008L693 1536L898 1536L898 1428Z"  horiz-adv-x="1229" vert-adv-y="2048"  />

      
      <glyph glyph-name="uni23" unicode="&#x23;" d="M649 410L448 410L375 0L196 0L269 410L41 410L41 579L299 579L351 869L116 869L116 1040L381 1040L456 1456L634 1456L560 1040L761 1040L835 1456L1015 1456L940 1040L1157 1040L1157 869L910 869L858 579L1081 579L1081 410L828 410L755 0L576 0L649 410M478 579L679 579L730 869L529 869L478 579Z"  horiz-adv-x="1229" vert-adv-y="2048"  />

      
      <glyph glyph-name="uni24" unicode="&#x24;" d="M863 382Q863 424 850.50 456.50Q838 489 810.50 516Q783 543 738.50 565.50Q694 588 631 610Q530 646 447 686Q364 726 305.50 779Q247 832 215 902.50Q183 973 183 1070Q183 1155 212 1225.50Q241 1296 294 1348Q347 1400 422 1432Q497 1464 589 1473L589 1688L749 1688L749 1471Q839 1459 911 1422Q983 1385 1033.50 1325.50Q1084 1266 1111.50 1185.50Q1139 1105 1139 1005L861 1005Q861 1126 806 1188.50Q751 1251 657 1251Q606 1251 568.50 1237.50Q531 1224 507 1199.50Q483 1175 471.50 1142Q460 1109 460 1070Q460 1031 471.50 1000.50Q483 970 510.50 944Q538 918 583 894.50Q628 871 695 847Q796 809 878 768.50Q960 728 1018.50 674.50Q1077 621 1108.50 550.50Q1140 480 1140 384Q1140 296 1111 225.50Q1082 155 1028 104Q974 53 898 22.50Q822-8 728-17L728-213L569-213L569-17Q484-9 404 20.50Q324 50 262.50 106Q201 162 164 247.50Q127 333 127 453L406 453Q406 381 427 332.50Q448 284 481.50 255.50Q515 227 558 215Q601 203 646 203Q753 203 808 253Q863 303 863 382Z"  horiz-adv-x="1229" vert-adv-y="2048"  />

      
      <glyph glyph-name="uni25" unicode="&#x25;" d="M35 1196Q35 1254 52.50 1305Q70 1356 105.50 1394Q141 1432 194.50 1454.50Q248 1477 319 1477Q392 1477 445.50 1454.50Q499 1432 534 1394Q569 1356 586.50 1305Q604 1254 604 1196L604 1119Q604 1062 586.50 1011.50Q569 961 534 922.50Q499 884 446 862Q393 840 321 840Q249 840 195.50 862Q142 884 106.50 922.50Q71 961 53 1011.50Q35 1062 35 1119L35 1196M223 1119Q223 1096 228 1074.50Q233 1053 244.50 1036.50Q256 1020 275 1010.50Q294 1001 321 1001Q348 1001 366.50 1010.50Q385 1020 396 1036.50Q407 1053 412 1074.50Q417 1096 417 1119L417 1196Q417 1219 412 1240.50Q407 1262 395.50 1278.50Q384 1295 365.50 1304.50Q347 1314 319 1314Q292 1314 274 1304.50Q256 1295 244.50 1278.50Q233 1262 228 1240.50Q223 1219 223 1196L223 1119M623 337Q623 394 641 445Q659 496 694.50 534.50Q730 573 783.50 595Q837 617 908 617Q981 617 1034.50 595Q1088 573 1123 534.50Q1158 496 1175.50 445Q1193 394 1193 337L1193 259Q1193 202 1176 151Q1159 100 1123.50 62Q1088 24 1035 2Q982-20 910-20Q838-20 784 2Q730 24 694.50 62Q659 100 641 151Q623 202 623 259L623 337M811 259Q811 236 817 214.50Q823 193 835.50 176.50Q848 160 866.50 150.50Q885 141 910 141Q941 141 960 150.50Q979 160 989 176.50Q999 193 1002 214Q1005 235 1005 259L1005 337Q1005 360 1000 381Q995 402 983.50 418.50Q972 435 953.50 444.50Q935 454 908 454Q881 454 862 444.50Q843 435 832 418.50Q821 402 816 381Q811 360 811 337L811 259M415 198L279 263L840 1291L976 1226L415 198Z"  horiz-adv-x="1229" vert-adv-y="2048"  />

      
      <glyph glyph-name="uni26" unicode="&#x26;" d="M75 371Q75 437 93.50 492Q112 547 146 594.50Q180 642 227.50 684Q275 726 334 767Q275 856 242.50 935.50Q210 1015 210 1100Q210 1186 237.50 1256Q265 1326 316 1375Q367 1424 439 1450.50Q511 1477 600 1477Q675 1477 736.50 1450Q798 1423 841.50 1376.50Q885 1330 909 1269Q933 1208 933 1140Q933 1089 917 1044Q901 999 873 959.50Q845 920 807.50 885Q770 850 727 819L647 754L894 437Q926 494 943.50 562Q961 630 961 708L1199 708Q1199 571 1162.50 452.50Q1126 334 1048 240L1236 0L918 0L853 83Q777 32 695.50 5.50Q614-21 511-21Q410-21 329 8Q248 37 191.50 89Q135 141 105 213Q75 285 75 371M523 202Q575 202 625 216Q675 230 721 256L458 598L450 592Q420 563 401 535Q382 507 371.50 481Q361 455 357.50 431.50Q354 408 354 387Q354 347 366 313Q378 279 400 254.50Q422 230 453.50 216Q485 202 523 202M462 1100Q462 1055 480.50 1009.50Q499 964 531 913L624 982Q655 1002 671 1023.50Q687 1045 693.50 1064.50Q700 1084 700 1099.50Q700 1115 700 1124Q700 1148 693 1171Q686 1194 673 1212Q660 1230 641.50 1241Q623 1252 600 1252Q565 1252 539 1240Q513 1228 496 1207Q479 1186 470.50 1158.50Q462 1131 462 1100Z"  horiz-adv-x="1229" vert-adv-y="2048"  />

      
      <glyph glyph-name="uni27" unicode="&#x27;" d="M671 1394L643 993L457 993L457 1536L671 1536L671 1394Z"  horiz-adv-x="1229" vert-adv-y="2048"  />

      
      <glyph glyph-name="uni28" unicode="&#x28;" d="M345 592Q345 733 366.50 857.50Q388 982 425 1087.50Q462 1193 511.50 1280Q561 1367 616 1434Q671 1501 729.50 1547.50Q788 1594 843 1619L897 1467Q841 1424 785 1351.50Q729 1279 684.50 1171.50Q640 1064 612 921Q584 778 584 594L584 568Q584 383 612 240Q640 97 684.50-10.50Q729-118 785-191Q841-264 897-307L843-457Q788-432 729.50-385Q671-338 616-271.50Q561-205 511.50-118Q462-31 425 74.50Q388 180 366.50 304Q345 428 345 570L345 592Z"  horiz-adv-x="1229" vert-adv-y="2048"  />

      
      <glyph glyph-name="uni29" unicode="&#x29;" d="M881 570Q881 433 859 310.50Q837 188 799 82Q761-24 710.50-111.50Q660-199 603-267.50Q546-336 486-384Q426-432 369-457L316-307Q371-265 427-192Q483-119 528-12Q573 95 601 239Q629 383 629 568L629 594Q629 778 600 922Q571 1066 526 1174Q481 1282 425.50 1355Q370 1428 316 1470L369 1619Q426 1594 486 1546Q546 1498 603 1429.50Q660 1361 710.50 1273.50Q761 1186 799 1080Q837 974 859 851.50Q881 729 881 592L881 570Z"  horiz-adv-x="1229" vert-adv-y="2048"  />

      
      <glyph glyph-name="uni2a" unicode="&#x2a;" d="M546 637L154 733L220 938L595 772L559 1203L778 1203L739 765L1111 928L1177 719L779 628L1047 305L869 176L658 548L447 187L268 310L546 637Z"  horiz-adv-x="1229" vert-adv-y="2048"  />

      
      <glyph glyph-name="uni2b" unicode="&#x2b;" d="M731 812L1097 812L1097 558L731 558L731 146L466 146L466 558L99 558L99 812L466 812L466 1206L731 1206L731 812Z"  horiz-adv-x="1229" vert-adv-y="2048"  />

      
      <glyph glyph-name="uni2c" unicode="&#x2c;" d="M710 22Q710-35 694.50-95Q679-155 652-211Q625-267 587.50-317Q550-367 507-406L360-330Q379-294 395.50-257Q412-220 424-179Q436-138 443-92Q450-46 450 9L450 243L711 243L710 22Z"  horiz-adv-x="1229" vert-adv-y="2048"  />

      
      <glyph glyph-name="uni2d" unicode="&#x2d;" d="M1115 530L282 530L282 755L1115 755L1115 530Z"  horiz-adv-x="1229" vert-adv-y="2048"  />

      
      <glyph glyph-name="uni2e" unicode="&#x2e;" d="M422 161Q422 200 435 233.50Q448 267 473 291.50Q498 316 534 330.50Q570 345 615 345Q660 345 696 330.50Q732 316 756.50 291.50Q781 267 794.50 233.50Q808 200 808 161Q808 123 794.50 90Q781 57 756.50 32.50Q732 8 696-6Q660-20 615-20Q570-20 534-6Q498 8 473 32.50Q448 57 435 90Q422 123 422 161Z"  horiz-adv-x="1229" vert-adv-y="2048"  />

      
      <glyph glyph-name="uni2f" unicode="&#x2f;" d="M479-125L220-125L765 1456L1024 1456L479-125Z"  horiz-adv-x="1229" vert-adv-y="2048"  />

      
      <glyph glyph-name="uni30" unicode="&#x30;" d="M1089 554Q1089 413 1056.50 305.50Q1024 198 963 125.50Q902 53 814 16Q726-21 616-21Q507-21 419 16Q331 53 269.50 125.50Q208 198 174.50 305.50Q141 413 141 554L141 902Q141 1043 174 1150.50Q207 1258 268.50 1330.50Q330 1403 417.50 1440Q505 1477 614 1477Q724 1477 812 1440Q900 1403 961.50 1330.50Q1023 1258 1056 1150.50Q1089 1043 1089 902L1089 554M421 674L809 963Q806 1110 758 1181Q710 1252 614 1252Q517 1252 469 1177Q421 1102 421 946L421 674M809 774L421 486Q426 342 474 272.50Q522 203 616 203Q714 203 761.50 279Q809 355 809 512L809 774Z"  horiz-adv-x="1229" vert-adv-y="2048"  />

      
      <glyph glyph-name="uni31" unicode="&#x31;" d="M822 0L541 0L541 1117L173 985L173 1227L807 1456L822 1456L822 0Z"  horiz-adv-x="1229" vert-adv-y="2048"  />

      
      <glyph glyph-name="uni32" unicode="&#x32;" d="M1093 0L100 0L100 190L571 696Q626 756 664 805Q702 854 725.50 894.50Q749 935 759.50 970Q770 1005 770 1038Q770 1087 756 1125Q742 1163 716.50 1189.50Q691 1216 655.50 1230Q620 1244 577 1244Q462 1244 405.50 1180Q349 1116 349 1001L70 1001Q70 1098 107 1184.50Q144 1271 211.50 1336Q279 1401 374.50 1438.50Q470 1476 586 1476Q697 1476 782.50 1445Q868 1414 925.50 1358Q983 1302 1013 1223.50Q1043 1145 1043 1050Q1043 978 1020.50 912.50Q998 847 956.50 783Q915 719 857 652.50Q799 586 728 513L454 223L1093 223L1093 0Z"  horiz-adv-x="1229" vert-adv-y="2048"  />

      
      <glyph glyph-name="uni33" unicode="&#x33;" d="M421 850L572 850Q686 850 741 907.50Q796 965 796 1058Q796 1101 783.50 1136.50Q771 1172 746 1197.50Q721 1223 682.50 1237Q644 1251 593 1251Q551 1251 514.50 1239Q478 1227 450.50 1204.50Q423 1182 407 1150Q391 1118 391 1078L113 1078Q113 1167 149.50 1240Q186 1313 250 1365.50Q314 1418 400.50 1447Q487 1476 587 1476Q695 1476 785 1449.50Q875 1423 939 1370.50Q1003 1318 1038.50 1240.50Q1074 1163 1074 1061Q1074 1014 1060 968.50Q1046 923 1019 882Q992 841 952 806.50Q912 772 860 747Q921 725 965.50 691Q1010 657 1039 613.50Q1068 570 1082 518Q1096 466 1096 408Q1096 306 1057 226Q1018 146 950 91.50Q882 37 788.50 8.50Q695-20 587-20Q494-20 405.50 5.50Q317 31 248 82.50Q179 134 137.50 212Q96 290 96 396L374 396Q374 354 390 318.50Q406 283 435.50 257.50Q465 232 505 217.50Q545 203 593 203Q699 203 759 259Q819 315 819 411Q819 470 802 512Q785 554 752.50 581Q720 608 674.50 621Q629 634 572 634L421 634L421 850Z"  horiz-adv-x="1229" vert-adv-y="2048"  />

      
      <glyph glyph-name="uni34" unicode="&#x34;" d="M953 541L1122 541L1122 316L953 316L953 0L675 0L675 316L70 316L59 490L671 1456L953 1456L953 541M332 541L675 541L675 1082L648 1034L332 541Z"  horiz-adv-x="1229" vert-adv-y="2048"  />

      
      <glyph glyph-name="uni35" unicode="&#x35;" d="M155 717L238 1456L1046 1456L1046 1220L467 1220L432 900Q463 918 520 937Q577 956 651 956Q756 956 838.50 922.50Q921 889 977.50 826Q1034 763 1064 672Q1094 581 1094 466Q1094 368 1065 280Q1036 192 976 125Q916 58 825 19Q734-20 610-20Q516-20 428.50 8Q341 36 273 90Q205 144 162.50 222.50Q120 301 117 402L391 402Q401 307 459.50 255Q518 203 609 203Q665 203 704.50 224Q744 245 768.50 282Q793 319 804.50 370Q816 421 816 480Q816 538 801.50 586.50Q787 635 757 670Q727 705 682 724Q637 743 576 743Q535 743 505 736Q475 729 452 718Q429 707 411 692.50Q393 678 377 662L155 717Z"  horiz-adv-x="1229" vert-adv-y="2048"  />

      
      <glyph glyph-name="uni36" unicode="&#x36;" d="M879 1468L879 1237L863 1237Q753 1237 668.50 1208Q584 1179 524.50 1126Q465 1073 430.50 999Q396 925 387 834Q410 859 440 883.50Q470 908 507.50 927.50Q545 947 589 959Q633 971 684 971Q788 971 865.50 931.50Q943 892 995 824.50Q1047 757 1072.50 667.50Q1098 578 1098 479Q1098 373 1064 282Q1030 191 967 124Q904 57 814 18.50Q724-20 612-20Q495-20 401 23.50Q307 67 241.50 144Q176 221 140.50 326.50Q105 432 105 557L105 664Q105 837 152 984.50Q199 1132 292 1239.50Q385 1347 523 1407.50Q661 1468 842 1468L879 1468M603 748Q528 748 470.50 708Q413 668 384 605L384 523Q384 443 400.50 383Q417 323 447 283.50Q477 244 518 224Q559 204 607 204Q656 204 696 224.50Q736 245 764 281Q792 317 807 366.50Q822 416 822 475Q822 534 807 584Q792 634 764 670.50Q736 707 695.50 727.50Q655 748 603 748Z"  horiz-adv-x="1229" vert-adv-y="2048"  />

      
      <glyph glyph-name="uni37" unicode="&#x37;" d="M1092 1301L525 0L232 0L800 1229L69 1229L69 1456L1092 1456L1092 1301Z"  horiz-adv-x="1229" vert-adv-y="2048"  />

      
      <glyph glyph-name="uni38" unicode="&#x38;" d="M1055 1069Q1055 963 1001.50 880.50Q948 798 855 749Q961 699 1023.50 609Q1086 519 1086 398Q1086 295 1048.50 217Q1011 139 945.50 86.50Q880 34 791 7Q702-20 599-20Q495-20 405.50 7Q316 34 250 86.50Q184 139 146.50 217Q109 295 109 398Q109 458 125.50 511.50Q142 565 172 609.50Q202 654 244.50 689.50Q287 725 340 750Q247 798 194 880.50Q141 963 141 1069Q141 1168 175 1243.50Q209 1319 269.50 1371Q330 1423 413.50 1449.50Q497 1476 596 1476Q695 1476 779 1449.50Q863 1423 924.50 1371Q986 1319 1020.50 1243.50Q1055 1168 1055 1069M807 417Q807 467 792 507Q777 547 749.50 575.50Q722 604 683.50 619Q645 634 597 634Q549 634 510.50 619Q472 604 445 575.50Q418 547 403 507Q388 467 388 417Q388 317 445 260Q502 203 599 203Q645 203 683 217.50Q721 232 748.50 260Q776 288 791.50 327.50Q807 367 807 417M778 1056Q778 1100 765 1136Q752 1172 728.50 1197.50Q705 1223 671.50 1237Q638 1251 596 1251Q511 1251 465 1199Q419 1147 419 1056Q419 1012 431 975.50Q443 939 466.50 913Q490 887 523.50 872.50Q557 858 599 858Q641 858 674 872.50Q707 887 730 913Q753 939 765.50 975.50Q778 1012 778 1056Z"  horiz-adv-x="1229" vert-adv-y="2048"  />

      
      <glyph glyph-name="uni39" unicode="&#x39;" d="M332 221Q444 221 526 245Q608 269 663.50 314.50Q719 360 749.50 425.50Q780 491 789 574Q747 532 681 502Q615 472 521 472Q417 472 338 510Q259 548 205.50 614Q152 680 124.50 769.50Q97 859 97 962Q97 1068 130.50 1161.50Q164 1255 227 1325Q290 1395 379.50 1435.50Q469 1476 581 1476Q695 1476 786 1432Q877 1388 940.50 1309Q1004 1230 1037.50 1121Q1071 1012 1071 882L1071 786Q1071 612 1028 466Q985 320 895 213.50Q805 107 666 47.50Q527-12 334-12L313-12L313 221L332 221M587 687Q625 687 657.50 698Q690 709 716.50 728.50Q743 748 762.50 774.50Q782 801 794 832L794 931Q794 1011 777.50 1071Q761 1131 732 1171Q703 1211 664 1231Q625 1251 580 1251Q531 1251 492.50 1227.50Q454 1204 428 1164.50Q402 1125 388 1073.50Q374 1022 374 966Q374 910 387 859Q400 808 426.50 770Q453 732 493 709.50Q533 687 587 687Z"  horiz-adv-x="1229" vert-adv-y="2048"  />

      
      <glyph glyph-name="uni3a" unicode="&#x3a;" d="M436 161Q436 200 449 233.50Q462 267 487 291.50Q512 316 548 330.50Q584 345 629 345Q674 345 710 330.50Q746 316 770.50 291.50Q795 267 808.50 233.50Q822 200 822 161Q822 123 808.50 90Q795 57 770.50 32.50Q746 8 710-6Q674-20 629-20Q584-20 548-6Q512 8 487 32.50Q462 57 449 90Q436 123 436 161M436 987Q436 1026 449 1059.50Q462 1093 487 1117.50Q512 1142 548 1156.50Q584 1171 629 1171Q674 1171 710 1156.50Q746 1142 770.50 1117.50Q795 1093 808.50 1059.50Q822 1026 822 987Q822 949 808.50 916Q795 883 770.50 858.50Q746 834 710 820Q674 806 629 806Q584 806 548 820Q512 834 487 858.50Q462 883 449 916Q436 949 436 987Z"  horiz-adv-x="1229" vert-adv-y="2048"  />

      
      <glyph glyph-name="uni3b" unicode="&#x3b;" d="M475 987Q475 1026 488 1059.50Q501 1093 526 1117.50Q551 1142 587 1156.50Q623 1171 668 1171Q713 1171 749 1156.50Q785 1142 809.50 1117.50Q834 1093 847.50 1059.50Q861 1026 861 987Q861 949 847.50 916Q834 883 809.50 858.50Q785 834 749 820Q713 806 668 806Q623 806 587 820Q551 834 526 858.50Q501 883 488 916Q475 949 475 987M786 22Q786-35 770.50-95Q755-155 728-211Q701-267 663.50-317Q626-367 583-406L436-330Q455-294 471.50-257Q488-220 500-179Q512-138 519-92Q526-46 526 9L526 243L787 243L786 22Z"  horiz-adv-x="1229" vert-adv-y="2048"  />

      
      <glyph glyph-name="uni3c" unicode="&#x3c;" d="M493 647L425 622L493 598L1041 415L1041 144L156 511L156 736L1041 1103L1041 833L493 647Z"  horiz-adv-x="1229" vert-adv-y="2048"  />

      
      <glyph glyph-name="uni3d" unicode="&#x3d;" d="M1104 717L158 717L158 945L1104 945L1104 717M1104 286L158 286L158 513L1104 513L1104 286Z"  horiz-adv-x="1229" vert-adv-y="2048"  />

      
      <glyph glyph-name="uni3e" unicode="&#x3e;" d="M161 834L161 1103L1061 737L1061 510L161 143L161 413L734 605L795 625L735 645L161 834Z"  horiz-adv-x="1229" vert-adv-y="2048"  />

      
      <glyph glyph-name="uni3f" unicode="&#x3f;" d="M499 442Q499 511 502.50 559Q506 607 519 645.50Q532 684 558 716.50Q584 749 631 786Q665 817 699 851.50Q733 886 760.50 922.50Q788 959 805 997Q822 1035 822 1073Q822 1164 773 1206Q724 1248 630 1248Q594 1248 560 1238.50Q526 1229 499.50 1208Q473 1187 456.50 1154Q440 1121 439 1075L160 1075Q161 1177 198 1252.50Q235 1328 298 1378Q361 1428 446 1452.50Q531 1477 630 1477Q741 1477 829 1452Q917 1427 977.50 1377.50Q1038 1328 1070 1255Q1102 1182 1102 1086Q1102 1015 1078 956.50Q1054 898 1016 847.50Q978 797 929.50 751.50Q881 706 832 663Q802 633 785 610Q768 587 760.50 563Q753 539 751 510.50Q749 482 749 442L499 442M458 139Q458 172 469 200.50Q480 229 501 250Q522 271 552 282.50Q582 294 620 294Q657 294 687.50 282.50Q718 271 739 250Q760 229 771.50 200.50Q783 172 783 139Q783 107 771.50 79Q760 51 739 31Q718 11 687.50-0.50Q657-12 620-12Q582-12 552-0.50Q522 11 501 31Q480 51 469 79Q458 107 458 139Z"  horiz-adv-x="1229" vert-adv-y="2048"  />

      
      <glyph glyph-name="uni40" unicode="&#x40;" d="M1170 823Q1167 729 1149 636.50Q1131 544 1095.50 470.50Q1060 397 1005 351.50Q950 306 873 306Q822 306 780.50 331.50Q739 357 715 405Q683 360 640.50 334Q598 308 548 308Q488 308 443 335Q398 362 370 412.50Q342 463 331.50 534Q321 605 329 692Q340 794 368.50 876Q397 958 442 1016.50Q487 1075 548 1106.50Q609 1138 685 1138Q763 1138 812.50 1115Q862 1092 893 1062L850 535Q848 506 851.50 490Q855 474 862.50 466Q870 458 880 456Q890 454 900 454Q926 454 947.50 481Q969 508 985 556Q1001 604 1009.50 670.50Q1018 737 1018 816Q1022 938 1000.50 1027.50Q979 1117 933 1175Q887 1233 818 1261Q749 1289 659 1289Q557 1289 475.50 1243.50Q394 1198 336.50 1117Q279 1036 246 924.50Q213 813 209 680Q204 546 227.50 446Q251 346 300.50 279.50Q350 213 425.50 180Q501 147 599 147Q630 147 663 151Q696 155 727.50 162.50Q759 170 787.50 180Q816 190 839 202L871 67Q845 48 811.50 34Q778 20 741 10.50Q704 1 667-3.50Q630-8 596-8Q450-8 344 40Q238 88 169 177Q100 266 68.50 393.50Q37 521 42 680Q47 838 94.50 977Q142 1116 224.50 1219.50Q307 1323 420 1382.50Q533 1442 669 1442Q787 1442 882 1397.50Q977 1353 1042.50 1271.50Q1108 1190 1141 1076Q1174 962 1170 823M502 692Q496 577 520.50 519Q545 461 594 461Q618 461 643 473.50Q668 486 691 522Q691 525 691.50 528.50Q692 532 692 535L730 982Q715 985 699 985Q612 985 564.50 910Q517 835 502 692Z"  horiz-adv-x="1229" vert-adv-y="2048"  />

      
      <glyph glyph-name="uni41" unicode="&#x41;" d="M847 304L410 304L324 0L28 0L505 1456L760 1456L1228 0L932 0L847 304M479 543L781 543L632 1079L479 543Z"  horiz-adv-x="1229" vert-adv-y="2048"  />

      
      <glyph glyph-name="uni42" unicode="&#x42;" d="M129 0L129 1456L618 1456Q737 1456 834.50 1432Q932 1408 1001 1359Q1070 1310 1107.50 1235Q1145 1160 1145 1058Q1144 956 1090.50 875Q1037 794 933 752Q996 736 1042 704Q1088 672 1118.50 628.50Q1149 585 1163.50 533.50Q1178 482 1178 427Q1178 322 1142 242Q1106 162 1039 108Q972 54 876 27Q780 0 660 0L129 0M411 642L411 227L661 227Q776 228 836.50 283.50Q897 339 897 429Q898 529 843 585Q788 641 673 642L411 642M411 845L620 845Q737 846 800 894Q863 942 864 1035Q864 1137 801 1181.50Q738 1226 619 1227L411 1227L411 845Z"  horiz-adv-x="1229" vert-adv-y="2048"  />

      
      <glyph glyph-name="uni43" unicode="&#x43;" d="M1142 456Q1135 346 1094.50 258Q1054 170 986 108Q918 46 824 12.50Q730-21 616-21Q487-21 387 26.50Q287 74 219 159.50Q151 245 115 365Q79 485 79 629L79 825Q79 970 117 1090Q155 1210 225 1296Q295 1382 394.50 1429.50Q494 1477 618 1477Q738 1477 831.50 1443Q925 1409 991 1346Q1057 1283 1095 1192Q1133 1101 1143 987L863 987Q859 1052 843.50 1101Q828 1150 798.50 1182.50Q769 1215 724.50 1231.50Q680 1248 618 1248Q553 1248 505 1220Q457 1192 425.50 1138Q394 1084 379 1005.50Q364 927 364 827L364 629Q364 414 424.50 311Q485 208 616 208Q726 208 790 266.50Q854 325 861 456L1142 456Z"  horiz-adv-x="1229" vert-adv-y="2048"  />

      
      <glyph glyph-name="uni44" unicode="&#x44;" d="M125 0L125 1456L502 1456Q647 1456 764.50 1406.50Q882 1357 965.50 1268.50Q1049 1180 1094.50 1057Q1140 934 1140 787L1140 667Q1140 520 1094.50 397.50Q1049 275 967 186.50Q885 98 770 49Q655 0 516 0L125 0M408 1228L408 226L516 226Q595 226 657.50 256Q720 286 763.50 343Q807 400 830 481.50Q853 563 853 667L853 789Q853 887 830.50 967.50Q808 1048 763.50 1106Q719 1164 653.50 1196Q588 1228 502 1228L408 1228Z"  horiz-adv-x="1229" vert-adv-y="2048"  />

      
      <glyph glyph-name="uni45" unicode="&#x45;" d="M1027 638L429 638L429 227L1128 227L1128 0L147 0L147 1456L1125 1456L1125 1227L429 1227L429 860L1027 860L1027 638Z"  horiz-adv-x="1229" vert-adv-y="2048"  />

      
      <glyph glyph-name="uni46" unicode="&#x46;" d="M1055 603L431 603L431 0L149 0L149 1456L1133 1456L1133 1227L431 1227L431 831L1055 831L1055 603Z"  horiz-adv-x="1229" vert-adv-y="2048"  />

      
      <glyph glyph-name="uni47" unicode="&#x47;" d="M1132 170Q1105 137 1058 103Q1011 69 946.50 41.50Q882 14 802-3Q722-20 630-20Q506-20 406 24Q306 68 235 151Q164 234 125.50 354.50Q87 475 87 628L87 826Q87 979 127.50 1099.50Q168 1220 239.50 1304Q311 1388 407.50 1432Q504 1476 617 1476Q740 1476 831.50 1445Q923 1414 986 1355.50Q1049 1297 1084.50 1213Q1120 1129 1131 1024L857 1024Q843 1136 789.50 1192.50Q736 1249 624 1249Q570 1249 524 1221.50Q478 1194 444 1141Q410 1088 390 1009.50Q370 931 370 828L370 628Q371 424 438 315.50Q505 207 643 206Q676 206 708 211Q740 216 768 225Q796 234 817.50 245.50Q839 257 850 270L851 534L610 534L610 744L1131 744L1132 170Z"  horiz-adv-x="1229" vert-adv-y="2048"  />

      
      <glyph glyph-name="uni48" unicode="&#x48;" d="M1092 0L814 0L814 631L402 631L402 0L123 0L123 1456L402 1456L402 859L814 859L814 1456L1092 1456L1092 0Z"  horiz-adv-x="1229" vert-adv-y="2048"  />

      
      <glyph glyph-name="uni49" unicode="&#x49;" d="M193 1456L1035 1456L1035 1229L751 1229L751 226L1035 226L1035 0L193 0L193 226L470 226L470 1229L193 1229L193 1456Z"  horiz-adv-x="1229" vert-adv-y="2048"  />

      
      <glyph glyph-name="uni4a" unicode="&#x4a;" d="M818 1456L1099 1456L1100 447Q1099 343 1060.50 257.50Q1022 172 955 110Q888 48 797.50 14Q707-20 603-20Q493-20 403 8Q313 36 248.50 91.50Q184 147 148 231Q112 315 111 428L393 428Q394 311 445 258.50Q496 206 603 206Q651 206 691 224.50Q731 243 759 275Q787 307 802.50 351.50Q818 396 818 447L818 1456Z"  horiz-adv-x="1229" vert-adv-y="2048"  />

      
      <glyph glyph-name="uni4b" unicode="&#x4b;" d="M565 598L411 429L411 0L129 0L129 1456L411 1456L411 789L543 967L897 1456L1241 1456L751 812L1259 0L925 0L565 598Z"  horiz-adv-x="1229" vert-adv-y="2048"  />

      
      <glyph glyph-name="uni4c" unicode="&#x4c;" d="M432 227L1114 227L1114 0L150 0L150 1456L432 1456L432 227Z"  horiz-adv-x="1229" vert-adv-y="2048"  />

      
      <glyph glyph-name="uni4d" unicode="&#x4d;" d="M476 1456L614 909L771 1456L1120 1456L1120 0L862 0L862 431L874 1112L683 480L544 480L373 1085L385 431L385 0L127 0L127 1456L476 1456Z"  horiz-adv-x="1229" vert-adv-y="2048"  />

      
      <glyph glyph-name="uni4e" unicode="&#x4e;" d="M1091 0L811 0L406 939L406 0L123 0L123 1456L406 1456L808 521L809 1456L1091 1456L1091 0Z"  horiz-adv-x="1229" vert-adv-y="2048"  />

      
      <glyph glyph-name="uni4f" unicode="&#x4f;" d="M1147 621Q1147 481 1110 363Q1073 245 1003 160Q933 75 832.50 27.50Q732-20 606-20Q480-20 382 27.50Q284 75 217 160.50Q150 246 115 363.50Q80 481 80 621L80 833Q80 973 115 1091Q150 1209 217 1294.50Q284 1380 381.50 1428Q479 1476 605 1476Q732 1476 832.50 1428Q933 1380 1003 1294.50Q1073 1209 1110 1091Q1147 973 1147 833L1147 621M862 835Q862 924 847.50 999Q833 1074 802 1128Q771 1182 722.50 1212.50Q674 1243 605 1243Q537 1243 491 1212.50Q445 1182 417 1128Q389 1074 377 999Q365 924 365 835L365 621Q365 533 377 458Q389 383 417 328Q445 273 491 242Q537 211 606 211Q674 211 722.50 242Q771 273 801.50 327.50Q832 382 847 457Q862 532 862 621L862 835Z"  horiz-adv-x="1229" vert-adv-y="2048"  />

      
      <glyph glyph-name="uni50" unicode="&#x50;" d="M430 534L430 0L149 0L149 1456L647 1456Q766 1456 862 1421.50Q958 1387 1025.50 1325.50Q1093 1264 1129.50 1178Q1166 1092 1166 987Q1166 889 1129.50 806Q1093 723 1025.50 662.50Q958 602 862 568Q766 534 647 534L430 534M430 762L647 762Q707 762 751 780Q795 798 824.50 829Q854 860 868.50 900.50Q883 941 883 985Q883 1036 868.50 1080Q854 1124 824.50 1157Q795 1190 751 1209Q707 1228 647 1228L430 1228L430 762Z"  horiz-adv-x="1229" vert-adv-y="2048"  />

      
      <glyph glyph-name="uni51" unicode="&#x51;" d="M1156 577Q1155 443 1109.50 324.50Q1064 206 976 122L1217-96L1036-257L759-1Q724-10 687.50-15Q651-20 612-20Q486-20 388 28.50Q290 77 222.50 159.50Q155 242 120 350Q85 458 85 577L85 829Q85 970 120 1088.50Q155 1207 222.50 1293Q290 1379 388 1427.50Q486 1476 612 1476Q739 1476 840 1427.50Q941 1379 1011 1293Q1081 1207 1118.50 1088.50Q1156 970 1156 829L1156 577M871 831Q871 921 856.50 996.50Q842 1072 811 1127Q780 1182 731 1212.50Q682 1243 612 1243Q543 1243 496.50 1212Q450 1181 422 1126.50Q394 1072 382 996.50Q370 921 370 831L370 577Q370 509 382 443.50Q394 378 422 326.50Q450 275 496.50 243Q543 211 612 211Q682 211 731 242.50Q780 274 811 326Q842 378 856.50 443.50Q871 509 871 577L871 831Z"  horiz-adv-x="1229" vert-adv-y="2048"  />

      
      <glyph glyph-name="uni52" unicode="&#x52;" d="M625 544L412 544L412 0L131 0L131 1456L619 1456Q740 1456 838 1427.50Q936 1399 1005.50 1344Q1075 1289 1112.50 1207Q1150 1125 1150 1017Q1150 939 1131.50 876.50Q1113 814 1078.50 764.50Q1044 715 995.50 678Q947 641 887 614L1200 13L1200 0L899 0L625 544M412 772L620 772Q739 772 803.50 832.50Q868 893 868 998Q868 1107 805 1167.50Q742 1228 619 1228L412 1228L412 772Z"  horiz-adv-x="1229" vert-adv-y="2048"  />

      
      <glyph glyph-name="uni53" unicode="&#x53;" d="M887 380Q887 419 873.50 453Q860 487 827.50 516.50Q795 546 742.50 570.50Q690 595 612 616Q517 642 430.50 681Q344 720 278 775Q212 830 172.50 903Q133 976 133 1071Q133 1163 172 1238Q211 1313 280 1366Q349 1419 443 1447.50Q537 1476 647 1476Q761 1476 855.50 1443Q950 1410 1018 1350.50Q1086 1291 1124 1209Q1162 1127 1162 1029L888 1029Q886 1078 870.50 1119Q855 1160 824.50 1189.50Q794 1219 748.50 1235.50Q703 1252 642 1252Q586 1252 542.50 1238.50Q499 1225 469 1200.50Q439 1176 423.50 1142.50Q408 1109 408 1070Q408 1029 428.50 996Q449 963 488 936.50Q527 910 582.50 888Q638 866 708 847Q808 818 892 776Q976 734 1036.50 676.50Q1097 619 1130.50 545.50Q1164 472 1164 382Q1164 286 1125.50 211.50Q1087 137 1019 85.50Q951 34 857 7.50Q763-19 652-19Q583-19 514.50-6.50Q446 6 383.50 32Q321 58 267 97Q213 136 173.50 188Q134 240 111.50 306Q89 372 89 452L365 452Q367 386 388 339Q409 292 446.50 262Q484 232 536.50 218Q589 204 652 204Q708 204 751.50 217Q795 230 825 253Q855 276 871 308.50Q887 341 887 380Z"  horiz-adv-x="1229" vert-adv-y="2048"  />

      
      <glyph glyph-name="uni54" unicode="&#x54;" d="M1201 1227L752 1227L752 0L470 0L470 1227L27 1227L27 1456L1201 1456L1201 1227Z"  horiz-adv-x="1229" vert-adv-y="2048"  />

      
      <glyph glyph-name="uni55" unicode="&#x55;" d="M1101 1456L1102 491Q1102 369 1068.50 274Q1035 179 971.50 113.50Q908 48 816.50 14Q725-20 608-20Q498-20 409.50 14Q321 48 258 113Q195 178 160.50 273.50Q126 369 126 491L127 1456L408 1456L409 491Q410 350 460.50 278Q511 206 608 206Q711 206 765.50 278Q820 350 821 491L822 1456L1101 1456Z"  horiz-adv-x="1229" vert-adv-y="2048"  />

      
      <glyph glyph-name="uni56" unicode="&#x56;" d="M613 407L888 1456L1198 1456L757 0L471 0L31 1456L341 1456L613 407Z"  horiz-adv-x="1229" vert-adv-y="2048"  />

      
      <glyph glyph-name="uni57" unicode="&#x57;" d="M843 579L949 1456L1207 1456L1005 0L751 0L613 860L480 0L226 0L26 1456L283 1456L387 585L511 1456L712 1456L843 579Z"  horiz-adv-x="1229" vert-adv-y="2048"  />

      
      <glyph glyph-name="uni58" unicode="&#x58;" d="M624 934L883 1456L1213 1456L803 734L1223 0L895 0L628 530L362 0L30 0L450 734L41 1456L369 1456L624 934Z"  horiz-adv-x="1229" vert-adv-y="2048"  />

      
      <glyph glyph-name="uni59" unicode="&#x59;" d="M628 785L915 1456L1224 1456L766 504L765 0L485 0L484 516L33 1456L341 1456L628 785Z"  horiz-adv-x="1229" vert-adv-y="2048"  />

      
      <glyph glyph-name="uni5a" unicode="&#x5a;" d="M431 227L1153 227L1153 0L89 0L89 172L795 1227L91 1227L91 1456L1135 1456L1136 1289L431 227Z"  horiz-adv-x="1229" vert-adv-y="2048"  />

      
      <glyph glyph-name="uni5b" unicode="&#x5b;" d="M847 1475L677 1475L677-120L847-120L847-335L400-335L400 1690L847 1690L847 1475Z"  horiz-adv-x="1229" vert-adv-y="2048"  />

      
      <glyph glyph-name="uni5c" unicode="&#x5c;" d="M240 1456L500 1456L1045-125L785-125L240 1456Z"  horiz-adv-x="1229" vert-adv-y="2048"  />

      
      <glyph glyph-name="uni5d" unicode="&#x5d;" d="M400 1690L848 1690L848-335L400-335L400-120L571-120L571 1475L400 1475L400 1690Z"  horiz-adv-x="1229" vert-adv-y="2048"  />

      
      <glyph glyph-name="uni5e" unicode="&#x5e;" d="M437 687L213 687L532 1456L733 1456L1051 687L828 687L652 1141L631 1225L610 1141L437 687Z"  horiz-adv-x="1229" vert-adv-y="2048"  />

      
      <glyph glyph-name="uni5f" unicode="&#x5f;" d="M1060-217L148-217L148 0L1060 0L1060-217Z"  horiz-adv-x="1229" vert-adv-y="2048"  />

      
      <glyph glyph-name="uni60" unicode="&#x60;" d="M894 1199L675 1199L411 1478L717 1478L894 1199Z"  horiz-adv-x="1229" vert-adv-y="2048"  />

      
      <glyph glyph-name="uni61" unicode="&#x61;" d="M817 0Q807 20 800 46Q793 72 788 101Q765 76 735 54Q705 32 668.50 15.50Q632-1 588-10.50Q544-20 493-20Q410-20 340.50 4Q271 28 221 71Q171 114 143 173.50Q115 233 115 303Q115 474 242.50 567.50Q370 661 623 661L778 661L778 725Q778 803 727 848.50Q676 894 580 894Q495 894 456 857.50Q417 821 417 760L139 760Q139 829 169.50 891Q200 953 258.50 1000Q317 1047 401.50 1074.50Q486 1102 595 1102Q693 1102 777.50 1078Q862 1054 924 1007Q986 960 1021 888.50Q1056 817 1056 723L1056 259Q1056 172 1067 115Q1078 58 1099 17L1099 0L817 0M552 195Q594 195 630 205Q666 215 695 231Q724 247 745 267.50Q766 288 778 309L778 495L636 495Q571 495 525 482.50Q479 470 450 447.50Q421 425 407 393.50Q393 362 393 325Q393 269 432.50 232Q472 195 552 195Z"  horiz-adv-x="1229" vert-adv-y="2048"  />

      
      <glyph glyph-name="uni62" unicode="&#x62;" d="M1116 530Q1116 409 1089.50 308Q1063 207 1010 134Q957 61 878 20.50Q799-20 694-20Q599-20 529.50 15.50Q460 51 410 115L397 0L147 0L147 1536L425 1536L425 984Q473 1040 538.50 1071Q604 1102 692 1102Q798 1102 877.50 1061Q957 1020 1010 947Q1063 874 1089.50 772.50Q1116 671 1116 551L1116 530M838 551Q838 617 828 676Q818 735 793.50 779.50Q769 824 727 850Q685 876 622 876Q546 876 498.50 844Q451 812 425 756L425 325Q451 269 498.50 237Q546 205 624 205Q687 205 728 229.50Q769 254 793.50 297.50Q818 341 828 400.50Q838 460 838 530L838 551Z"  horiz-adv-x="1229" vert-adv-y="2048"  />

      
      <glyph glyph-name="uni63" unicode="&#x63;" d="M620 202Q661 202 698 214Q735 226 763 248Q791 270 806.50 301Q822 332 820 370L1082 370Q1084 286 1047.50 214Q1011 142 948 90Q885 38 801.50 8.50Q718-21 625-21Q499-21 404 21.50Q309 64 245.50 138Q182 212 149.50 311.50Q117 411 117 525L117 555Q117 669 149 768.50Q181 868 245 942Q309 1016 403.50 1059Q498 1102 623 1102Q723 1102 808 1072Q893 1042 954.50 987.50Q1016 933 1050 855.50Q1084 778 1082 682L820 682Q822 722 808 758Q794 794 767 820Q740 846 702 861.50Q664 877 619 877Q553 877 510 850Q467 823 441.50 778Q416 733 405.50 675Q395 617 395 555L395 525Q395 462 405 403.50Q415 345 440.50 300.50Q466 256 509.50 229Q553 202 620 202Z"  horiz-adv-x="1229" vert-adv-y="2048"  />

      
      <glyph glyph-name="uni64" unicode="&#x64;" d="M112 549Q112 672 140.50 774Q169 876 224 949Q279 1022 357.50 1062Q436 1102 537 1102Q622 1102 686.50 1071.50Q751 1041 801 985L801 1536L1080 1536L1080 0L829 0L815 113Q764 50 695 15Q626-20 535-20Q436-20 357.50 21.50Q279 63 224.50 136Q170 209 141 309.50Q112 410 112 528L112 549M390 528Q390 460 401.50 401.50Q413 343 439 299.50Q465 256 506 231Q547 206 606 206Q678 206 725.50 237Q773 268 801 322L801 760Q773 815 726 845.50Q679 876 608 876Q549 876 507.50 850.50Q466 825 440 780.50Q414 736 402 676.50Q390 617 390 549L390 528Z"  horiz-adv-x="1229" vert-adv-y="2048"  />

      
      <glyph glyph-name="uni65" unicode="&#x65;" d="M666-20Q541-20 439 21Q337 62 264 132.50Q191 203 151.50 298.50Q112 394 112 503L112 543Q112 667 151 769.50Q190 872 260 946Q330 1020 426 1061Q522 1102 635 1102Q752 1102 843.50 1063.50Q935 1025 998.50 955Q1062 885 1095 786.50Q1128 688 1128 569L1128 451L394 451Q402 396 426.50 350.50Q451 305 489 272Q527 239 576 221Q625 203 683 203Q724 203 764.50 211Q805 219 842 234.50Q879 250 911 273Q943 296 967 327L1106 177Q1080 140 1038.50 104.50Q997 69 940.50 41.50Q884 14 815-3Q746-20 666-20M633 877Q586 877 547 860.50Q508 844 478.50 813Q449 782 429 739Q409 696 399 643L855 643L855 665Q853 709 838 748Q823 787 795 815.50Q767 844 726.50 860.50Q686 877 633 877Z"  horiz-adv-x="1229" vert-adv-y="2048"  />

      
      <glyph glyph-name="uni66" unicode="&#x66;" d="M410 0L410 877L126 877L126 1082L410 1082L410 1141Q410 1248 444 1330Q478 1412 541 1468Q604 1524 694 1552.50Q784 1581 895 1581Q930 1581 962.50 1578.50Q995 1576 1026 1572Q1057 1568 1088.50 1563Q1120 1558 1154 1552L1136 1334Q1098 1342 1050 1348Q1002 1354 937 1354Q807 1354 748 1299Q689 1244 689 1141L689 1082L1079 1082L1079 877L689 877L689 0L410 0Z"  horiz-adv-x="1229" vert-adv-y="2048"  />

      
      <glyph glyph-name="uni67" unicode="&#x67;" d="M113 549Q113 672 143.50 774Q174 876 231 949Q288 1022 369 1062Q450 1102 552 1102Q647 1102 715 1070Q783 1038 831 979L842 1082L1095 1082L1095 35Q1095-75 1057.50-161Q1020-247 952.50-306Q885-365 790.50-395.50Q696-426 582-426Q533-426 477-416Q421-406 366-385Q311-364 262-331.50Q213-299 178-254L303-85Q356-145 423-176.50Q490-208 568-208Q685-208 750.50-145.50Q816-83 816 32L816 94Q767 40 701.50 10Q636-20 550-20Q449-20 368.50 21.50Q288 63 231 136Q174 209 143.50 309.50Q113 410 113 528L113 549M392 528Q392 460 405.50 401.50Q419 343 447 299.50Q475 256 518 231Q561 206 620 206Q693 206 740.50 234Q788 262 816 312L816 770Q788 821 740.50 848.50Q693 876 622 876Q563 876 520 850.50Q477 825 448.50 780.50Q420 736 406 676.50Q392 617 392 549L392 528Z"  horiz-adv-x="1229" vert-adv-y="2048"  />

      
      <glyph glyph-name="uni68" unicode="&#x68;" d="M419 933Q473 1012 550.50 1057Q628 1102 724 1102Q809 1102 880 1076.50Q951 1051 1002 997Q1053 943 1081.50 858.50Q1110 774 1110 655L1110 0L832 0L832 657Q832 715 817.50 757Q803 799 776 825Q749 851 711 863.50Q673 876 625 876Q555 876 503.50 851Q452 826 419 781L419 0L141 0L141 1536L419 1536L419 933Z"  horiz-adv-x="1229" vert-adv-y="2048"  />

      
      <glyph glyph-name="uni69" unicode="&#x69;" d="M215 1082L804 1082L804 226L1097 226L1097 0L215 0L215 226L523 226L523 855L215 855L215 1082M503 1359Q503 1391 514.50 1418.50Q526 1446 547 1465.50Q568 1485 597.50 1496Q627 1507 663 1507Q737 1507 780.50 1465.50Q824 1424 824 1359Q824 1294 780.50 1252.50Q737 1211 663 1211Q627 1211 597.50 1222Q568 1233 547 1252.50Q526 1272 514.50 1299.50Q503 1327 503 1359Z"  horiz-adv-x="1229" vert-adv-y="2048"  />

      
      <glyph glyph-name="uni6a" unicode="&#x6a;" d="M307 1082L861 1082L861-25Q861-133 830-210.50Q799-288 740-338.50Q681-389 596-413Q511-437 402-437Q357-437 311-433.50Q265-430 223-420L237-194Q249-197 270.50-199.50Q292-202 314.50-203.50Q337-205 357.50-205.50Q378-206 388-206Q428-206 463.50-197Q499-188 524.50-167Q550-146 565-111.50Q580-77 580-25L580 855L307 855L307 1082M561 1359Q561 1391 572.50 1418.50Q584 1446 604.50 1465.50Q625 1485 654.50 1496Q684 1507 720 1507Q794 1507 837.50 1465.50Q881 1424 881 1359Q881 1294 837.50 1252.50Q794 1211 720 1211Q684 1211 654.50 1222Q625 1233 604.50 1252.50Q584 1272 572.50 1299.50Q561 1327 561 1359Z"  horiz-adv-x="1229" vert-adv-y="2048"  />

      
      <glyph glyph-name="uni6b" unicode="&#x6b;" d="M548 447L422 330L422 0L144 0L144 1536L422 1536L422 658L506 754L805 1082L1139 1082L731 631L1196 0L855 0L548 447Z"  horiz-adv-x="1229" vert-adv-y="2048"  />

      
      <glyph glyph-name="uni6c" unicode="&#x6c;" d="M199 1536L804 1536L804 226L1114 226L1114 0L199 0L199 226L523 226L523 1309L199 1309L199 1536Z"  horiz-adv-x="1229" vert-adv-y="2048"  />

      
      <glyph glyph-name="uni6d" unicode="&#x6d;" d="M314 1082L322 951Q353 1021 407.50 1061.50Q462 1102 540 1102Q671 1102 711 987Q743 1041 792.50 1071.50Q842 1102 912 1102Q961 1102 1003.50 1084Q1046 1066 1077.50 1026.50Q1109 987 1126.50 924.50Q1144 862 1144 772L1144 0L891 0L891 773Q891 804 884.50 824Q878 844 867 855.50Q856 867 841.50 871.50Q827 876 812 876Q783 876 763 862.50Q743 849 732 826L732 0L487 0L487 774Q487 805 481 825Q475 845 464.50 856Q454 867 440 871.50Q426 876 410 876Q378 876 358.50 858Q339 840 328 810L328 0L75 0L75 1082L314 1082Z"  horiz-adv-x="1229" vert-adv-y="2048"  />

      
      <glyph glyph-name="uni6e" unicode="&#x6e;" d="M393 1082L410 932Q468 1013 551 1057.50Q634 1102 735 1102Q817 1102 885 1078Q953 1054 1002.50 1001.50Q1052 949 1079.50 866.50Q1107 784 1107 666L1107 0L829 0L829 662Q829 726 814.50 767.50Q800 809 773 833Q746 857 708 866.50Q670 876 622 876Q551 876 501 847.50Q451 819 420 769L420 0L141 0L141 1082L393 1082Z"  horiz-adv-x="1229" vert-adv-y="2048"  />

      
      <glyph glyph-name="uni6f" unicode="&#x6f;" d="M103 551Q103 669 137 769.50Q171 870 236.50 944Q302 1018 396.50 1060Q491 1102 613 1102Q735 1102 830 1060Q925 1018 990.50 944Q1056 870 1090 769.50Q1124 669 1124 551L1124 530Q1124 411 1090 310.50Q1056 210 991 136Q926 62 831 20.50Q736-21 615-21Q493-21 397.50 20.50Q302 62 236.50 136Q171 210 137 310.50Q103 411 103 530L103 551M381 530Q381 462 394 402.50Q407 343 435 298.50Q463 254 507.50 228Q552 202 615 202Q676 202 720 228Q764 254 791.50 298.50Q819 343 832 402.50Q845 462 845 530L845 551Q845 617 832 676Q819 735 791.50 780Q764 825 720 851Q676 877 613 877Q551 877 507 851Q463 825 435 780Q407 735 394 676Q381 617 381 551L381 530Z"  horiz-adv-x="1229" vert-adv-y="2048"  />

      
      <glyph glyph-name="uni70" unicode="&#x70;" d="M1113 531Q1113 413 1085.50 312Q1058 211 1004.50 137.50Q951 64 872 22Q793-20 691-20Q604-20 538 10Q472 40 423 94L423-416L145-416L145 1082L402 1082L412 976Q462 1036 530 1069Q598 1102 689 1102Q792 1102 871 1062.50Q950 1023 1004 950.50Q1058 878 1085.50 776.50Q1113 675 1113 552L1113 531M835 552Q835 620 822.50 679.50Q810 739 783.50 782.50Q757 826 715.50 851Q674 876 615 876Q542 876 495.50 847.50Q449 819 423 767L423 315Q449 264 495.50 233.50Q542 203 617 203Q676 203 717.50 229Q759 255 785 300Q811 345 823 404.50Q835 464 835 531L835 552Z"  horiz-adv-x="1229" vert-adv-y="2048"  />

      
      <glyph glyph-name="uni71" unicode="&#x71;" d="M113 550Q113 673 141 775Q169 877 223.50 949.50Q278 1022 357.50 1062Q437 1102 540 1102Q632 1102 700.50 1068Q769 1034 819 972L836 1082L1081 1082L1081-416L802-416L802 92Q753 38 688 9Q623-20 538-20Q436-20 357 21.50Q278 63 224 136.50Q170 210 141.50 310.50Q113 411 113 529L113 550M391 529Q391 462 403 403Q415 344 441 299.50Q467 255 508.50 229Q550 203 609 203Q682 203 728.50 232Q775 261 802 312L802 772Q775 822 728.50 849.50Q682 877 611 877Q552 877 510.50 851.50Q469 826 442.50 782Q416 738 403.50 678.50Q391 619 391 550L391 529Z"  horiz-adv-x="1229" vert-adv-y="2048"  />

      
      <glyph glyph-name="uni72" unicode="&#x72;" d="M918 1102Q981 1102 1034.50 1093.50Q1088 1085 1121 1075L1080 798Q1025 811 967.50 817.50Q910 824 858 824Q741 824 670.50 779Q600 734 565 650L565 0L287 0L287 1082L546 1082L559 905Q625 997 717 1049.50Q809 1102 918 1102Z"  horiz-adv-x="1229" vert-adv-y="2048"  />

      
      <glyph glyph-name="uni73" unicode="&#x73;" d="M839 297Q839 322 827.50 341Q816 360 786.50 376.50Q757 393 708 407Q659 421 584 435Q489 454 410.50 482.50Q332 511 276 551.50Q220 592 188.50 645Q157 698 157 767Q157 834 189 895Q221 956 281 1002Q341 1048 427 1075Q513 1102 621 1102Q734 1102 824 1075.50Q914 1049 976.50 1002.50Q1039 956 1072 892Q1105 828 1105 753L827 753Q827 816 776 858.50Q725 901 621 901Q524 901 474.50 866Q425 831 425 780Q425 756 435 735.50Q445 715 470.50 698.50Q496 682 540 668.50Q584 655 652 645Q750 629 834 604Q918 579 979 539.50Q1040 500 1074.50 443.50Q1109 387 1109 309Q1109 237 1074.50 176.50Q1040 116 976.50 72Q913 28 823 3.50Q733-21 622-21Q500-21 406.50 11Q313 43 250 94.50Q187 146 154.50 211.50Q122 277 122 343L387 343Q390 299 411 267.50Q432 236 465 216.50Q498 197 540.50 188Q583 179 628 179Q731 179 785 212Q839 245 839 297Z"  horiz-adv-x="1229" vert-adv-y="2048"  />

      
      <glyph glyph-name="uni74" unicode="&#x74;" d="M651 1347L651 1082L1055 1082L1055 877L651 877L651 412Q651 353 664.50 313.50Q678 274 703 250.50Q728 227 763.50 217Q799 207 843 207Q875 207 908.50 210Q942 213 972.50 217.50Q1003 222 1029.50 227Q1056 232 1075 237L1102 46Q1073 29 1034 16.50Q995 4 951-4Q907-12 859.50-16.50Q812-21 766-21Q677-21 604.50 2.50Q532 26 480.50 75.50Q429 125 401 201.50Q373 278 373 385L373 877L126 877L126 1082L373 1082L373 1347L651 1347Z"  horiz-adv-x="1229" vert-adv-y="2048"  />

      
      <glyph glyph-name="uni75" unicode="&#x75;" d="M831 152Q776 71 698.50 25Q621-21 529-21Q445-21 375 5Q305 31 255 87.50Q205 144 177.50 231.50Q150 319 150 442L150 1082L428 1082L428 440Q428 374 437.50 329Q447 284 468 256.50Q489 229 523 217Q557 205 606 205Q689 205 741 236.50Q793 268 820 323L820 1082L1099 1082L1099 0L847 0L831 152Z"  horiz-adv-x="1229" vert-adv-y="2048"  />

      
      <glyph glyph-name="uni76" unicode="&#x76;" d="M601 321L615 243L629 318L867 1082L1157 1082L746 0L485 0L72 1082L362 1082L601 321Z"  horiz-adv-x="1229" vert-adv-y="2048"  />

      
      <glyph glyph-name="uni77" unicode="&#x77;" d="M833 339L927 1082L1182 1082L988 0L744 0L602 688L465 0L221 0L27 1082L281 1082L375 336L511 1082L697 1082L833 339Z"  horiz-adv-x="1229" vert-adv-y="2048"  />

      
      <glyph glyph-name="uni78" unicode="&#x78;" d="M636 744L874 1082L1173 1082L810 551L1186 0L886 0L637 354L390 0L89 0L465 551L103 1082L402 1082L636 744Z"  horiz-adv-x="1229" vert-adv-y="2048"  />

      
      <glyph glyph-name="uni79" unicode="&#x79;" d="M602 454L634 338L922 1082L1229 1082L680-162Q662-203 633.50-251Q605-299 562-340Q519-381 457.50-409Q396-437 312-437Q292-437 275-435.50Q258-434 242-431.50Q226-429 210.50-425.50Q195-422 177-417L211-205Q228-205 254.50-206.50Q281-208 297-208Q330-208 355.50-188Q381-168 399-144Q417-120 428-100Q439-80 443-80L510 46L52 1082L356 1082L602 454Z"  horiz-adv-x="1229" vert-adv-y="2048"  />

      
      <glyph glyph-name="uni7a" unicode="&#x7a;" d="M498 223L1135 223L1135 0L118 0L118 172L724 856L132 856L132 1082L1110 1082L1110 915L498 223Z"  horiz-adv-x="1229" vert-adv-y="2048"  />

      
      <glyph glyph-name="uni7b" unicode="&#x7b;" d="M940-360Q874-360 820-340Q766-320 723.50-286Q681-252 650.50-206Q620-160 599.50-108Q579-56 569.50-1.50Q560 53 560 106L560 269Q560 402 498 460Q436 518 309 518L309 718Q436 718 498 776Q560 834 560 969L560 1132Q560 1184 568.50 1239Q577 1294 596 1346Q615 1398 644.50 1443.50Q674 1489 716.50 1523Q759 1557 814.50 1577Q870 1597 940 1597L974 1440Q913 1442 880 1414.50Q847 1387 832 1342Q817 1297 814.50 1241.50Q812 1186 812 1132L812 969Q812 850 753.50 758Q695 666 572 618Q696 570 754 479Q812 388 812 269L812 106Q812 52 818.50-3.50Q825-59 843-104Q861-149 892.50-176.50Q924-204 974-202L940-360Z"  horiz-adv-x="1229" vert-adv-y="2048"  />

      
      <glyph glyph-name="uni7c" unicode="&#x7c;" d="M707-410L533-410L533 1456L707 1456L707-410Z"  horiz-adv-x="1229" vert-adv-y="2048"  />

      
      <glyph glyph-name="uni7d" unicode="&#x7d;" d="M332-202Q381-204 412.50-176.50Q444-149 462-104Q480-59 487-3.50Q494 52 494 106L494 269Q494 327 507.50 379Q521 431 549 476Q577 521 619.50 556.50Q662 592 721 617Q604 667 549 760Q494 853 494 969L494 1132Q494 1186 491.50 1241.50Q489 1297 474 1342Q459 1387 426 1414.50Q393 1442 332 1440L366 1597Q436 1597 491.50 1577Q547 1557 589 1523Q631 1489 661 1443.50Q691 1398 710 1346Q729 1294 737.50 1239Q746 1184 746 1132L746 969Q746 834 807.50 776Q869 718 997 718L997 518Q869 518 807.50 460Q746 402 746 269L746 106Q746 54 736-1Q726-56 706-108Q686-160 655-206Q624-252 582-286Q540-320 486-340Q432-360 366-360L332-202Z"  horiz-adv-x="1229" vert-adv-y="2048"  />

      
      <glyph glyph-name="uni7e" unicode="&#x7e;" d="M1144 752Q1144 671 1121.50 602Q1099 533 1058.50 483.50Q1018 434 961 406Q904 378 836 378Q792 378 753.50 386Q715 394 678 410.50Q641 427 605 452Q569 477 531 512Q482 552 437 574Q392 596 345 596Q318 596 293 582.50Q268 569 248.50 546.50Q229 524 217.50 495Q206 466 206 435L26 457Q26 538 48 605.50Q70 673 110.50 721.50Q151 770 207.50 797Q264 824 332 824Q419 824 492.50 790Q566 756 640 691Q689 649 733.50 628Q778 607 823 607Q850 607 874 621Q898 635 916 658Q934 681 945 710.50Q956 740 956 771L1144 752Z"  horiz-adv-x="1229" vert-adv-y="2048"  />

      
      <glyph glyph-name="unia1" unicode="&#xa1;" d="M514 565L767 565L783-380L497-380L514 565M807 947Q807 915 795.50 887Q784 859 762.50 839Q741 819 711 807.50Q681 796 644 796Q606 796 576 807.50Q546 819 525 839Q504 859 493 887Q482 915 482 947Q482 980 493 1008.50Q504 1037 525 1058Q546 1079 576 1091Q606 1103 644 1103Q681 1103 711 1091Q741 1079 762.50 1058Q784 1037 795.50 1008.50Q807 980 807 947Z"  horiz-adv-x="1229" vert-adv-y="2048"  />

      
      <glyph glyph-name="unia2" unicode="&#xa2;" d="M645 202Q686 202 723 214Q760 226 788 248Q816 270 831.50 301Q847 332 845 370L1107 370Q1109 296 1081 232Q1053 168 1003.50 117.50Q954 67 886.50 33.50Q819 0 742-13L742-245L542-245L542-12Q443 6 368 54Q293 102 243 173Q193 244 167.50 334Q142 424 142 525L142 555Q142 656 167.50 746Q193 836 243 907Q293 978 368 1026.50Q443 1075 542 1093L542 1318L742 1318L742 1095Q823 1082 891 1047.50Q959 1013 1007.50 959.50Q1056 906 1082.50 836Q1109 766 1107 682L845 682Q847 722 833 758Q819 794 792 820Q765 846 727 861.50Q689 877 644 877Q578 877 535 850Q492 823 466.50 778Q441 733 430.50 675Q420 617 420 555L420 525Q420 462 430 403.50Q440 345 465.50 300.50Q491 256 534.50 229Q578 202 645 202Z"  horiz-adv-x="1229" vert-adv-y="2048"  />

      
      <glyph glyph-name="unia3" unicode="&#xa3;" d="M560 585L566 431Q566 369 551.50 318Q537 267 503 226L1173 226L1173 0L118 0L118 226L207 226Q231 232 245.50 251.50Q260 271 268.50 298Q277 325 279.50 356.50Q282 388 282 418L277 585L115 585L115 806L270 806L263 1040Q263 1143 296 1224.50Q329 1306 389 1361.50Q449 1417 532.50 1446.50Q616 1476 716 1476Q823 1476 906 1446.50Q989 1417 1045.50 1363Q1102 1309 1131.50 1233Q1161 1157 1161 1064L892 1064Q892 1115 877.50 1150.50Q863 1186 838 1208Q813 1230 780.50 1239.50Q748 1249 712 1249Q676 1249 645 1235.50Q614 1222 591.50 1196Q569 1170 556 1130.50Q543 1091 543 1040L552 806L862 806L862 585L560 585Z"  horiz-adv-x="1229" vert-adv-y="2048"  />

      
      <glyph glyph-name="unia4" unicode="&#xa4;" d="M904 78Q843 30 769 5Q695-20 614-20Q533-20 459.50 5Q386 30 324 76L224-26L83 118L191 228Q156 288 137 359Q118 430 118 508Q118 591 139.50 665Q161 739 199 801L83 920L224 1064L338 947Q398 989 467.50 1011.50Q537 1034 614 1034Q691 1034 761 1011Q831 988 891 946L1007 1065L1149 920L1029 797Q1067 735 1087.50 662Q1108 589 1108 508Q1108 430 1089.50 360.50Q1071 291 1037 231L1149 118L1007-27L904 78M304 508Q304 436 328 374Q352 312 394 266.50Q436 221 492.50 194.50Q549 168 614 168Q678 168 734.50 194.50Q791 221 833 266.50Q875 312 899 374Q923 436 923 508Q923 580 899 641.50Q875 703 833 748Q791 793 734.50 819Q678 845 614 845Q549 845 492.50 819Q436 793 394 748Q352 703 328 641.50Q304 580 304 508Z"  horiz-adv-x="1229" vert-adv-y="2048"  />

      
      <glyph glyph-name="unia5" unicode="&#xa5;" d="M623 837L915 1456L1224 1456L841 742L1091 742L1091 576L760 576L760 452L1091 452L1091 287L760 287L760 0L479 0L479 287L136 287L136 452L479 452L479 576L136 576L136 742L405 742L21 1456L331 1456L623 837Z"  horiz-adv-x="1229" vert-adv-y="2048"  />

      
      <glyph glyph-name="unia6" unicode="&#xa6;" d="M488-270L488 525L741 525L741-270L488-270M741 698L488 698L488 1456L741 1456L741 698Z"  horiz-adv-x="1229" vert-adv-y="2048"  />

      
      <glyph glyph-name="unia7" unicode="&#xa7;" d="M1169 475Q1169 381 1127 313.50Q1085 246 1007 203Q1073 153 1107 84.50Q1141 16 1141-84Q1141-174 1104.50-243.50Q1068-313 1001-360.50Q934-408 839.50-432.50Q745-457 628-457Q527-457 429.50-436.50Q332-416 255.50-367.50Q179-319 132.50-238.50Q86-158 86-38L364-37Q364-96 387-133.50Q410-171 447.50-193Q485-215 532.50-223.50Q580-232 628-232Q743-232 803.50-192Q864-152 864-85Q864-52 850-26Q836 0 801.50 22.50Q767 45 709.50 66.50Q652 88 565 113Q453 143 365 178.50Q277 214 215.50 263Q154 312 121.50 378Q89 444 89 535Q89 627 131.50 695.50Q174 764 252 808Q186 859 151.50 927.50Q117 996 117 1096Q117 1182 153.50 1252.50Q190 1323 257.50 1372.50Q325 1422 420.50 1449Q516 1476 633 1476Q753 1476 849 1448Q945 1420 1011.50 1365.50Q1078 1311 1114 1231Q1150 1151 1150 1048L871 1048Q871 1091 856 1128Q841 1165 811 1192.50Q781 1220 736.50 1236Q692 1252 633 1252Q571 1252 526 1239.50Q481 1227 452 1206Q423 1185 409.50 1157Q396 1129 396 1098Q396 1060 408.50 1033Q421 1006 454 983.50Q487 961 544.50 941Q602 921 692 897Q806 867 895 831.50Q984 796 1045 747Q1106 698 1137.50 632Q1169 566 1169 475M594 663Q516 684 450 708Q406 687 386 648.50Q366 610 366 561Q366 521 378.50 492.50Q391 464 424 440Q457 416 514.50 394.50Q572 373 662 346Q701 335 737 324.50Q773 314 807 302Q850 325 873 363Q896 401 896 449Q896 485 881.50 513Q867 541 832 566Q797 591 739 614Q681 637 594 663Z"  horiz-adv-x="1229" vert-adv-y="2048"  />

      
      <glyph glyph-name="unia8" unicode="&#xa8;" d="M265 1365Q265 1391 275 1414Q285 1437 303 1454Q321 1471 346 1480.50Q371 1490 401 1490Q431 1490 456 1480.50Q481 1471 499 1454Q517 1437 527 1414Q537 1391 537 1365Q537 1339 527 1316Q517 1293 499 1276.50Q481 1260 456 1250.50Q431 1241 401 1241Q371 1241 346 1250.50Q321 1260 303 1276.50Q285 1293 275 1316Q265 1339 265 1365M745 1365Q745 1391 755 1414Q765 1437 783 1453.50Q801 1470 826 1479.50Q851 1489 881 1489Q911 1489 936 1479.50Q961 1470 979 1453.50Q997 1437 1007 1414Q1017 1391 1017 1365Q1017 1338 1007 1315Q997 1292 979 1275Q961 1258 936 1248.50Q911 1239 881 1239Q851 1239 826 1248.50Q801 1258 783 1275Q765 1292 755 1315Q745 1338 745 1365Z"  horiz-adv-x="1229" vert-adv-y="2048"  />

      
      <glyph glyph-name="unia9" unicode="&#xa9;" d="M862 442Q862 323 794.50 265Q727 207 611 207Q551 207 502.50 228Q454 249 420 287Q386 325 368 378Q350 431 350 496L350 586Q350 650 368 703.50Q386 757 420 795.50Q454 834 502.50 855.50Q551 877 611 877Q728 877 795.50 817.50Q863 758 863 640L746 640Q746 712 712 743.50Q678 775 611 775Q575 775 548 761Q521 747 502.50 722Q484 697 475 662.50Q466 628 466 587L466 496Q466 454 475 419.50Q484 385 502.50 360.50Q521 336 548 322Q575 308 611 308Q678 308 711.50 338Q745 368 745 442L862 442M180 542Q180 443 214.50 357Q249 271 309 207.50Q369 144 449.50 108Q530 72 622 72Q713 72 793 108Q873 144 933 207.50Q993 271 1027.50 357Q1062 443 1062 542Q1062 641 1027.50 726Q993 811 933 874Q873 937 793 972.50Q713 1008 622 1008Q530 1008 449.50 972.50Q369 937 309 874Q249 811 214.50 726Q180 641 180 542M89 542Q89 660 131 762.50Q173 865 245.50 940.50Q318 1016 415 1059Q512 1102 622 1102Q732 1102 829 1059Q926 1016 998 940.50Q1070 865 1112 762.50Q1154 660 1154 542Q1154 423 1112 320.50Q1070 218 998 142Q926 66 829 23Q732-20 622-20Q512-20 415 23Q318 66 245.50 142Q173 218 131 320.50Q89 423 89 542Z"  horiz-adv-x="1229" vert-adv-y="2048"  />

      
      <glyph glyph-name="uniaa" unicode="&#xaa;" d="M765 705Q750 748 744 799Q730 778 709.50 758.50Q689 739 661.50 724Q634 709 599 700Q564 691 522 691Q462 691 415.50 707Q369 723 337.50 753Q306 783 289.50 825Q273 867 273 919Q273 1030 356.50 1090Q440 1150 604 1150L741 1150L741 1201Q741 1263 712.50 1295.50Q684 1328 625 1328Q560 1328 523.50 1302.50Q487 1277 487 1229L314 1243Q314 1294 336 1336.50Q358 1379 399 1410Q440 1441 497 1458.50Q554 1476 625 1476Q690 1476 743.50 1458.50Q797 1441 835.50 1406.50Q874 1372 895 1320.50Q916 1269 916 1200L916 886Q916 837 922 793Q928 749 942 705L765 705M565 835Q591 835 619 843.50Q647 852 671.50 865.50Q696 879 714.50 896Q733 913 741 930L741 1033L605 1033Q566 1033 537 1024Q508 1015 488 1000Q468 985 458 965Q448 945 448 923Q448 881 476.50 858Q505 835 565 835Z"  horiz-adv-x="1229" vert-adv-y="2048"  />

      
      <glyph glyph-name="uniab" unicode="&#xab;" d="M408 492L650 93L469 93L187 483L187 502L469 892L650 892L408 492M787 492L1029 93L848 93L566 483L566 502L848 892L1029 892L787 492Z"  horiz-adv-x="1229" vert-adv-y="2048"  />

      
      <glyph glyph-name="uniac" unicode="&#xac;" d="M1020 374L820 374L820 634L185 634L185 805L1020 805L1020 374Z"  horiz-adv-x="1229" vert-adv-y="2048"  />

      
      <glyph glyph-name="uniae" unicode="&#xae;" d="M88 541Q88 660 130 762.50Q172 865 244 940.50Q316 1016 413 1059Q510 1102 620 1102Q730 1102 827 1059Q924 1016 996 940.50Q1068 865 1110 762.50Q1152 660 1152 541Q1152 422 1110 319.50Q1068 217 996 141Q924 65 827 22Q730-21 620-21Q510-21 413 22Q316 65 244 141Q172 217 130 319.50Q88 422 88 541M179 541Q179 442 213.50 356.50Q248 271 308 208Q368 145 448.50 109Q529 73 620 73Q711 73 791.50 109Q872 145 932 208Q992 271 1026.50 356.50Q1061 442 1061 541Q1061 640 1026.50 725.50Q992 811 932 874Q872 937 791.50 972.50Q711 1008 620 1008Q529 1008 448.50 972.50Q368 937 308 874Q248 811 213.50 725.50Q179 640 179 541M512 484L512 232L399 232L399 869L610 869Q721 869 787.50 821Q854 773 854 676Q854 620 819 581Q784 542 718 519L864 232L748 232L631 484L512 484M512 585L626 585Q648 585 669 591Q690 597 706 608Q722 619 731.50 635Q741 651 741 672Q741 727 712 748Q683 769 610 769L512 769L512 585Z"  horiz-adv-x="1229" vert-adv-y="2048"  />

      
      <glyph glyph-name="uniaf" unicode="&#xaf;" d="M1003 1292L273 1292L273 1456L1003 1456L1003 1292Z"  horiz-adv-x="1229" vert-adv-y="2048"  />

      
      <glyph glyph-name="uni02C9" unicode="&#x02C9;" d="M1003 1292L273 1292L273 1456L1003 1456L1003 1292Z"  horiz-adv-x="1229" vert-adv-y="2048"  />

      
      <glyph glyph-name="unib0" unicode="&#xb0;" d="M357 1202Q357 1258 378.50 1307.50Q400 1357 437 1394.50Q474 1432 523 1454Q572 1476 628 1476Q682 1476 730.50 1454Q779 1432 815 1394.50Q851 1357 872 1307.50Q893 1258 893 1202Q893 1145 872 1096Q851 1047 815 1010Q779 973 730.50 952Q682 931 628 931Q572 931 523 952Q474 973 437 1010Q400 1047 378.50 1096Q357 1145 357 1202M502 1202Q502 1175 512 1152.50Q522 1130 539.50 1113.50Q557 1097 579.50 1087.50Q602 1078 628 1078Q653 1078 675.50 1087Q698 1096 714 1112.50Q730 1129 739.50 1152Q749 1175 749 1202Q749 1229 739.50 1252.50Q730 1276 714 1293.50Q698 1311 675.50 1320.50Q653 1330 628 1330Q602 1330 579.50 1320.50Q557 1311 539.50 1293.50Q522 1276 512 1252.50Q502 1229 502 1202Z"  horiz-adv-x="1229" vert-adv-y="2048"  />

      
      <glyph glyph-name="unib1" unicode="&#xb1;" d="M732 933L1063 933L1063 701L732 701L732 331L487 331L487 701L147 701L147 933L487 933L487 1284L732 1284L732 933M1031 0L171 0L171 227L1031 227L1031 0Z"  horiz-adv-x="1229" vert-adv-y="2048"  />

      
      <glyph glyph-name="unib2" unicode="&#xb2;" d="M934 667L316 667L316 801L603 1060Q660 1110 684.50 1152.50Q709 1195 709 1219Q709 1258 684.50 1282Q660 1306 612 1306Q555 1306 527 1272.50Q499 1239 499 1194L298 1194Q298 1250 319 1299.50Q340 1349 380 1386.50Q420 1424 476 1445.50Q532 1467 603 1467Q750 1467 830.50 1402.50Q911 1338 911 1220Q911 1176 897.50 1140Q884 1104 857 1069Q830 1034 790 998Q750 962 696 919L579 826L934 826L934 667Z"  horiz-adv-x="1229" vert-adv-y="2048"  />

      
      <glyph glyph-name="unib3" unicode="&#xb3;" d="M515 1135L603 1135Q663 1135 691 1159.50Q719 1184 719 1225Q719 1240 713 1254Q707 1268 694.50 1279.50Q682 1291 661.50 1298Q641 1305 611 1305Q567 1305 537 1288Q507 1271 507 1241L306 1241Q306 1296 330.50 1338Q355 1380 396 1408.50Q437 1437 491 1451.50Q545 1466 605 1466Q675 1466 733 1451.50Q791 1437 832 1408.50Q873 1380 896 1337.50Q919 1295 919 1240Q919 1179 883 1136Q847 1093 784 1070Q855 1051 894.50 1007.50Q934 964 934 887Q934 831 909 788Q884 745 839.50 715.50Q795 686 735 670.50Q675 655 605 655Q549 655 493.50 668Q438 681 393.50 710.50Q349 740 321 786.50Q293 833 293 900L495 900Q495 866 527.50 840.50Q560 815 617 815Q678 815 705 842Q732 869 732 905Q732 958 698 979Q664 1000 603 1000L515 1000L515 1135Z"  horiz-adv-x="1229" vert-adv-y="2048"  />

      
      <glyph glyph-name="unib4" unicode="&#xb4;" d="M569 1478L875 1478L598 1199L382 1199L569 1478Z"  horiz-adv-x="1229" vert-adv-y="2048"  />

      
      <glyph glyph-name="unib5" unicode="&#xb5;" d="M450 1082L450 462Q450 382 463.50 332Q477 282 501.50 253.50Q526 225 560 215Q594 205 635 205Q716 205 766.50 233.50Q817 262 844 313L844 1082L1123 1082L1123 0L864 0L858 72Q815 27 758.50 3Q702-21 630-21Q523-21 450 27L450-416L172-416L172 1082L450 1082Z"  horiz-adv-x="1229" vert-adv-y="2048"  />

      
      <glyph glyph-name="unib6" unicode="&#xb6;" d="M791 0L791 520L708 520Q589 520 497 555Q405 590 342.50 652.50Q280 715 248 801Q216 887 216 988Q216 1088 248 1174Q280 1260 342.50 1322.50Q405 1385 497 1420.50Q589 1456 708 1456L1007 1456L1007 0L791 0Z"  horiz-adv-x="1229" vert-adv-y="2048"  />

      
      <glyph glyph-name="unib7" unicode="&#xb7;" d="M494 701Q494 733 505 760.50Q516 788 536.50 808Q557 828 586.50 839.50Q616 851 652 851Q688 851 717.50 839.50Q747 828 767.50 808Q788 788 799 760.50Q810 733 810 701Q810 669 799 642Q788 615 767.50 595Q747 575 717.50 563.50Q688 552 652 552Q616 552 586.50 563.50Q557 575 536.50 595Q516 615 505 642Q494 669 494 701Z"  horiz-adv-x="1229" vert-adv-y="2048"  />

      
      <glyph glyph-name="unib8" unicode="&#xb8;" d="M676 5L665-51Q693-56 720-67.50Q747-79 768-99.50Q789-120 802-150.50Q815-181 815-224Q815-277 793-320Q771-363 727.50-393.50Q684-424 620-441Q556-458 471-458L464-298Q515-298 549-279Q583-260 583-215Q583-173 548.50-157Q514-141 438-136L469 5L676 5Z"  horiz-adv-x="1229" vert-adv-y="2048"  />

      
      <glyph glyph-name="unib9" unicode="&#xb9;" d="M784 659L585 659L585 1212L394 1169L394 1325L765 1445L784 1445L784 659Z"  horiz-adv-x="1229" vert-adv-y="2048"  />

      
      <glyph glyph-name="uniba" unicode="&#xba;" d="M266 1141Q266 1214 290 1275.50Q314 1337 359 1381.50Q404 1426 468 1451Q532 1476 612 1476Q693 1476 757 1451Q821 1426 866 1381.50Q911 1337 935 1275.50Q959 1214 959 1141L959 1024Q959 951 935 889.50Q911 828 866.50 784Q822 740 758 715Q694 690 614 690Q534 690 469.50 715Q405 740 360 784Q315 828 290.50 889.50Q266 951 266 1024L266 1141M441 1024Q441 983 451.50 949Q462 915 483.50 889.50Q505 864 537.50 850Q570 836 614 836Q657 836 689 850Q721 864 742 889.50Q763 915 773.50 949Q784 983 784 1024L784 1141Q784 1181 773.50 1215Q763 1249 741.50 1274Q720 1299 687.50 1313.50Q655 1328 612 1328Q569 1328 537 1313.50Q505 1299 483.50 1274Q462 1249 451.50 1215Q441 1181 441 1141L441 1024Z"  horiz-adv-x="1229" vert-adv-y="2048"  />

      
      <glyph glyph-name="unibb" unicode="&#xbb;" d="M408 926L691 536L691 517L408 127L227 127L468 526L227 926L408 926M785 926L1068 536L1068 517L785 127L604 127L845 526L604 926L785 926Z"  horiz-adv-x="1229" vert-adv-y="2048"  />

      
      <glyph glyph-name="unibc" unicode="&#xbc;" d="M416.42 751L237.31 751L237.31 1248.71L65.41 1210.01L65.41 1350.42L399.32 1458.42L416.42 1458.42L416.42 751M425 235L294 302L805 1240L936 1173L425 235M1087.92 290.71L1169.82 290.71L1169.82 144.00L1087.92 144.00L1087.92 0L906.12 0L906.12 144.00L594.71 144.00L584.81 261.91L906.12 708.32L906.12 710.12L1087.92 710.12L1087.92 290.71M757.61 290.71L906.12 290.71L906.12 484.21L895.32 467.11L757.61 290.71Z"  horiz-adv-x="1229" vert-adv-y="2048"  />

      
      <glyph glyph-name="unibd" unicode="&#xbd;" d="M356 235L225 302L736 1240L867 1173L356 235M375.42 752L196.31 752L196.31 1249.71L24.41 1211.01L24.41 1351.42L358.32 1459.42L375.42 1459.42L375.42 752M1206.72 0L650.51 0L650.51 120.60L908.81 353.71Q960.12 398.71 982.17 436.96Q1004.22 475.21 1004.22 496.81Q1004.22 531.91 982.17 553.52Q960.12 575.12 916.91 575.12Q865.61 575.12 840.41 544.96Q815.21 514.81 815.21 474.31L634.31 474.31Q634.31 524.71 653.21 569.27Q672.11 613.82 708.11 647.57Q744.11 681.32 794.51 700.67Q844.91 720.02 908.81 720.02Q1041.12 720.02 1113.57 661.97Q1186.02 603.92 1186.02 497.71Q1186.02 458.11 1173.87 425.71Q1161.72 393.31 1137.42 361.81Q1113.12 330.31 1077.12 297.91Q1041.12 265.51 992.52 226.81L887.21 143.10L1206.72 143.10L1206.72 0Z"  horiz-adv-x="1229" vert-adv-y="2048"  />

      
      <glyph glyph-name="unibe" unicode="&#xbe;" d="M509 235L378 302L889 1240L1020 1173L509 235M1135.92 290.71L1217.82 290.71L1217.82 144.00L1135.92 144.00L1135.92 0L954.12 0L954.12 144.00L642.71 144.00L632.81 261.91L954.12 708.32L954.12 710.12L1135.92 710.12L1135.92 290.71M805.61 290.71L954.12 290.71L954.12 484.21L943.32 467.11L805.61 290.71M233.01 1166.11L312.21 1166.11Q366.22 1166.11 391.42 1188.16Q416.62 1210.21 416.62 1247.11Q416.62 1260.61 411.22 1273.21Q405.82 1285.81 394.57 1296.16Q383.32 1306.52 364.87 1312.82Q346.42 1319.12 319.42 1319.12Q279.81 1319.12 252.81 1303.82Q225.81 1288.51 225.81 1261.51L44.91 1261.51Q44.91 1311.02 66.96 1348.82Q89.01 1386.62 125.91 1412.27Q162.81 1437.92 211.41 1450.97Q260.01 1464.02 314.01 1464.02Q377.02 1464.02 429.22 1450.97Q481.42 1437.92 518.32 1412.27Q555.22 1386.62 575.92 1348.37Q596.62 1310.12 596.62 1260.61Q596.62 1205.71 564.22 1167.01Q531.82 1128.31 475.12 1107.61Q539.02 1090.51 574.57 1051.36Q610.12 1012.21 610.12 942.91Q610.12 892.50 587.62 853.80Q565.12 815.10 525.07 788.55Q485.02 762.00 431.02 748.05Q377.02 734.10 314.01 734.10Q263.61 734.10 213.66 745.80Q163.71 757.50 123.66 784.05Q83.61 810.60 58.41 852.45Q33.21 894.30 33.21 954.61L215.01 954.61Q215.01 924.00 244.26 901.05Q273.51 878.10 324.82 878.10Q379.72 878.10 404.02 902.40Q428.32 926.70 428.32 959.11Q428.32 1006.81 397.72 1025.71Q367.12 1044.61 312.21 1044.61L233.01 1044.61L233.01 1166.11Z"  horiz-adv-x="1229" vert-adv-y="2048"  />

      
      <glyph glyph-name="unibf" unicode="&#xbf;" d="M791 639Q791 571 788.50 522.50Q786 474 774 436.50Q762 399 736.50 367Q711 335 663 299Q631 266 598.50 230.50Q566 195 540 157.50Q514 120 497.50 80.50Q481 41 481-1Q481-84 524-124.50Q567-165 642-165Q677-165 708.50-155.50Q740-146 764-126Q788-106 802.50-74Q817-42 818 3L1097 3Q1095-98 1060-172.50Q1025-247 965-296Q905-345 823-369Q741-393 647-393Q542-393 459.50-367.50Q377-342 320-292.50Q263-243 232.50-170Q202-97 202-2Q202 68 225 127Q248 186 285.50 237.50Q323 289 370 335Q417 381 464 425Q495 454 510.50 476Q526 498 533 521Q540 544 540.50 571.50Q541 599 542 639L791 639M538 942Q538 970 544.50 994.50Q551 1019 566 1037Q581 1055 606.50 1065.50Q632 1076 670 1076Q708 1076 734 1065.50Q760 1055 775.50 1037Q791 1019 798 994.50Q805 970 805 942Q805 916 798 893.50Q791 871 775.50 854Q760 837 734 827Q708 817 670 817Q632 817 606.50 827Q581 837 566 854Q551 871 544.50 893.50Q538 916 538 942Z"  horiz-adv-x="1229" vert-adv-y="2048"  />

      
      <glyph glyph-name="unic6" unicode="&#xc6;" d="M1177 0L641 0L641 334L424 334L330 0L48 0L527 1456L1156 1456L1156 1228L908 1228L908 862L1125 862L1125 635L908 635L908 226L1177 226L1177 0M641 574L641 1106L491 574L641 574Z"  horiz-adv-x="1229" vert-adv-y="2048"  />

      
      <glyph glyph-name="unid7" unicode="&#xd7;" d="M157 371L466 686L157 1001L322 1165L629 852L936 1165L1101 1001L792 686L1101 371L936 207L629 520L322 207L157 371Z"  horiz-adv-x="1229" vert-adv-y="2048"  />

      
      <glyph glyph-name="unid8" unicode="&#xd8;" d="M1152 621Q1152 481 1115 363Q1078 245 1008 160Q938 75 837.50 27.50Q737-20 611-20Q525-20 453 1.50Q381 23 322 65L231-95L48-95L205 183Q145 268 115 378.50Q85 489 85 621L85 833Q85 973 120 1091Q155 1209 222 1294.50Q289 1380 386.50 1428Q484 1476 610 1476Q691 1476 761.50 1456Q832 1436 891 1398L959 1518L1143 1518L1013 1288Q1081 1202 1116.50 1086.50Q1152 971 1152 833L1152 621M867 835Q866 880 862.50 922Q859 964 851 1002L447 287Q476 251 516 231Q556 211 611 211Q679 211 727.50 242Q776 273 806.50 327.50Q837 382 852 457Q867 532 867 621L867 835M370 621Q370 586 372 553Q374 520 378 489L768 1180Q738 1210 699 1226.50Q660 1243 610 1243Q542 1243 496 1212.50Q450 1182 422 1128Q394 1074 382 999Q370 924 370 835L370 621Z"  horiz-adv-x="1229" vert-adv-y="2048"  />

      
      <glyph glyph-name="unide" unicode="&#xde;" d="M415 1456L415 1185L642 1185Q771 1185 870 1151.50Q969 1118 1036.50 1059Q1104 1000 1139 917.50Q1174 835 1174 738Q1174 640 1139 557.50Q1104 475 1036.50 415.50Q969 356 870 322.50Q771 289 642 289L415 289L415 0L136 0L136 1456L415 1456M415 961L415 513L642 513Q710 513 758 531.50Q806 550 836.50 581Q867 612 881 652.50Q895 693 895 736Q895 779 881 820Q867 861 836.50 892Q806 923 758 942Q710 961 642 961L415 961Z"  horiz-adv-x="1229" vert-adv-y="2048"  />

      
      <glyph glyph-name="unidf" unicode="&#xdf;" d="M439 0L162 0L162 1076Q162 1194 196.50 1285Q231 1376 292.50 1437.50Q354 1499 439.50 1530.50Q525 1562 627 1562Q706 1562 778 1539.50Q850 1517 904.50 1471Q959 1425 991.50 1356.50Q1024 1288 1024 1196Q1024 1146 1016 1110Q1008 1074 995.50 1046.50Q983 1019 969 996.50Q955 974 942.50 950Q930 926 922 898Q914 870 914 832Q914 797 934 765Q954 733 983.50 700.50Q1013 668 1047.50 632.50Q1082 597 1111.50 555.50Q1141 514 1161 463.50Q1181 413 1181 350Q1181 261 1154.50 191.50Q1128 122 1077 75Q1026 28 951.50 3.50Q877-21 782-21Q743-21 702-17Q661-13 623-5.50Q585 2 553 12.50Q521 23 500 37L554 258Q570 249 593 239Q616 229 644.50 221Q673 213 706 207.50Q739 202 774 202Q835 202 869 240.50Q903 279 903 344Q903 385 883 418.50Q863 452 833.50 483.50Q804 515 769.50 547.50Q735 580 705.50 619Q676 658 656 707Q636 756 636 821Q636 865 644.50 898Q653 931 665.50 958Q678 985 693 1008.50Q708 1032 720.50 1057.50Q733 1083 741.50 1112Q750 1141 750 1180Q750 1217 737.50 1246.50Q725 1276 705 1296.50Q685 1317 660 1328Q635 1339 610 1339Q575 1339 543.50 1323.50Q512 1308 489 1275.50Q466 1243 452.50 1192.50Q439 1142 439 1072L439 0Z"  horiz-adv-x="1229" vert-adv-y="2048"  />

      
      <glyph glyph-name="unie6" unicode="&#xe6;" d="M868-20Q778-20 710.50 11Q643 42 598 99Q580 75 556.50 53Q533 31 503.50 15Q474-1 439.50-10.50Q405-20 364-20Q287-20 228 2.50Q169 25 128.50 66Q88 107 67 166Q46 225 46 297Q46 466 160 557Q274 648 497 648L500 648L500 767Q500 820 481.50 848.50Q463 877 422 877Q375 877 352.50 853.50Q330 830 330 776L69 785Q69 857 92.50 916Q116 975 160 1016Q204 1057 266.50 1079.50Q329 1102 408 1102Q553 1102 640 1027Q682 1063 738.50 1083Q795 1103 867 1102Q941 1102 1001.50 1074Q1062 1046 1104.50 994Q1147 942 1170.50 867Q1194 792 1194 699L1194 454L743 454L743 363Q743 327 752 297.50Q761 268 782 247Q803 226 836 214.50Q869 203 917 203Q951 203 978 207.50Q1005 212 1027.50 218.50Q1050 225 1070 234Q1090 243 1111 252L1166 60Q1146 44 1115.50 29.50Q1085 15 1046.50 4Q1008-7 963-13.50Q918-20 868-20M743 643L938 643L938 755Q938 812 916.50 844.50Q895 877 847 877Q813 877 792.50 864Q772 851 761 828Q750 805 746.50 773Q743 741 743 704L743 643M434 185Q451 185 468 192Q485 199 500 211L500 464L499 464Q456 464 423.50 450Q391 436 368.50 412.50Q346 389 334.50 358Q323 327 323 293Q323 244 350.50 214.50Q378 185 434 185Z"  horiz-adv-x="1229" vert-adv-y="2048"  />

      
      <glyph glyph-name="unif0" unicode="&#xf0;" d="M899 1264Q994 1149 1047.50 994Q1101 839 1101 647L1101 579Q1101 444 1059.50 333Q1018 222 945 143.50Q872 65 772.50 22Q673-21 558-21Q442-21 346 17Q250 55 181.50 121.50Q113 188 75.50 277Q38 366 38 468Q38 580 72.50 672Q107 764 170.50 829.50Q234 895 325 931Q416 967 530 967Q605 967 672.50 944Q740 921 794 879Q773 958 739 1021Q705 1084 661 1133L419 1000L341 1112L552 1229Q519 1251 484 1268Q449 1285 414 1298L502 1515Q669 1473 799 1365L998 1475L1076 1362L899 1264M822 661Q806 680 780.50 697Q755 714 720.50 727Q686 740 642 747.50Q598 755 544 755Q490 755 448 731Q406 707 376.50 667.50Q347 628 331.50 576Q316 524 316 468Q316 414 332.50 366Q349 318 380.50 281.50Q412 245 457.50 223.50Q503 202 562 202Q622 202 670.50 228.50Q719 255 752.50 301.50Q786 348 804 412.50Q822 477 822 554L822 649L822 661Z"  horiz-adv-x="1229" vert-adv-y="2048"  />

      
      <glyph glyph-name="unif7" unicode="&#xf7;" d="M1132 573L108 573L108 800L1132 800L1132 573M465 1089Q465 1150 506 1190Q547 1230 617 1230Q688 1230 729 1190Q770 1150 770 1089Q770 1028 729 988Q688 948 617 948Q547 948 506 988Q465 1028 465 1089M463 278Q463 308 473.50 334Q484 360 504 379Q524 398 552 409Q580 420 615 420Q686 420 727 379.50Q768 339 768 278Q768 217 727 177Q686 137 615 137Q545 137 504 177Q463 217 463 278Z"  horiz-adv-x="1229" vert-adv-y="2048"  />

      
      <glyph glyph-name="unif8" unicode="&#xf8;" d="M103 551Q103 669 137 769.50Q171 870 236.50 944Q302 1018 396.50 1060Q491 1102 613 1102Q717 1102 804 1070L875 1215L1032 1215L928 1002Q1024 928 1074 811.50Q1124 695 1124 551L1124 530Q1124 411 1090 310.50Q1056 210 991 136Q926 62 831 20.50Q736-21 615-21Q521-21 440 5L369-141L212-141L314 67Q211 139 157 259.50Q103 380 103 530L103 551M381 530Q381 464 392.50 406.50Q404 349 430 305L701 860Q662 877 613 877Q551 877 507 851Q463 825 435 780Q407 735 394 676Q381 617 381 551L381 530M845 551Q845 608 835.50 659.50Q826 711 806 753L542 213Q577 202 615 202Q676 202 720 228Q764 254 791.50 298.50Q819 343 832 402.50Q845 462 845 530L845 551Z"  horiz-adv-x="1229" vert-adv-y="2048"  />

      
      <glyph glyph-name="unife" unicode="&#xfe;" d="M1113 531Q1113 413 1085.50 312Q1058 211 1004.50 137.50Q951 64 872.50 22Q794-20 692-20Q604-20 538 10Q472 40 423 95L423-416L145-416L145 1543L423 1543L423 987Q472 1042 537.50 1072Q603 1102 690 1102Q793 1102 872 1062.50Q951 1023 1004.50 950.50Q1058 878 1085.50 776.50Q1113 675 1113 552L1113 531M835 552Q835 620 822.50 679.50Q810 739 784 782.50Q758 826 716 851Q674 876 616 876Q543 876 496 847.50Q449 819 423 766L423 316Q449 264 496 233.50Q543 203 618 203Q677 203 718.50 229Q760 255 786 300Q812 345 823.50 404.50Q835 464 835 531L835 552Z"  horiz-adv-x="1229" vert-adv-y="2048"  />

      
      <glyph glyph-name="uni0126" unicode="&#x0126;" d="M1041 1218L1240 1218L1240 1047L1041 1047L1041 0L763 0L763 631L351 631L351 0L72 0L72 1047L23 1047L23 1218L72 1218L72 1456L351 1456L351 1218L763 1218L763 1456L1041 1456L1041 1218M351 859L763 859L763 1047L351 1047L351 859Z"  horiz-adv-x="1229" vert-adv-y="2048"  />

      
      <glyph glyph-name="uni0131" unicode="&#x0131;" d="M199 1082L804 1082L804 226L1114 226L1114 0L199 0L199 226L523 226L523 855L199 855L199 1082Z"  horiz-adv-x="1229" vert-adv-y="2048"  />

      
      <glyph glyph-name="uni0132" unicode="&#x0132;" d="M326 0L126 0L126 1456L326 1456L326 0M902 1456L1102 1456L1102 322Q1102 242 1081.50 178.50Q1061 115 1018.50 71Q976 27 911.50 4Q847-19 760-19Q688-19 627 1.50Q566 22 521.50 64Q477 106 452.50 170Q428 234 428 321L628 321Q628 227 664 184Q700 141 760 141Q801 141 828.50 153.50Q856 166 872.50 189.50Q889 213 895.50 246.50Q902 280 902 322L902 1456Z"  horiz-adv-x="1229" vert-adv-y="2048"  />

      
      <glyph glyph-name="uni0133" unicode="&#x0133;" d="M688 1082L1104 1082L1104-6Q1104-110 1075.50-190Q1047-270 992-324Q937-378 858-406Q779-434 678-434Q621-434 571-430.50Q521-427 466-417L480-250Q497-253 522.50-255.50Q548-258 575-259.50Q602-261 626-261.50Q650-262 664-262Q714-262 758-250Q802-238 834.50-208.50Q867-179 885.50-130Q904-81 904-6L904 912L688 912L688 1082M81 1082L510 1082L510 170L735 170L735 0L75 0L75 170L310 170L310 912L81 912L81 1082M297 1360Q297 1407 326 1439Q355 1471 412 1471Q469 1471 498.50 1439Q528 1407 528 1360Q528 1314 498.50 1282.50Q469 1251 412 1251Q355 1251 326 1282.50Q297 1314 297 1360M880 1361Q880 1408 909 1440Q938 1472 995 1472Q1052 1472 1081.50 1440Q1111 1408 1111 1361Q1111 1315 1081.50 1283.50Q1052 1252 995 1252Q938 1252 909 1283.50Q880 1315 880 1361Z"  horiz-adv-x="1229" vert-adv-y="2048"  />

      
      <glyph glyph-name="uni0138" unicode="&#x0138;" d="M604 427L437 286L437 0L159 0L159 1082L437 1082L437 608L544 735L839 1082L1188 1082L802 634L1207 0L851 0L604 427Z"  horiz-adv-x="1229" vert-adv-y="2048"  />

      
      <glyph glyph-name="uni0141" unicode="&#x0141;" d="M461 886L693 954L693 759L461 691L461 227L1143 227L1143 0L179 0L179 609L51 572L51 767L179 804L179 1456L461 1456L461 886Z"  horiz-adv-x="1229" vert-adv-y="2048"  />

      
      <glyph glyph-name="uni0142" unicode="&#x0142;" d="M818 1019L1099 1144L1099 949L818 824L818 226L1128 226L1128 0L213 0L213 226L537 226L537 700L225 562L225 757L537 895L537 1309L213 1309L213 1536L818 1536L818 1019Z"  horiz-adv-x="1229" vert-adv-y="2048"  />

      
      <glyph glyph-name="uni014A" unicode="&#x014A;" d="M1095 1456L1095-39Q1095-135 1069-209.50Q1043-284 994.50-334.50Q946-385 876.50-411Q807-437 719-437Q681-437 649-433.50Q617-430 579-420L593-198Q615-204 640.50-206.50Q666-209 692-209Q750-209 782-165.50Q814-122 814-39L814 0L429 881L429 0L148 0L148 1456L429 1456L814 574L814 1456L1095 1456Z"  horiz-adv-x="1229" vert-adv-y="2048"  />

      
      <glyph glyph-name="uni014B" unicode="&#x014B;" d="M407 1082L420 930Q473 1011 551 1056.50Q629 1102 729 1102Q808 1102 872.50 1078Q937 1054 983 1001.50Q1029 949 1054.50 865.50Q1080 782 1080 663L1080-40Q1080-136 1054-210.50Q1028-285 979.50-335Q931-385 861.50-411Q792-437 705-437Q668-437 635.50-433.50Q603-430 566-420L580-196Q602-202 628-205Q654-208 680-208Q737-208 768.50-166Q800-124 800-40L800 662Q800 722 788.50 763Q777 804 755.50 829Q734 854 702 865Q670 876 628 876Q559 876 509 851.50Q459 827 427 784L427 0L149 0L149 1082L407 1082Z"  horiz-adv-x="1229" vert-adv-y="2048"  />

      
      <glyph glyph-name="uni0152" unicode="&#x0152;" d="M1190 0L769 0Q706-8 639-14.50Q572-21 501-21Q408-21 329 10Q250 41 192.50 105Q135 169 103 266.50Q71 364 71 496L71 960Q71 1092 103 1189.50Q135 1287 192 1351Q249 1415 327.50 1446Q406 1477 499 1477Q570 1477 638 1470.50Q706 1464 769 1456L1179 1456L1179 1239L832 1239L832 865L1128 865L1128 648L832 648L832 232L1190 232L1190 0M501 211Q547 211 592 214L592 1256Q569 1258 545.50 1259Q522 1260 499 1260Q455 1260 420.50 1246.50Q386 1233 362 1199Q338 1165 325 1107.50Q312 1050 312 962L312 496Q312 412 325 356.50Q338 301 362.50 269Q387 237 422 224Q457 211 501 211Z"  horiz-adv-x="1229" vert-adv-y="2048"  />

      
      <glyph glyph-name="uni0153" unicode="&#x0153;" d="M38 641Q38 749 62 834.50Q86 920 132.50 979.50Q179 1039 247 1070.50Q315 1102 402 1102Q473 1102 530 1079.50Q587 1057 631 1015Q672 1058 726 1080.50Q780 1103 847 1102Q927 1102 990 1071Q1053 1040 1096.50 984Q1140 928 1162.50 848.50Q1185 769 1185 672L1185 454L765 454L765 420Q765 315 805 259Q845 203 933 203Q959 203 979 206Q999 209 1016 214.50Q1033 220 1048.50 227.50Q1064 235 1081 244L1141 64Q1104 29 1045 4.50Q986-20 906-20Q742-20 641 75Q597 28 538 4Q479-20 404-20Q316-20 248 11Q180 42 133.50 101Q87 160 62.50 245.50Q38 331 38 440L38 641M299 440Q299 324 320.50 263.50Q342 203 404 203Q465 203 486.50 263Q508 323 508 440L508 641Q508 697 503 741Q498 785 486 815Q474 845 453.50 861Q433 877 402 877Q372 877 352.50 861Q333 845 321 815Q309 785 304 741Q299 697 299 641L299 440M847 877Q818 877 802 861.50Q786 846 777.50 817Q769 788 767 745Q765 702 765 647L928 647L928 732Q928 799 909.50 838Q891 877 847 877Z"  horiz-adv-x="1229" vert-adv-y="2048"  />

      
      <glyph glyph-name="uni017F" unicode="&#x017F;" d="M412 0L412 1101Q412 1218 446 1307.50Q480 1397 543.50 1457.50Q607 1518 698 1549.50Q789 1581 903 1581Q944 1581 982.50 1575Q1021 1569 1061 1560L1037 1345Q1016 1350 994.50 1353Q973 1356 941 1356Q818 1356 753.50 1288Q689 1220 689 1101L689 0L412 0Z"  horiz-adv-x="1229" vert-adv-y="2048"  />

      
      <glyph glyph-name="uni0192" unicode="&#x0192;" d="M945 877L739 877L739-13Q739-116 711.50-195Q684-274 632.50-328Q581-382 506.50-409.50Q432-437 338-437Q290-437 243-429Q196-421 148-400L163-179Q173-187 192.50-193Q212-199 233-203Q254-207 274-209.50Q294-212 306-212Q388-212 424-160.50Q460-109 460-13L460 877L299 877L299 1082L460 1082L460 1161Q460 1263 492.50 1341.50Q525 1420 586 1473Q647 1526 734.50 1553.50Q822 1581 933 1581Q984 1581 1031.50 1569Q1079 1557 1130 1540L1106 1324Q1078 1338 1044.50 1346Q1011 1354 967 1354Q852 1354 795.50 1304.50Q739 1255 739 1161L739 1082L945 1082L945 877Z"  horiz-adv-x="1229" vert-adv-y="2048"  />

      
      <glyph glyph-name="uni01A0" unicode="&#x01A0;" d="M1160 621Q1160 481 1123 363Q1086 245 1016 160Q946 75 845.50 27.50Q745-20 619-20Q493-20 395 27.50Q297 75 230 160.50Q163 246 128 363.50Q93 481 93 621L93 833Q93 973 128 1091Q163 1209 230 1294.50Q297 1380 394.50 1428Q492 1476 618 1476Q740 1476 837 1432Q934 1388 1004 1308Q1030 1335 1042 1384.50Q1054 1434 1054 1503L1248 1503Q1248 1378 1209 1292.50Q1170 1207 1095 1164Q1160 1020 1160 833L1160 621M875 835Q875 924 860.50 999Q846 1074 815 1128Q784 1182 735.50 1212.50Q687 1243 618 1243Q550 1243 504 1212.50Q458 1182 430 1128Q402 1074 390 999Q378 924 378 835L378 621Q378 533 390 458Q402 383 430 328Q458 273 504 242Q550 211 619 211Q687 211 735.50 242Q784 273 814.50 327.50Q845 382 860 457Q875 532 875 621L875 835Z"  horiz-adv-x="1229" vert-adv-y="2048"  />

      
      <glyph glyph-name="uni01A1" unicode="&#x01A1;" d="M95 551Q95 669 129 769.50Q163 870 228.50 944Q294 1018 388.50 1060Q483 1102 605 1102Q708 1102 791 1072.50Q874 1043 937 989Q997 1047 997 1179L1190 1179Q1190 1066 1151 986Q1112 906 1041 861Q1078 795 1097 717Q1116 639 1116 551L1116 530Q1116 411 1082 310.50Q1048 210 983 136Q918 62 823 20.50Q728-21 607-21Q485-21 389.50 20.50Q294 62 228.50 136Q163 210 129 310.50Q95 411 95 530L95 551M373 530Q373 462 386 402.50Q399 343 427 298.50Q455 254 499.50 228Q544 202 607 202Q668 202 712 228Q756 254 783.50 298.50Q811 343 824 402.50Q837 462 837 530L837 551Q837 617 824 676Q811 735 783.50 780Q756 825 712 851Q668 877 605 877Q543 877 499 851Q455 825 427 780Q399 735 386 676Q373 617 373 551L373 530Z"  horiz-adv-x="1229" vert-adv-y="2048"  />

      
      <glyph glyph-name="uni01AF" unicode="&#x01AF;" d="M1108 1456L1108 1260Q1160 1263 1191 1280Q1222 1297 1238 1327.50Q1254 1358 1258.50 1403.50Q1263 1449 1263 1509L1463 1509Q1463 1410 1443.50 1335.50Q1424 1261 1381.50 1210.50Q1339 1160 1271.50 1133Q1204 1106 1108 1103L1109 491Q1109 369 1075.50 274Q1042 179 978.50 113.50Q915 48 823.50 14Q732-20 615-20Q505-20 416.50 14Q328 48 265 113Q202 178 167.50 273.50Q133 369 133 491L134 1456L415 1456L416 491Q417 350 467.50 278Q518 206 615 206Q718 206 772.50 278Q827 350 828 491L829 1456L1108 1456Z"  horiz-adv-x="1229" vert-adv-y="2048"  />

      
      <glyph glyph-name="uni01B0" unicode="&#x01B0;" d="M1375 1178Q1375 994 1299 894Q1223 794 1067 768L1067 0L815 0L799 152Q744 71 666.50 25Q589-21 497-21Q413-21 343 5Q273 31 223 87.50Q173 144 145.50 231.50Q118 319 118 442L118 1082L396 1082L396 440Q396 374 405.50 329Q415 284 436 256.50Q457 229 491 217Q525 205 574 205Q657 205 709 236.50Q761 268 788 323L788 1082L1067 1082L1067 937Q1127 963 1152 1022Q1177 1081 1177 1178L1375 1178Z"  horiz-adv-x="1229" vert-adv-y="2048"  />

      
      <glyph glyph-name="uni0237" unicode="&#x0237;" d="M310 1082L864 1082L864-25Q864-133 833-210.50Q802-288 743.50-338.50Q685-389 600-413Q515-437 406-437Q361-437 315-433.50Q269-430 226-420L240-194Q252-197 273.50-199.50Q295-202 318-203.50Q341-205 361-205.50Q381-206 392-206Q432-206 467-197Q502-188 528-167Q554-146 569-111.50Q584-77 584-25L584 855L310 855L310 1082Z"  horiz-adv-x="1229" vert-adv-y="2048"  />

      
      <glyph glyph-name="uni0259" unicode="&#x0259;" d="M608 1103Q731 1103 829.50 1062Q928 1021 996.50 949.50Q1065 878 1102 781Q1139 684 1139 571L1139 531Q1139 412 1103 311Q1067 210 1001 136.50Q935 63 842 21.50Q749-20 635-19Q518-19 428.50 16Q339 51 278.50 114.50Q218 178 187 268Q156 358 156 469L156 627L857 627Q850 679 830 725Q810 771 775.50 805.50Q741 840 692.50 859.50Q644 879 581 879Q524 879 478.50 872.50Q433 866 395 855Q357 844 324 829Q291 814 260 797L181 977Q211 1001 253 1023.50Q295 1046 349 1063.50Q403 1081 468 1092Q533 1103 608 1103M635 204Q681 204 718 221.50Q755 239 782 269.50Q809 300 826.50 342Q844 384 853 434L429 434L429 409Q429 364 441 326.50Q453 289 478 262Q503 235 542 219.50Q581 204 635 204Z"  horiz-adv-x="1229" vert-adv-y="2048"  />

      
      <glyph glyph-name="uni02C6" unicode="&#x02C6;" d="M874 1273L874 1245L653 1245L499 1372L346 1245L129 1245L129 1275L419 1516L580 1516L874 1273Z"  horiz-adv-x="1229" vert-adv-y="2048"  />

      
      <glyph glyph-name="uni02C7" unicode="&#x02C7;" d="M632 1391L779 1517L1016 1517L1016 1498L720 1245L545 1245L249 1497L249 1517L486 1517L632 1391Z"  horiz-adv-x="1229" vert-adv-y="2048"  />

      
      <glyph glyph-name="uni02D8" unicode="&#x02D8;" d="M974 1442Q974 1377 950.50 1323Q927 1269 882.50 1230.50Q838 1192 775 1170.50Q712 1149 634 1149Q555 1149 492 1170.50Q429 1192 384.50 1230.50Q340 1269 316.50 1323Q293 1377 293 1442L493 1442Q493 1416 500.50 1391.50Q508 1367 525 1348.50Q542 1330 568.50 1319Q595 1308 634 1308Q672 1308 698.50 1319Q725 1330 741.50 1348.50Q758 1367 765.50 1391.50Q773 1416 773 1442L974 1442Z"  horiz-adv-x="1229" vert-adv-y="2048"  />

      
      <glyph glyph-name="uni02D9" unicode="&#x02D9;" d="M472 1363Q472 1424 512 1463.50Q552 1503 622 1503Q692 1503 732 1463.50Q772 1424 772 1363Q772 1303 732 1263.50Q692 1224 622 1224Q552 1224 512 1263.50Q472 1303 472 1363Z"  horiz-adv-x="1229" vert-adv-y="2048"  />

      
      <glyph glyph-name="uni02DA" unicode="&#x02DA;" d="M403 1231Q403 1273 419.50 1309Q436 1345 465 1371Q494 1397 533 1412Q572 1427 616 1427Q660 1427 698 1412Q736 1397 764 1371Q792 1345 808 1309Q824 1273 824 1231Q824 1189 808 1153.50Q792 1118 764 1092.50Q736 1067 698 1053Q660 1039 616 1039Q572 1039 533 1053Q494 1067 465 1092.50Q436 1118 419.50 1153.50Q403 1189 403 1231M517 1231Q517 1187 545.50 1160Q574 1133 616 1133Q658 1133 684.50 1160Q711 1187 711 1231Q711 1276 684.50 1303.50Q658 1331 616 1331Q574 1331 545.50 1303.50Q517 1276 517 1231Z"  horiz-adv-x="1229" vert-adv-y="2048"  />

      
      <glyph glyph-name="uni02DB" unicode="&#x02DB;" d="M748 0Q703-18 673-38Q643-58 625-80Q607-102 599.50-126.50Q592-151 592-178Q592-207 607-226.50Q622-246 659-246Q688-246 708-239Q728-232 742-226L789-380Q761-395 716.50-409.50Q672-424 603-424Q557-424 516.50-410.50Q476-397 446-371Q416-345 398.50-306.50Q381-268 381-217Q381-140 435-65Q489 10 595 60L748 0Z"  horiz-adv-x="1229" vert-adv-y="2048"  />

      
      <glyph glyph-name="uni02DC" unicode="&#x02DC;" d="M856 1511Q856 1466 840.50 1422Q825 1378 796.50 1343.50Q768 1309 728.50 1288Q689 1267 640 1267Q592 1267 556.50 1280.50Q521 1294 489.50 1310.50Q458 1327 427 1340.50Q396 1354 357 1354Q321 1354 294.50 1328Q268 1302 268 1256L128 1286Q128 1330 143.50 1374Q159 1418 187 1453Q215 1488 254.50 1510Q294 1532 343 1532Q383 1532 418 1518.50Q453 1505 486.50 1488.50Q520 1472 554 1458.50Q588 1445 626 1445Q662 1445 689 1470.50Q716 1496 716 1542L856 1511Z"  horiz-adv-x="1229" vert-adv-y="2048"  />

      
      <glyph glyph-name="uni02DD" unicode="&#x02DD;" d="M780 1518L1053 1518L747 1253L535 1253L780 1518M413 1518L674 1518L416 1253L210 1253L413 1518Z"  horiz-adv-x="1229" vert-adv-y="2048"  />

      
      <glyph glyph-name="uni02F3" unicode="&#x02F3;" d="M441-222Q441-189 454-161Q467-133 489.50-112.50Q512-92 542.50-80.50Q573-69 608-69Q642-69 672-80.50Q702-92 724-112.50Q746-133 758.50-161Q771-189 771-222Q771-255 758.50-282Q746-309 724-328.50Q702-348 672-359Q642-370 608-370Q573-370 542.50-359Q512-348 489.50-328.50Q467-309 454-281.50Q441-254 441-222M551-222Q551-246 567-261.50Q583-277 608-277Q631-277 646-261.50Q661-246 661-222Q661-196 646-179.50Q631-163 608-163Q583-163 567-179.50Q551-196 551-222Z"  horiz-adv-x="1229" vert-adv-y="2048"  />

      
      <glyph glyph-name="uni0300" unicode="&#x0300;" d="M-483 1210L-653 1210L-872 1560L-647 1560L-483 1210Z"  horiz-adv-x="1229" vert-adv-y="2048"  />

      
      <glyph glyph-name="uni0301" unicode="&#x0301;" d="M-510 1561L-286 1561L-490 1209L-656 1209L-510 1561Z"  horiz-adv-x="1229" vert-adv-y="2048"  />

      
      <glyph glyph-name="uni0303" unicode="&#x0303;" d="M-185 1511Q-185 1466-200.50 1422Q-216 1378-244.50 1343.50Q-273 1309-312.50 1288Q-352 1267-401 1267Q-449 1267-484.50 1280.50Q-520 1294-551.50 1310.50Q-583 1327-614 1340.50Q-645 1354-684 1354Q-720 1354-746.50 1328Q-773 1302-773 1256L-913 1286Q-913 1330-897.50 1374Q-882 1418-854 1453Q-826 1488-786.50 1510Q-747 1532-698 1532Q-658 1532-623 1518.50Q-588 1505-554.50 1488.50Q-521 1472-487 1458.50Q-453 1445-415 1445Q-379 1445-352 1470.50Q-325 1496-325 1542L-185 1511Z"  horiz-adv-x="1229" vert-adv-y="2048"  />

      
      <glyph glyph-name="uni0309" unicode="&#x0309;" d="M-710 1263L-723 1400Q-650 1405-617.50 1419.50Q-585 1434-585 1466Q-585 1486-596 1499.50Q-607 1513-626 1521Q-645 1529-672 1532.50Q-699 1536-730 1536L-723 1669Q-539 1669-446 1616.50Q-353 1564-353 1474Q-353 1439-366 1413.50Q-379 1388-400 1370.50Q-421 1353-448 1343Q-475 1333-503 1329L-503 1263L-710 1263Z"  horiz-adv-x="1229" vert-adv-y="2048"  />

      
      <glyph glyph-name="uni030F" unicode="&#x030F;" d="M-508 1252L-740 1252L-1033 1518L-753 1518L-508 1252M-178 1252L-402 1252L-647 1518L-374 1518L-178 1252Z"  horiz-adv-x="1229" vert-adv-y="2048"  />

      
      <glyph glyph-name="uni0323" unicode="&#x0323;" d="M-755-224Q-755-194-744-168Q-733-142-712-123.50Q-691-105-661-94Q-631-83-593-83Q-556-83-526-94Q-496-105-475-123.50Q-454-142-442.50-168Q-431-194-431-224Q-431-254-442.50-279.50Q-454-305-475-324Q-496-343-526-353.50Q-556-364-593-364Q-631-364-661-353.50Q-691-343-712-324Q-733-305-744-279.50Q-755-254-755-224Z"  horiz-adv-x="1229" vert-adv-y="2048"  />

      
      <glyph glyph-name="uni0384" unicode="&#x0384;" d="M661 1665L938 1665L721 1266L581 1266L661 1665Z"  horiz-adv-x="1229" vert-adv-y="2048"  />

      
      <glyph glyph-name="uni0385" unicode="&#x0385;" d="M646 1801L918 1801L750 1477L603 1477L646 1801M259 1353Q259 1381 269.50 1405Q280 1429 298.50 1446.50Q317 1464 343 1474Q369 1484 401 1484Q432 1484 458 1474Q484 1464 502.50 1446.50Q521 1429 531.50 1405Q542 1381 542 1353Q542 1326 531.50 1302Q521 1278 502.50 1261Q484 1244 458 1234Q432 1224 401 1224Q369 1224 343 1234Q317 1244 298.50 1261Q280 1278 269.50 1302Q259 1326 259 1353M808 1355Q808 1383 818.50 1406.50Q829 1430 847.50 1447.50Q866 1465 892 1475Q918 1485 950 1485Q981 1485 1007 1475Q1033 1465 1051.50 1447.50Q1070 1430 1080.50 1406.50Q1091 1383 1091 1355Q1091 1327 1080.50 1303Q1070 1279 1051.50 1261.50Q1033 1244 1007 1234Q981 1224 950 1224Q918 1224 892 1234Q866 1244 847.50 1261.50Q829 1279 818.50 1303Q808 1327 808 1355Z"  horiz-adv-x="1229" vert-adv-y="2048"  />

      
      <glyph glyph-name="uni0387" unicode="&#x0387;" d="M557 701Q557 733 568 760.50Q579 788 599.50 808Q620 828 649.50 839.50Q679 851 715 851Q751 851 780.50 839.50Q810 828 830.50 808Q851 788 862 760.50Q873 733 873 701Q873 669 862 642Q851 615 830.50 595Q810 575 780.50 563.50Q751 552 715 552Q679 552 649.50 563.50Q620 575 599.50 595Q579 615 568 642Q557 669 557 701Z"  horiz-adv-x="1229" vert-adv-y="2048"  />

      
      <glyph glyph-name="uni0393" unicode="&#x0393;" d="M1083 1228L422 1228L422 0L141 0L141 1456L1083 1456L1083 1228Z"  horiz-adv-x="1229" vert-adv-y="2048"  />

      
      <glyph glyph-name="uni0394" unicode="&#x0394;" d="M523 1456L807 1456L1280 0L35 0L523 1456M399 226L918 226L662 1079L399 226Z"  horiz-adv-x="1229" vert-adv-y="2048"  />

      
      <glyph glyph-name="uni2206" unicode="&#x2206;" d="M523 1456L807 1456L1280 0L35 0L523 1456M399 226L918 226L662 1079L399 226Z"  horiz-adv-x="1229" vert-adv-y="2048"  />

      
      <glyph glyph-name="uni0398" unicode="&#x0398;" d="M818 614L430 614L430 837L818 837L818 614M1158 621Q1158 481 1121 363Q1084 245 1014 160Q944 75 843.50 27.50Q743-20 617-20Q491-20 393 27.50Q295 75 228 160.50Q161 246 126 363.50Q91 481 91 621L91 833Q91 973 126 1091Q161 1209 228 1294.50Q295 1380 392.50 1428Q490 1476 616 1476Q743 1476 843.50 1428Q944 1380 1014 1294.50Q1084 1209 1121 1091Q1158 973 1158 833L1158 621M873 835Q873 924 858.50 999Q844 1074 813 1128Q782 1182 733.50 1212.50Q685 1243 616 1243Q548 1243 502 1212.50Q456 1182 428 1128Q400 1074 388 999Q376 924 376 835L376 621Q376 533 388 458Q400 383 428 328Q456 273 502 242Q548 211 617 211Q685 211 733.50 242Q782 273 812.50 327.50Q843 382 858 457Q873 532 873 621L873 835Z"  horiz-adv-x="1229" vert-adv-y="2048"  />

      
      <glyph glyph-name="uni039B" unicode="&#x039B;" d="M612 1079L316 0L23 0L471 1456L755 1456L1204 0L910 0L612 1079Z"  horiz-adv-x="1229" vert-adv-y="2048"  />

      
      <glyph glyph-name="uni039E" unicode="&#x039E;" d="M121 226L1096 226L1096 0L121 0L121 226M229 849L985 849L985 630L229 630L229 849M140 1456L1060 1456L1060 1228L140 1228L140 1456Z"  horiz-adv-x="1229" vert-adv-y="2048"  />

      
      <glyph glyph-name="uni03A0" unicode="&#x03A0;" d="M1095 0L814 0L814 1228L402 1228L402 0L121 0L121 1456L1095 1456L1095 0Z"  horiz-adv-x="1229" vert-adv-y="2048"  />

      
      <glyph glyph-name="uni03A3" unicode="&#x03A3;" d="M856 724L488 225L1144 225L1144 1L111 1L111 152L559 733L111 1304L111 1456L1115 1456L1115 1228L493 1228L856 741L856 724Z"  horiz-adv-x="1229" vert-adv-y="2048"  />

      
      <glyph glyph-name="uni03A6" unicode="&#x03A6;" d="M804 1260Q906 1249 990 1206Q1074 1163 1134.50 1093Q1195 1023 1228.50 928.50Q1262 834 1262 720Q1262 608 1228.50 515.50Q1195 423 1134.50 354Q1074 285 990 242.50Q906 200 804 189L804 0L524 0L524 189Q422 200 337.50 242Q253 284 192.50 352.50Q132 421 98.50 513.50Q65 606 65 718Q65 832 98.50 927Q132 1022 192.50 1092.50Q253 1163 337.50 1206Q422 1249 524 1260L524 1456L804 1456L804 1260M341 718Q341 597 390 525.50Q439 454 524 434L524 1015Q439 994 390 919Q341 844 341 718M984 720Q984 845 936 919.50Q888 994 804 1015L804 435Q888 455 936 527Q984 599 984 720Z"  horiz-adv-x="1229" vert-adv-y="2048"  />

      
      <glyph glyph-name="uni03A8" unicode="&#x03A8;" d="M807 575Q883 597 922 671.50Q961 746 961 890L961 1456L1243 1456L1243 890Q1243 764 1212 668Q1181 572 1124 504.50Q1067 437 986.50 397Q906 357 807 345L807 0L527 0L527 344Q423 354 338.50 392.50Q254 431 194 499Q134 567 101.50 664.50Q69 762 69 890L69 1456L350 1456L350 890Q350 746 396.50 671.50Q443 597 527 575L527 1456L807 1456L807 575Z"  horiz-adv-x="1229" vert-adv-y="2048"  />

      
      <glyph glyph-name="uni03A9" unicode="&#x03A9;" d="M677 272Q714 288 745 327Q776 366 798.50 431Q821 496 833 589Q845 682 845 805L845 858Q845 1052 785 1149Q725 1246 619 1246Q515 1246 454.50 1148.50Q394 1051 394 858L394 805Q394 681 406.50 588Q419 495 442 430Q465 365 497 326.50Q529 288 569 272L569 0L100 0L100 228L368 228Q308 271 256.50 332Q205 393 167 467.50Q129 542 107.50 627.50Q86 713 86 805L86 856Q86 992 125 1106Q164 1220 234 1302.50Q304 1385 402 1430.50Q500 1476 619 1476Q738 1476 836.50 1430.50Q935 1385 1005.50 1302.50Q1076 1220 1115 1106Q1154 992 1154 856L1154 805Q1154 713 1132.50 627Q1111 541 1073.50 467Q1036 393 984.50 332Q933 271 874 228L1147 228L1147 0L677 0L677 272Z"  horiz-adv-x="1229" vert-adv-y="2048"  />

      
      <glyph glyph-name="uni2126" unicode="&#x2126;" d="M677 272Q714 288 745 327Q776 366 798.50 431Q821 496 833 589Q845 682 845 805L845 858Q845 1052 785 1149Q725 1246 619 1246Q515 1246 454.50 1148.50Q394 1051 394 858L394 805Q394 681 406.50 588Q419 495 442 430Q465 365 497 326.50Q529 288 569 272L569 0L100 0L100 228L368 228Q308 271 256.50 332Q205 393 167 467.50Q129 542 107.50 627.50Q86 713 86 805L86 856Q86 992 125 1106Q164 1220 234 1302.50Q304 1385 402 1430.50Q500 1476 619 1476Q738 1476 836.50 1430.50Q935 1385 1005.50 1302.50Q1076 1220 1115 1106Q1154 992 1154 856L1154 805Q1154 713 1132.50 627Q1111 541 1073.50 467Q1036 393 984.50 332Q933 271 874 228L1147 228L1147 0L677 0L677 272Z"  horiz-adv-x="1229" vert-adv-y="2048"  />

      
      <glyph glyph-name="uni03B1" unicode="&#x03B1;" d="M1028 1082L1028 323Q1028 258 1047.50 233.50Q1067 209 1100 209Q1125 209 1143 214L1167 5Q1135-11 1105.50-16Q1076-21 1041-21Q952-21 887.50 13.50Q823 48 788 120Q739 54 670 17Q601-20 507-20Q410-20 335.50 19Q261 58 210 128.50Q159 199 132.50 296.50Q106 394 106 511L106 532Q106 657 132.50 761.50Q159 866 210 942Q261 1018 336 1060Q411 1102 509 1102Q599 1102 666 1066Q733 1030 781 965L837 1082L1028 1082M384 511Q384 445 394 388.50Q404 332 427 291Q450 250 486.50 226.50Q523 203 577 203Q639 203 682 222.50Q725 242 751 277Q750 288 750 299.50Q750 311 750 323L750 804Q723 839 680.50 858Q638 877 579 877Q526 877 488.50 849.50Q451 822 428 775Q405 728 394.50 665.50Q384 603 384 532L384 511Z"  horiz-adv-x="1229" vert-adv-y="2048"  />

      
      <glyph glyph-name="uni03B2" unicode="&#x03B2;" d="M638 1477Q743 1477 829 1450Q915 1423 975.50 1372.50Q1036 1322 1069 1248.50Q1102 1175 1102 1082Q1102 983 1052 902.50Q1002 822 912 773Q1034 730 1099.50 638Q1165 546 1165 415Q1165 311 1133.50 229.50Q1102 148 1044 92.50Q986 37 903 8Q820-21 718-21Q646-21 572-2Q498 17 435 58L435-402L158-402L158 1038Q158 1136 196 1217Q234 1298 299.50 1355.50Q365 1413 452 1445Q539 1477 638 1477M634 859Q736 859 780 913.50Q824 968 824 1063Q824 1100 812.50 1134Q801 1168 777.50 1194Q754 1220 719 1236Q684 1252 638 1252Q594 1252 557 1237Q520 1222 493 1194Q466 1166 450.50 1126.50Q435 1087 435 1038L435 266Q474 236 530.50 219Q587 202 658 202Q712 202 755 218.50Q798 235 827 264Q856 293 871.50 332.50Q887 372 887 418Q887 471 873 514.50Q859 558 831.50 588.50Q804 619 763 636Q722 653 669 653L567 653L567 859L634 859Z"  horiz-adv-x="1229" vert-adv-y="2048"  />

      
      <glyph glyph-name="uni03B3" unicode="&#x03B3;" d="M916 1082L1206 1082L761 19L761-417L483-417L483 23L40 1082L331 1082L612 309L626 244L643 314L916 1082Z"  horiz-adv-x="1229" vert-adv-y="2048"  />

      
      <glyph glyph-name="uni03B4" unicode="&#x03B4;" d="M237 1251Q237 1326 264.50 1385Q292 1444 344.50 1485.50Q397 1527 472.50 1548.50Q548 1570 644 1570Q723 1570 796.50 1548Q870 1526 950 1493L906 1309Q886 1315 859.50 1324.50Q833 1334 801.50 1342Q770 1350 735 1356Q700 1362 664 1362Q589 1362 545.50 1333.50Q502 1305 502 1258Q502 1243 508 1226Q514 1209 532 1191Q550 1173 583 1154Q616 1135 669 1116Q908 1035 1030 893.50Q1152 752 1152 542L1152 522Q1152 406 1116.50 307Q1081 208 1013.50 135.50Q946 63 848 21.50Q750-20 625-20Q498-20 399 20.50Q300 61 232 132Q164 203 128.50 300Q93 397 93 510L93 530Q93 614 119.50 687.50Q146 761 191 818.50Q236 876 296 915Q356 954 424 970L426 983Q339 1025 288 1092Q237 1159 237 1251M370 534Q370 466 385 405.50Q400 345 431 300Q462 255 510.50 228.50Q559 202 625 202Q690 202 737 228.50Q784 255 815 300Q846 345 860.50 405.50Q875 466 875 534L875 554Q875 606 857.50 659Q840 712 807.50 757Q775 802 728.50 834Q682 866 625 877Q559 877 511 850.50Q463 824 431.50 779.50Q400 735 385 676.50Q370 618 370 554L370 534Z"  horiz-adv-x="1229" vert-adv-y="2048"  />

      
      <glyph glyph-name="uni03B5" unicode="&#x03B5;" d="M655 458Q529 458 469.50 427.50Q410 397 410 324Q410 298 424 274Q438 250 467.50 231.50Q497 213 543.50 201.50Q590 190 655 190Q714 190 760.50 200.50Q807 211 838.50 229Q870 247 886.50 270.50Q903 294 903 320L1180 320Q1180 231 1135.50 167Q1091 103 1018.50 61.50Q946 20 854.50 0Q763-20 669-20Q550-20 451 2Q352 24 281 66Q210 108 171 168.50Q132 229 132 306Q132 398 186.50 461.50Q241 525 349 557Q254 593 202.50 653.50Q151 714 151 786Q151 863 187 922Q223 981 290.50 1020.50Q358 1060 453.50 1080.50Q549 1101 669 1101Q770 1101 860 1078.50Q950 1056 1017.50 1013.50Q1085 971 1124 909.50Q1163 848 1163 771L885 771Q885 799 867.50 821Q850 843 819 858.50Q788 874 746.50 882Q705 890 656 890Q590 890 546.50 879Q503 868 477 850.50Q451 833 440.50 810.50Q430 788 430 765Q430 738 441.50 716.50Q453 695 479.50 679Q506 663 549 654.50Q592 646 655 646L885 646L885 458L655 458Z"  horiz-adv-x="1229" vert-adv-y="2048"  />

      
      <glyph glyph-name="uni03B6" unicode="&#x03B6;" d="M1068 1456L1068 1296L652 868Q587 809 537 759.50Q487 710 453 660.50Q419 611 401.50 556.50Q384 502 384 434Q384 387 395 354.50Q406 322 427.50 299Q449 276 482.50 261.50Q516 247 561 238L748 201Q812 186 865 167.50Q918 149 956 120Q994 91 1014.50 49Q1035 7 1035-54Q1035-97 1014-144Q993-191 960.50-236Q928-281 888.50-321Q849-361 810-388L668-278Q716-227 739-184Q762-141 760-110Q761-93 755.50-77.50Q750-62 736-49Q722-36 699.50-26.50Q677-17 643-11L466 20Q370 38 302 70.50Q234 103 190.50 150Q147 197 127 258Q107 319 107 394Q107 474 129.50 546.50Q152 619 196 690Q240 761 306.50 833Q373 905 461 985L692 1232L80 1232L80 1456L1068 1456Z"  horiz-adv-x="1229" vert-adv-y="2048"  />

      
      <glyph glyph-name="uni03B7" unicode="&#x03B7;" d="M387 1082L400 925Q456 1008 539.50 1055Q623 1102 729 1102Q812 1102 880.50 1079Q949 1056 997.50 1005.50Q1046 955 1073 875.50Q1100 796 1100 682L1100-415L820-415L820 682Q820 782 771 829.50Q722 877 628 877Q553 877 498.50 854Q444 831 407 791L407 0L129 0L129 1082L387 1082Z"  horiz-adv-x="1229" vert-adv-y="2048"  />

      
      <glyph glyph-name="uni03B8" unicode="&#x03B8;" d="M1095 521Q1095 388 1062.50 287Q1030 186 970.50 117.50Q911 49 826.50 14Q742-21 637-21Q532-21 447 14Q362 49 302 117.50Q242 186 209 287Q176 388 176 521L176 926Q176 1059 208.50 1162Q241 1265 301 1335Q361 1405 445.50 1441Q530 1477 635 1477Q740 1477 825 1441Q910 1405 970 1335Q1030 1265 1062.50 1162Q1095 1059 1095 926L1095 521M818 633L455 633L455 474Q455 395 466.50 343Q478 291 500.50 259.50Q523 228 557.50 215Q592 202 637 202Q681 202 715 215Q749 228 772 259.50Q795 291 806.50 343Q818 395 818 474L818 633M455 848L818 848L818 976Q818 1054 806.50 1106.50Q795 1159 772 1191.50Q749 1224 714.50 1238Q680 1252 635 1252Q590 1252 556 1238Q522 1224 499.50 1191.50Q477 1159 466 1106.50Q455 1054 455 976L455 848Z"  horiz-adv-x="1229" vert-adv-y="2048"  />

      
      <glyph glyph-name="uni03B9" unicode="&#x03B9;" d="M179 1082L743 1082L743 360Q743 306 755 276Q767 246 787 231Q807 216 834 212.50Q861 209 891 209Q936 209 975.50 224Q1015 239 1042 256L1087 55Q1055 31 1024 16Q993 1 962.50-7Q932-15 901-18Q870-21 838-21Q746-21 676-1Q606 19 558.50 64Q511 109 486.50 180.50Q462 252 462 355L462 855L179 855L179 1082Z"  horiz-adv-x="1229" vert-adv-y="2048"  />

      
      <glyph glyph-name="uni03BB" unicode="&#x03BB;" d="M333 0L32 0L417 1056L387 1130Q374 1163 355.50 1196.50Q337 1230 312.50 1257Q288 1284 258.50 1300.50Q229 1317 193 1317Q176 1317 156 1315Q136 1313 116 1311L110 1519Q126 1523 146 1527.50Q166 1532 187.50 1535Q209 1538 230.50 1540Q252 1542 272 1542Q345 1542 401.50 1514Q458 1486 499.50 1445Q541 1404 568.50 1355.50Q596 1307 613 1267L960 383Q970 352 984 320.50Q998 289 1016.50 264Q1035 239 1057.50 223.50Q1080 208 1106 208Q1114 208 1118.50 208Q1123 208 1127 208.50Q1131 209 1136 209.50Q1141 210 1150 211L1144-7Q1124-13 1101.50-15.50Q1079-18 1059-18Q984-18 926 6Q868 30 825 70.50Q782 111 751.50 163.50Q721 216 701 272L543 713L514 574L333 0Z"  horiz-adv-x="1229" vert-adv-y="2048"  />

      
      <glyph glyph-name="uni03BE" unicode="&#x03BE;" d="M1050 1210Q1013 1219 984.50 1226Q956 1233 930 1237.50Q904 1242 879 1244.50Q854 1247 825 1247Q744 1247 688.50 1236Q633 1225 599 1205.50Q565 1186 550.50 1159Q536 1132 536 1101Q536 1067 550.50 1038.50Q565 1010 599.50 989Q634 968 692 956Q750 944 836 944L985 944L985 714L842 714Q641 714 547.50 649Q454 584 454 456Q454 402 477 362Q500 322 541 293.50Q582 265 637.50 246.50Q693 228 759 217L858 195Q919 181 971.50 164.50Q1024 148 1063 120.50Q1102 93 1124 50.50Q1146 8 1146-59Q1146-102 1125-149.50Q1104-197 1071.50-242Q1039-287 999-326.50Q959-366 920-393L785-284Q833-233 852-192.50Q871-152 871-114Q871-46 753-16L691 0Q566 31 470 63Q374 95 308.50 143Q243 191 209.50 263.50Q176 336 176 448Q176 590 259.50 685.50Q343 781 501 827Q384 865 321 932Q258 999 258 1096Q258 1185 294.50 1255.50Q331 1326 400 1375Q469 1424 569.50 1450Q670 1476 798 1476Q845 1476 885 1473Q925 1470 960 1463.50Q995 1457 1027.50 1448Q1060 1439 1093 1427L1050 1210Z"  horiz-adv-x="1229" vert-adv-y="2048"  />

      
      <glyph glyph-name="uni03C0" unicode="&#x03C0;" d="M1198 868L1044 868L1044 322Q1044 283 1049.50 260Q1055 237 1066.50 225.50Q1078 214 1095.50 210.50Q1113 207 1137 207Q1168 207 1188 213.50Q1208 220 1228 230L1273 40Q1211 1 1159.50-9Q1108-19 1058-19Q984-19 929-2.50Q874 14 838 52.50Q802 91 784 153Q766 215 766 306L766 868L512 868L512 0L234 0L234 868L100 868L100 1082L1198 1082L1198 868Z"  horiz-adv-x="1229" vert-adv-y="2048"  />

      
      <glyph glyph-name="uni03C1" unicode="&#x03C1;" d="M1119 511Q1119 394 1092 296.50Q1065 199 1012 128.50Q959 58 881 18.50Q803-21 701-21Q605-21 533.50 12.50Q462 46 411 108L411-416L133-416L133 576Q133 693 169 790Q205 887 271.50 956Q338 1025 431.50 1063.50Q525 1102 641 1102Q759 1102 848.50 1060Q938 1018 998 942Q1058 866 1088.50 761.50Q1119 657 1119 532L1119 511M841 532Q841 603 830 665.50Q819 728 793.50 775Q768 822 727.50 849.50Q687 877 629 877Q571 877 530 850.50Q489 824 462.50 779.50Q436 735 423.50 676.50Q411 618 411 554L410 553L411 553L411 309Q441 258 493 230Q545 202 626 202Q685 202 726 225.50Q767 249 792.50 290.50Q818 332 829.50 388.50Q841 445 841 511L841 532Z"  horiz-adv-x="1229" vert-adv-y="2048"  />

      
      </font>
</defs>
</svg>
