<svg width="180" height="168" viewBox="0 0 180 168" fill="none" xmlns="http://www.w3.org/2000/svg">
<g clip-path="url(#clip0_837_277)">
<path d="M174.54 29.2911L101.437 7.58339C100.734 7.26505 99.9701 7.10125 99.1979 7.10304C98.0421 7.10691 96.9187 7.48563 95.9968 8.18229C95.0748 8.87895 94.4039 9.8559 94.0851 10.9663L74.2885 76.6414C73.9383 77.8712 74.0408 79.1857 74.5774 80.3464C75.114 81.5071 76.049 82.4372 77.213 82.9677L148.424 115.11C149.118 115.434 149.876 115.601 150.643 115.601C151.801 115.592 152.926 115.207 153.848 114.505C154.77 113.803 155.439 112.821 155.755 111.707L177.413 35.6175C177.767 34.3937 177.672 33.0839 177.145 31.9241C176.618 30.7642 175.694 29.8305 174.54 29.2911ZM108.278 30.5891L154.835 41.8314L138.617 84.184L108.278 30.5891Z" fill="#292D8E" stroke="#292D8E" stroke-width="4.57" stroke-linecap="round" stroke-linejoin="round"/>
<path d="M168.087 36.5169L148.444 105.493L87.1624 77.8372L86.4671 66.6256L101.488 16.7407L168.087 36.5169Z" fill="white"/>
<path d="M107.89 41.627L107.123 41.3715L97.9197 69.3953L92.1013 67.4841L103.349 31.2534L112.655 34.0742L111.796 64.8167L112.563 65.0722L121.766 37.0483L127.615 38.9595L114.822 77.2036L106.233 73.5447L107.89 41.627Z" fill="#292D8E"/>
<path d="M107.45 41.9233C107.288 41.9609 107.12 41.9609 106.959 41.9233L107.624 41.5861L98.8502 69.6917C98.7747 69.9242 98.6126 70.1186 98.3974 70.2347C98.1822 70.3508 97.9306 70.3796 97.6947 70.3151L91.7332 68.5981C91.5881 68.5571 91.4526 68.4875 91.3347 68.3936C91.2168 68.2996 91.1188 68.1831 91.0464 68.0508C90.9741 67.9185 90.9288 67.7732 90.9133 67.6232C90.8978 67.4733 90.9123 67.3218 90.9561 67.1775C90.9561 67.1775 102.828 31.1308 102.807 31.0797C102.852 30.9473 102.946 30.8372 103.07 30.7725C103.194 30.7077 103.338 30.6933 103.472 30.7322L112.777 33.553C112.889 33.5865 112.986 33.6557 113.055 33.7498C113.123 33.844 113.158 33.9579 113.156 34.0742L112.297 64.8166L111.929 64.2954L112.696 64.5509L112.031 64.8882L121.234 36.8643C121.278 36.7323 121.373 36.6229 121.497 36.5598C121.621 36.4967 121.766 36.485 121.899 36.5271L127.748 38.4383C127.88 38.4848 127.99 38.5813 128.053 38.7072C128.116 38.8331 128.127 38.9786 128.085 39.1128L116.213 77.643C116.158 77.8203 116.069 77.9851 115.95 78.1279C115.832 78.2707 115.686 78.3887 115.522 78.4751C115.357 78.5615 115.178 78.6146 114.993 78.6314C114.808 78.6482 114.621 78.6284 114.444 78.5731C114.385 78.5572 114.327 78.5367 114.27 78.5117L105.66 74.904C105.373 74.7893 105.129 74.5856 104.965 74.3227C104.801 74.0597 104.726 73.7513 104.75 73.4425L107.47 41.9029L107.45 41.9233ZM108.329 41.3306L107.726 73.6163L106.826 72.165L115.385 75.8851L113.452 76.7539L127.062 38.796L127.4 39.4705L121.551 37.5389L122.216 37.2016L113.013 65.2254C112.968 65.3575 112.874 65.4669 112.749 65.53C112.625 65.5931 112.481 65.6048 112.348 65.5627C111.98 65.4094 111.172 65.3481 111.223 64.7962L112.072 34.0538L112.45 34.575L103.145 31.7542L103.799 31.4067L93.2159 67.8316L92.4592 66.3701L98.2367 68.4959L97.0403 69.0989L106.622 41.2079C106.939 40.4619 107.849 41.1057 108.329 41.3306Z" fill="#292D8E"/>
<path d="M127.103 58.8174C130.969 47.0335 139.19 42.2095 149.743 45.6537C154.62 47.2481 157.923 50.1608 158.854 53.6459L153.618 56.8449C153.159 55.5535 152.403 54.3875 151.413 53.4399C150.422 52.4922 149.223 51.7893 147.912 51.3873C141.777 49.3432 136.255 52.6341 133.597 60.6672C130.713 69.4771 131.909 77.6839 139.599 80.1981C142.113 81.0146 144.769 81.3068 147.401 81.0566L146.061 88.4969C142.701 88.6767 139.337 88.2261 136.143 87.1683C124.762 83.4379 123.023 71.2656 127.103 58.8174Z" fill="#F48521"/>
<path d="M126.122 58.5005C128.289 51.6325 133.484 44.6419 141.194 43.8652C148.025 43.2111 157.402 46.2976 159.488 53.4824C159.519 53.6177 159.508 53.7594 159.454 53.8878C159.401 54.0161 159.309 54.1245 159.191 54.1978L153.956 57.3968C153.809 57.4843 153.633 57.5108 153.467 57.4707C153.301 57.4306 153.157 57.327 153.066 57.1821C151.965 55.3452 150.301 53.9111 148.322 53.0921C146.342 52.273 144.151 52.1125 142.074 52.6341C137.83 53.973 135.591 58.521 134.455 62.6806C131.224 73.5243 135.57 80.8522 147.37 80.4127C147.458 80.4072 147.545 80.4189 147.628 80.4473C147.711 80.4756 147.787 80.52 147.853 80.578C147.918 80.6359 147.972 80.7062 148.01 80.7848C148.048 80.8634 148.071 80.9488 148.076 81.0361C148.081 81.0803 148.081 81.1248 148.076 81.169L147.186 88.6911C147.156 88.9404 147.035 89.1698 146.847 89.3357C146.658 89.5016 146.415 89.5923 146.164 89.5905C142.363 90.0502 138.507 89.5982 134.916 88.272C122.492 83.8058 122.256 69.0171 126.152 58.5005H126.122ZM128.095 59.1444C125.028 68.4244 125.12 81.7413 135.928 85.5126C139.168 86.6951 142.582 87.3306 146.031 87.3931L145.008 88.3027L146.787 80.9441L147.483 81.7004C144.969 82.041 142.412 81.8883 139.957 81.2507C131.05 79.2067 129.68 69.5282 131.776 61.9652C133.627 53.789 140.335 46.4918 149.303 50.3652C150.581 50.9165 151.699 51.7802 152.555 52.8768C153.411 53.9734 153.977 55.2677 154.201 56.6405L153.25 56.293L158.506 53.094L158.22 53.7992C156.175 47.4116 147.442 44.8463 141.399 45.5413C134.404 46.41 130.007 52.7977 128.105 59.1444H128.095Z" fill="#F48521"/>
<path d="M103.38 165.189L24.1425 128.989C23.358 128.635 22.6703 128.098 22.1377 127.422C21.6051 126.746 21.2432 125.952 21.0827 125.107C20.9222 124.262 20.9678 123.39 21.2156 122.566C21.4634 121.742 21.9062 120.99 22.5064 120.374L71.5889 84.092C72.3666 83.2883 73.3768 82.7486 74.4773 82.5487C75.5779 82.3489 76.7135 82.499 77.7243 82.978L147.616 114.466C148.397 114.824 149.081 115.365 149.609 116.043C150.138 116.721 150.495 117.515 150.652 118.36C150.808 119.205 150.759 120.075 150.508 120.897C150.257 121.719 149.812 122.468 149.211 123.082L109.423 164.075C108.653 164.86 107.659 165.387 106.578 165.587C105.496 165.786 104.38 165.647 103.38 165.189Z" fill="#292D8E" stroke="#292D8E" stroke-width="4.57" stroke-linecap="round" stroke-linejoin="round"/>
<path d="M149.691 116.852C150.444 117.197 151.334 116.866 151.679 116.113C152.024 115.36 151.693 114.47 150.94 114.125L149.691 116.852ZM101.857 91.6403L100.494 91.0156L99.2443 93.743L100.608 94.3677L101.857 91.6403ZM150.94 114.125L101.857 91.6403L100.608 94.3677L149.691 116.852L150.94 114.125Z" fill="#495CAB"/>
<path d="M50.4528 6.76578C50.4528 6.76578 39.4297 -6.40808 22.4451 13.2863C5.46045 32.9807 32.0468 56.2112 32.0468 56.2112C27.8015 58.7174 23.0593 60.2657 18.1524 60.7476C13.2455 61.2296 8.29253 60.6336 3.6403 59.0013C3.6403 59.0013 -10.839 112.985 57.0994 111.124C121.52 109.336 94.4941 51.8472 78.1333 53.2882C57.8765 55.0972 64.0425 40.0019 64.0425 40.0019" fill="#FFC837"/>
<path d="M49.4814 7.57318C41.1374 1.22642 32.2411 7.11327 26.249 13.8893C24.1227 16.0283 22.4193 18.5491 21.2282 21.3194C16.637 33.5836 25.2367 45.8479 33.0592 55.0461C35.1759 57.2946 30.83 58.5414 29.4291 59.3386C25.9014 60.8763 22.1477 61.8324 18.314 62.1696C13.2041 62.6448 8.05154 62.0246 3.20064 60.3504L4.99011 59.3897C2.10651 81.6596 10.9209 99.8209 33.9693 104.798C52.3139 108.733 91.6003 109.254 93.7784 84.3577C94.8623 75.2719 88.6656 59.1444 79.1865 56.5383C78.8467 56.502 78.5039 56.502 78.164 56.5383C72.5093 56.8142 65.6479 56.2214 62.2633 50.958C60.3409 47.8613 60.4329 44.2127 61.3634 41.0035C61.5396 40.3729 61.7582 39.7548 62.0179 39.1537C62.1305 38.8891 62.2942 38.6494 62.4996 38.4481C62.705 38.2469 62.9481 38.0881 63.215 37.9808C63.4819 37.8735 63.7673 37.8199 64.0549 37.823C64.3426 37.8261 64.6267 37.8858 64.8913 37.9988C65.4136 38.2267 65.8281 38.6468 66.049 39.172C66.2698 39.6971 66.28 40.2871 66.0774 40.8196C64.3698 46.8393 66.8648 50.2528 73.2353 50.3244C73.9511 50.3244 75.4235 50.3244 76.1393 50.2528C83.0416 48.9446 88.7985 53.3189 92.8274 58.153C105.998 74.2499 105.988 98.5127 85.9967 109.009C68.8792 118.299 35.6769 117.676 18.948 107.588C1.5441 97.8382 -3.50731 76.8458 2.30079 58.6641C2.33566 58.4804 2.40891 58.3062 2.51576 58.1527C2.62261 57.9993 2.76065 57.8701 2.92086 57.7737C3.08107 57.6772 3.25984 57.6156 3.44549 57.593C3.63114 57.5703 3.81949 57.587 3.99823 57.642C8.50768 59.1661 13.2924 59.7029 18.0277 59.216C22.674 58.78 27.1638 57.3098 31.1675 54.9132L31.0243 57.3457C28.2087 55.1861 25.6279 52.7369 23.3245 50.0382C16.1666 41.862 10.8596 29.8635 15.2259 18.9789C19.7762 7.90022 34.9305 -5.11012 47.1602 2.05426C48.3464 2.79011 53.183 6.18323 51.1379 7.70604C50.8939 7.87669 50.5979 7.9568 50.301 7.93254C50.0042 7.90829 49.7251 7.78118 49.5121 7.57318H49.4814Z" fill="#D39600"/>
<path d="M11.2583 74.1682C11.4086 73.9827 11.6086 73.8439 11.835 73.7679C12.0613 73.6919 12.3046 73.6818 12.5365 73.7389C22.4757 73.9331 33.2739 72.0935 41.168 65.6241C47.5487 60.6059 53.9703 68.4959 56.6188 73.9024C66.3126 93.4333 37.5379 103.981 23.7948 93.6275C17.5356 89.2587 13.0798 82.7637 11.2583 75.3537V75.2413C11.1949 75.0764 11.1676 74.8999 11.1782 74.7236C11.1888 74.5473 11.237 74.3754 11.3197 74.2193L11.2583 74.1682ZM12.9557 75.2924C13.0559 75.1617 13.1199 75.007 13.1414 74.8438C13.163 74.6805 13.1412 74.5145 13.0784 74.3623L13.15 74.4441C13.6818 75.1186 14.6736 76.202 15.2463 76.8663C19.9398 81.9764 26.3205 87.3727 33.1205 88.2925C38.2333 89.0999 44.4606 87.2705 48.7758 84.4088C53.6329 81.169 52.4161 74.7712 49.5529 69.7019C47.9373 67.1877 45.0537 65.6138 42.5075 67.433C39.5649 69.4931 36.3231 71.089 32.8955 72.165C26.2055 74.2344 19.2773 75.4366 12.2809 75.7421H12.107C12.269 75.743 12.4285 75.7021 12.57 75.6233C12.7116 75.5445 12.8303 75.4305 12.9148 75.2924H12.9557Z" fill="#D39600"/>
<path d="M55.2894 129.521L66.7216 134.059L61.6088 139.169L53.0398 135.806C52.676 135.681 52.3511 135.463 52.0975 135.174C51.8438 134.885 51.6702 134.534 51.5937 134.157C51.5173 133.781 51.5407 133.39 51.6616 133.025C51.7825 132.66 51.9968 132.333 52.2831 132.076L55.2894 129.521Z" fill="#495CAB"/>
<path d="M83.6346 140.763L79.074 144.677C78.7491 144.948 78.3568 145.125 77.9389 145.19C77.521 145.255 77.0933 145.205 76.7017 145.045L67.1613 141.305L72.2024 136.195L83.6346 140.763Z" fill="#495CAB"/>
<path d="M91.8355 133.732L87.7453 137.196L59.4205 125.954L65.0343 121.13C65.3581 120.857 65.7506 120.679 66.169 120.614C66.5873 120.549 67.0155 120.6 67.4067 120.762L91.0276 130.022C91.3912 130.143 91.7171 130.356 91.9732 130.641C92.2292 130.926 92.4068 131.273 92.4882 131.647C92.5697 132.021 92.5524 132.41 92.438 132.776C92.3235 133.141 92.1159 133.471 91.8355 133.732Z" fill="#495CAB"/>
<path d="M56.22 21.0026C61.0993 21.0026 65.0548 17.0491 65.0548 12.1723C65.0548 7.29546 61.0993 3.34201 56.22 3.34201C51.3406 3.34201 47.3851 7.29546 47.3851 12.1723C47.3851 17.0491 51.3406 21.0026 56.22 21.0026Z" fill="white"/>
<path d="M65.3514 11.7124C65.832 19.7455 56.0155 24.4059 50.0949 18.9585C48.3094 17.3252 47.2396 15.0547 47.1171 12.6387C46.9946 10.2227 47.8293 7.85568 49.4404 6.05038C54.7782 0.0408895 65.0139 3.67929 65.3514 11.7124ZM61.4657 11.9168C61.4306 10.7369 61.0556 9.59228 60.3856 8.62022C59.7157 7.64815 58.7793 6.89001 57.6888 6.43678C56.5984 5.98356 55.4002 5.85453 54.2382 6.06517C53.0761 6.27582 51.9996 6.81719 51.1379 7.62429C50.477 8.2537 49.9599 9.01834 49.6219 9.86593C49.2839 10.7135 49.1331 11.624 49.1797 12.5353C49.2263 13.4465 49.4693 14.3369 49.8919 15.1456C50.3146 15.9544 50.907 16.6623 51.6287 17.2211C52.5674 17.9224 53.6875 18.3403 54.8564 18.4254C56.0253 18.5105 57.1941 18.2592 58.2246 17.7012C59.255 17.1433 60.1041 16.302 60.6712 15.2769C61.2383 14.2518 61.4998 13.0858 61.4248 11.9168H61.4657Z" fill="#D39600"/>
<path d="M56.7926 14.1448C58.4473 14.1448 59.7887 12.8041 59.7887 11.1503C59.7887 9.49643 58.4473 8.15573 56.7926 8.15573C55.1379 8.15573 53.7965 9.49643 53.7965 11.1503C53.7965 12.8041 55.1379 14.1448 56.7926 14.1448Z" fill="#292D8E"/>
<path d="M39.1229 30.1088C44.0022 30.1088 47.9577 26.1553 47.9577 21.2785C47.9577 16.4017 44.0022 12.4482 39.1229 12.4482C34.2435 12.4482 30.288 16.4017 30.288 21.2785C30.288 26.1553 34.2435 30.1088 39.1229 30.1088Z" fill="white"/>
<path d="M48.2543 20.8186C48.7247 28.8517 38.9184 33.5121 32.9876 28.0647C31.2021 26.4314 30.1323 24.1609 30.0098 21.7449C29.8873 19.3289 30.722 16.9619 32.3331 15.1566C37.6811 9.14709 47.9169 12.7855 48.2543 20.8186ZM44.3686 21.0128C44.3248 19.8418 43.9463 18.7078 43.2778 17.7451C42.6093 16.7824 41.6788 16.0314 40.5965 15.5808C39.5142 15.1303 38.3254 14.9991 37.1708 15.2029C36.0162 15.4066 34.9442 15.9367 34.0817 16.7305C33.4255 17.359 32.9122 18.1212 32.5765 18.9654C32.2409 19.8096 32.0908 20.716 32.1363 21.6233C32.1819 22.5305 32.4221 23.4174 32.8407 24.2237C33.2593 25.03 33.8464 25.737 34.5623 26.2966C35.5016 27.0018 36.6238 27.4227 37.7954 27.5091C38.967 27.5956 40.1389 27.344 41.1716 26.7843C42.2044 26.2246 43.0546 25.3803 43.6214 24.3517C44.1881 23.3232 44.4474 22.1537 44.3686 20.9821V21.0128Z" fill="#D39600"/>
<path d="M39.6955 23.251C41.3502 23.251 42.6916 21.9103 42.6916 20.2565C42.6916 18.6027 41.3502 17.262 39.6955 17.262C38.0408 17.262 36.6994 18.6027 36.6994 20.2565C36.6994 21.9103 38.0408 23.251 39.6955 23.251Z" fill="#292D8E"/>
<path d="M62.9586 21.6362C62.9586 21.6362 48.6429 18.6417 45.4218 28.5859C42.2008 38.5302 39.9921 36.5168 39.9921 36.5168C39.9921 36.5168 34.2862 51.9289 58.807 46.3385C58.807 46.3385 82.3258 38.0908 78.348 25.571C74.3703 13.0512 65.5048 22.6991 65.5048 22.6991L62.9586 21.6362Z" fill="#F7931E"/>
<path d="M62.6416 22.6582C58.081 21.9428 52.5183 22.0144 48.8882 25.1213C46.9556 26.7668 46.4546 29.0357 45.5547 31.4272C44.5935 33.6041 42.9574 38.4076 39.8898 37.6309C39.6748 37.554 39.4768 37.4359 39.3069 37.2834L41.0555 36.8746C40.0329 40.8094 41.3827 44.7646 45.7797 45.388C49.4813 46.2056 55.3405 44.9588 58.1423 44.2945C64.5128 41.5554 72.6115 37.6309 75.7303 31.3352C76.8346 29.0357 76.4767 26.7463 75.536 24.457C74.7077 22.4641 73.4295 20.4916 71.0265 21.0639C69.2975 21.4977 67.6825 22.2995 66.2921 23.4145C66.1424 23.5738 65.9477 23.6836 65.7339 23.7293C65.5201 23.7749 65.2974 23.7543 65.0957 23.67L62.6416 22.648V22.6582ZM63.2756 20.6142L65.9137 21.6873L64.7174 21.953C70.8527 14.0528 78.5116 16.6999 80.8635 25.8981C82.6529 33.2566 76.5176 39.3479 70.9038 42.8841C67.2724 45.1723 63.3837 47.0247 59.3183 48.403C52.6921 49.5681 42.2723 51.326 38.7547 43.7528C37.8816 41.2675 37.9802 38.5442 39.0308 36.1285L40.7692 35.7095C40.6158 35.5868 40.6669 35.6277 40.5749 35.597C42.1394 34.575 42.8245 32.3777 43.5914 30.6607C44.4401 28.2385 45.3298 25.2746 47.4976 23.5065C51.8843 19.8068 57.9992 19.6944 63.3165 20.604L63.2756 20.6142Z" fill="#D86E24"/>
<path d="M60.8828 25.1315C58.6741 25.7243 56.3938 26.6135 54.0624 26.0411C53.2136 25.99 52.6615 26.9712 52.1093 27.615L52.3036 26.685C52.7842 30.0883 49.737 32.6843 46.9761 33.9822C46.9573 33.9957 46.936 34.0052 46.9135 34.0105C46.891 34.0157 46.8677 34.0164 46.8449 34.0126C46.8221 34.0088 46.8003 34.0006 46.7807 33.9883C46.7611 33.9761 46.7441 33.9601 46.7306 33.9414C46.7172 33.9226 46.7076 33.9013 46.7024 33.8788C46.6972 33.8563 46.6965 33.833 46.7003 33.8102C46.7041 33.7875 46.7123 33.7657 46.7245 33.7461C46.7368 33.7265 46.7527 33.7095 46.7715 33.6961L47.5282 32.9398C48.96 31.6042 49.8392 29.7811 49.9926 27.8297C49.9729 27.3606 50.0072 26.8908 50.0948 26.4295C50.7019 25.4318 51.6558 24.6931 52.7739 24.3548C53.9192 23.9358 54.5941 24.5694 55.7087 24.8147C57.4067 25.0206 59.1234 25.0206 60.8214 24.8147C60.8674 24.8077 60.9143 24.8183 60.9527 24.8445C60.9911 24.8706 61.0182 24.9103 61.0286 24.9556C61.0389 25.0009 61.0318 25.0484 61.0085 25.0886C60.9853 25.1288 60.9477 25.1588 60.9032 25.1724L60.8828 25.1315Z" fill="white"/>
<path d="M44.3174 40.3699C48.6633 39.8793 52.6103 40.8605 56.8641 40.0224C61.0297 39.3539 65.0574 38.0074 68.7871 36.0365C68.9609 35.9241 69.1552 36.2 68.9814 36.3329C63.7959 40.5526 57.2587 42.756 50.5754 42.5366C48.3021 42.6715 46.0508 42.026 44.1947 40.7072C44.1668 40.6818 44.1468 40.649 44.1372 40.6125C44.1276 40.576 44.1289 40.5376 44.1408 40.5018C44.1528 40.4661 44.1748 40.4346 44.2044 40.4111C44.2339 40.3877 44.2696 40.3734 44.3072 40.3699H44.3174Z" fill="white"/>
</g>
<defs>
<clipPath id="clip0_837_277">
<rect width="180" height="168" fill="white"/>
</clipPath>
</defs>
</svg>
