<svg width="35" height="35" viewBox="0 0 35 35" fill="none" xmlns="http://www.w3.org/2000/svg">
<path d="M0 17.5C0 14.0388 1.02636 10.6554 2.94928 7.77753C4.87221 4.89967 7.60533 2.65665 10.803 1.33212C14.0007 0.00758251 17.5194 -0.338976 20.9141 0.336265C24.3088 1.01151 27.427 2.67822 29.8744 5.12564C32.3218 7.57306 33.9885 10.6913 34.6637 14.0859C35.339 17.4806 34.9924 20.9993 33.6679 24.197C32.3434 27.3947 30.1003 30.1278 27.2225 32.0507C24.3446 33.9737 20.9612 35 17.5 35C12.8587 35 8.40752 33.1563 5.12563 29.8744C1.84374 26.5925 0 22.1413 0 17.5Z" fill="white"/>
</svg>
