<svg width="30" height="25" viewBox="0 0 30 25" fill="none" xmlns="http://www.w3.org/2000/svg">
<path d="M29.6734 4.68316C29.5866 4.40821 29.4221 4.16422 29.1999 3.98055C28.9776 3.79688 28.707 3.68137 28.4207 3.64792L1.95079 0.513596L1.94637 0.511295C1.64035 0.476716 1.33113 0.537445 1.06092 0.685186C0.790714 0.832927 0.572702 1.06048 0.436659 1.33676C0.300616 1.61304 0.253176 1.92458 0.300818 2.22883C0.34846 2.53309 0.488861 2.81521 0.702846 3.03669L0.721774 3.05566L6.62608 10.2457C6.75075 10.3677 6.90523 10.4548 7.07409 10.4984C7.24296 10.542 7.42031 10.5406 7.58844 10.4942L25.6762 5.48028C25.7313 5.46286 25.7894 5.45648 25.8471 5.46151C25.9047 5.46654 25.9608 5.48287 26.0121 5.50958C26.0635 5.53629 26.109 5.57284 26.1463 5.61716C26.1835 5.66148 26.2116 5.71269 26.229 5.76788C26.2464 5.82306 26.2528 5.88114 26.2478 5.93878C26.2427 5.99643 26.2264 6.05253 26.1997 6.10386C26.173 6.1552 26.1364 6.20077 26.0921 6.23798C26.0478 6.27519 25.9966 6.3033 25.9414 6.32072L8.25466 12.592C8.09037 12.6505 7.94432 12.7511 7.83106 12.8838C7.71781 13.0164 7.64133 13.1764 7.60926 13.3479L6.90062 22.6296C6.89818 22.6424 6.89632 22.654 6.89473 22.6666C6.80503 23.2711 7.06474 23.8656 7.59332 24.1715L7.6486 24.2002C7.92102 24.3439 8.23037 24.4024 8.53643 24.3679C8.8425 24.3334 9.13112 24.2077 9.36476 24.007L29.236 6.25179C29.4526 6.06054 29.6092 5.81061 29.6869 5.53222C29.7645 5.25384 29.7598 4.95893 29.6734 4.68316Z" fill="#ECECEC"/>
</svg>
