<svg width="176" height="165" viewBox="0 0 176 165" fill="none" xmlns="http://www.w3.org/2000/svg">
<g clip-path="url(#clip0_119_451)">
<path d="M173.173 35.2917L102.664 10.4832C101.994 10.1346 101.256 9.93468 100.5 9.8972C99.7448 9.85972 98.9902 9.98555 98.2882 10.2661C97.5863 10.5465 96.9536 10.9751 96.4336 11.5222C95.9136 12.0693 95.5187 12.722 95.2759 13.4356L81.6661 51.395C80.5608 51.0135 79.4026 50.8058 78.2332 50.7794C76.3908 50.8174 74.6781 50.9846 72.893 50.7984C67.9534 50.4185 65.2909 48.4274 65.7525 43.9589C72.7938 40.6645 83.0202 34.1632 80.7316 24.907C77.2986 11.0493 67.6749 21.0693 67.6749 21.0693L65.1078 19.7887C65.1078 19.7887 64.6692 19.6671 63.9254 19.519C64.9306 18.6928 65.7379 17.6534 66.2883 16.4766C66.8386 15.2999 67.1182 14.0156 67.1066 12.7174C67.0875 5.33072 58.7149 1.37139 53.0238 5.38012C48.1948 -0.783058 39.8909 -1.32642 33.1279 2.07815C28.4896 4.35799 24.7859 7.56497 21.475 11.3153C10.2988 24.337 16.8977 40.9533 27.4369 51.9726C28.1502 52.7325 28.8596 53.4355 29.6034 54.1232C26.0636 55.6881 22.2646 56.5897 18.3967 56.783C13.7338 57.014 9.07495 56.2537 4.72976 54.5526C4.55945 54.5011 4.38062 54.4835 4.20348 54.5009C4.02635 54.5182 3.8544 54.5702 3.69745 54.6539C3.54051 54.7375 3.40166 54.8511 3.28884 54.9883C3.17603 55.1254 3.09147 55.2834 3.03999 55.4531C2.81875 56.0117 2.63566 56.5094 2.4602 57.0414C1.25586 60.7099 0.487732 64.5064 0.171558 68.3532C-1.33131 85.7067 6.97644 100.165 22.9702 107.388C25.2142 108.407 27.5201 109.285 29.8743 110.017L19.7966 116.678C19.177 117.248 18.7042 117.958 18.4183 118.748C18.1324 119.538 18.0417 120.385 18.1539 121.217C18.2662 122.05 18.5781 122.843 19.0632 123.53C19.5483 124.216 20.1924 124.777 20.9409 125.163L96.733 164.407C97.689 164.902 98.7749 165.092 99.8429 164.95C100.911 164.809 101.909 164.343 102.702 163.617L143.661 125.577C144.191 125.093 144.616 124.506 144.908 123.851C145.201 123.197 145.355 122.49 145.361 121.773C145.368 121.057 145.226 120.347 144.946 119.688C144.665 119.028 144.251 118.433 143.73 117.94C144.368 118.212 145.054 118.351 145.748 118.35C146.842 118.348 147.908 118.004 148.797 117.369C149.686 116.733 150.354 115.837 150.707 114.805L175.706 41.6145C176.111 40.4329 176.079 39.1459 175.614 37.9862C175.15 36.8265 174.284 35.8707 173.173 35.2917ZM89.9319 90.1942C89.9052 90.255 89.8823 90.312 89.8556 90.3689C87.7691 95.1148 83.8594 98.8006 78.8511 101.05C70.4022 104.884 60.4733 105.325 51.1891 104.941C47.2278 104.766 43.2798 104.365 39.3645 103.74C32.9181 102.673 26.632 100.811 20.9753 97.5429C6.48057 89.2594 2.9103 73.1257 5.39347 57.7102C7.23577 58.3485 9.12601 58.8402 11.0464 59.1807C17.9049 60.373 24.9646 59.4971 31.3199 56.6652C31.9417 56.3765 32.4642 56.1257 33.0822 55.7647C33.2786 55.7648 33.471 55.7096 33.6373 55.6055C33.8035 55.5013 33.9368 55.3524 34.0218 55.176C34.1067 54.9996 34.1399 54.8029 34.1174 54.6085C34.0949 54.4142 34.0177 54.2301 33.8946 54.0776L33.3415 53.3937C32.8686 52.8047 32.3422 52.1511 31.8654 51.4938C26.838 44.7037 22.1425 36.7128 21.7801 28.1938C21.536 22.1142 24.3625 16.9655 28.7147 12.915C34.8864 6.74423 43.1636 1.62598 51.0136 7.31039C48.3436 10.7302 48.6296 15.989 51.8147 19.0478C52.1802 19.4109 52.5757 19.7426 52.9971 20.0395C51.856 20.4613 50.7937 21.07 49.8541 21.8406C49.897 21.485 49.9187 21.1272 49.9189 20.7691C49.8998 12.8428 40.2609 8.86448 34.6155 14.4577C31.1406 17.7939 31.1406 23.7481 34.6155 27.0842C36.1036 28.5742 38.0738 29.4902 40.1759 29.6697C42.278 29.8492 44.376 29.2805 46.0969 28.0646C42.6372 36.823 40.7262 34.7293 40.7262 34.7293C40.7262 34.7293 34.0434 51.1974 59.5617 46.4553C59.5617 46.4553 60.0652 46.2995 60.9158 45.988C60.9158 46.2311 60.9158 46.4819 60.9387 46.7479C61.179 51.1746 64.5128 54.4994 68.5675 55.8065C71.4588 56.7944 74.4188 57.0262 77.4131 57.03C78.1273 57.0275 78.8346 57.1697 79.4919 57.448C80.5574 57.9368 81.5414 58.5852 82.4099 59.3707C83.879 60.7462 85.1787 62.2908 86.2815 63.9721C89.7022 69.23 91.5333 75.3565 91.5568 81.6219C91.555 82.7502 91.4811 83.8772 91.3356 84.9961C91.1111 86.7851 90.6387 88.5344 89.9319 90.1942ZM60.0461 23.1553C60.9387 23.1819 61.8427 23.1553 62.7429 23.1059C62.7904 23.1041 62.837 23.1196 62.8738 23.1497C62.9106 23.1797 62.9351 23.2221 62.9426 23.2689C62.9501 23.3157 62.9402 23.3637 62.9146 23.4036C62.889 23.4436 62.8497 23.4729 62.8039 23.4859C61.4983 23.8582 60.1656 24.1288 58.8179 24.2952C58.3111 24.35 57.8018 24.3779 57.2921 24.3788C56.8001 24.3807 56.3117 24.2944 55.8503 24.1242C55.2057 23.8393 54.4695 24.7322 53.9736 25.344C53.9316 27.791 52.0664 29.9341 50.1287 31.2374C49.4722 31.6798 48.7763 32.0614 48.0498 32.3773C48.0074 32.3955 47.9598 32.398 47.9156 32.3844C47.8714 32.3709 47.8336 32.3421 47.8088 32.3032C47.784 32.2643 47.7739 32.2179 47.7803 32.1723C47.7868 32.1267 47.8093 32.0849 47.8439 32.0543C48.9695 31.1088 49.9142 29.9683 50.6322 28.6877C51.1987 27.6381 51.4801 26.4593 51.4485 25.268C51.4485 25.2414 51.4485 25.1692 51.4485 25.1426L51.6773 24.2078C52.5852 23.0679 53.8783 22.1294 55.4269 22.1674C55.8339 22.1983 56.227 22.3288 56.5712 22.5474C56.6722 22.6261 56.7839 22.6901 56.9031 22.7373C57.3725 22.905 57.8604 23.016 58.3563 23.0679C58.9171 23.1211 59.4778 23.1553 60.0461 23.1553ZM46.0969 20.7653C46.1198 25.7733 40.196 28.7447 36.2329 25.4618C33.3301 23.1211 33.3301 18.4132 36.2329 16.0688C40.2075 12.7972 46.1312 15.7572 46.0969 20.7653ZM67.3087 37.146C68.3462 36.766 69.3113 36.234 70.3603 35.8199C70.3837 35.8084 70.4092 35.8018 70.4353 35.8004C70.4614 35.799 70.4875 35.8028 70.5121 35.8117C70.5367 35.8205 70.5592 35.8343 70.5783 35.852C70.5974 35.8697 70.6128 35.8911 70.6234 35.9148C70.6406 35.9541 70.6438 35.998 70.6328 36.0394C70.6217 36.0808 70.5969 36.1172 70.5624 36.1428C69.6508 36.7926 68.7582 37.5031 67.7855 38.0427C67.2566 38.3619 66.715 38.6608 66.1606 38.9394C65.5503 39.251 64.9247 39.5398 64.2915 39.8096C63.5096 40.1326 62.7124 40.4213 61.9075 40.6721C58.4857 41.7463 54.8861 42.1438 51.3112 41.8424C48.9767 41.6677 46.608 41.2079 44.8267 39.517C44.7988 39.4881 44.7799 39.4518 44.7722 39.4124C44.7645 39.3731 44.7683 39.3323 44.7832 39.2951C44.7981 39.2579 44.8234 39.2257 44.8561 39.2023C44.8889 39.179 44.9276 39.1656 44.9678 39.1636C47.2565 38.9546 49.2895 39.3156 51.5019 39.5436C55.4115 39.8918 59.3521 39.5444 63.1396 38.5177C63.3494 38.4607 63.5592 38.4037 63.769 38.3391C64.0474 38.2631 64.3221 38.1795 64.5929 38.0921C65.5198 37.8261 66.4276 37.4993 67.3202 37.146H67.3087ZM63.296 12.7326C63.2972 13.5593 63.1291 14.3775 62.8021 15.1372C62.4751 15.897 61.996 16.5823 61.3941 17.1513C60.7921 17.7204 60.08 18.1611 59.3013 18.4467C58.5226 18.7323 57.6935 18.8566 56.8649 18.8122C55.6026 18.7365 54.3985 18.2567 53.432 17.4443C50.6246 15.1645 50.533 10.696 53.1573 8.29072C53.2197 8.22959 53.286 8.17248 53.3557 8.11974C53.3557 8.11974 53.3557 8.11974 53.3786 8.11974C53.4655 8.06716 53.5451 8.00327 53.6151 7.92975C57.6011 4.85576 63.3303 7.80436 63.3074 12.7326H63.296ZM57.1586 136.939L48.931 133.234C48.581 133.092 48.2743 132.862 48.041 132.566C47.8078 132.27 47.6561 131.918 47.601 131.546C47.5459 131.174 47.5893 130.794 47.7269 130.443C47.8645 130.093 48.0915 129.784 48.3855 129.548L51.4141 127.211L62.3805 132.208L57.1586 136.939ZM73.942 143.197C73.6111 143.445 73.2189 143.599 72.8071 143.642C72.3954 143.686 71.9795 143.617 71.6037 143.444L62.4492 139.317L67.6444 134.609L78.607 139.602L73.942 143.197ZM86.9872 133.131L82.86 136.319L55.6863 123.913L61.4079 119.486C61.7391 119.239 62.1315 119.086 62.5432 119.043C62.955 119 63.3707 119.069 63.7461 119.243L86.415 129.449C86.7663 129.588 87.0751 129.816 87.311 130.11C87.5468 130.404 87.7014 130.754 87.7596 131.126C87.8178 131.498 87.7775 131.879 87.6427 132.23C87.5079 132.582 87.2832 132.893 86.991 133.131H86.9872ZM143.822 108.38L99.3344 85.5813C99.7917 80.9614 99.3144 76.2971 97.9307 71.8642C97.5493 70.5799 97.0725 69.269 96.5308 67.9581L105.655 43.2597L106.418 43.5447L104.415 74.6646L113.112 77.8526L126.512 41.5651L120.638 39.4144L110.293 67.4831L109.53 67.2019L111.521 36.0744L102.828 32.8865L92.5906 60.598C91.5421 59.0549 90.3534 57.6113 89.0393 56.2853L102.26 19.4278L166.494 42.0286L143.822 108.38Z" fill="#292D8E"/>
<path d="M38.6322 19.7929C38.6322 20.3715 38.8045 20.9372 39.1272 21.4184C39.4499 21.8995 39.9086 22.2745 40.4453 22.496C40.982 22.7174 41.5726 22.7753 42.1423 22.6625C42.712 22.5496 43.2354 22.2709 43.6461 21.8617C44.0569 21.4525 44.3366 20.9312 44.4499 20.3637C44.5633 19.7961 44.5051 19.2078 44.2828 18.6732C44.0605 18.1386 43.6841 17.6816 43.2011 17.3602C42.718 17.0387 42.1502 16.8671 41.5693 16.8671C41.1834 16.8666 40.8013 16.9419 40.4447 17.0888C40.0882 17.2356 39.7642 17.4511 39.4913 17.7229C39.2185 17.9947 39.0022 18.3174 38.8548 18.6726C38.7073 19.0278 38.6317 19.4085 38.6322 19.7929Z" fill="#292D8E"/>
<path d="M61.4792 12.8743C62.0991 11.3834 61.3884 9.67407 59.8917 9.05651C58.395 8.43894 56.6792 9.14695 56.0592 10.6379C55.4393 12.1288 56.15 13.8381 57.6467 14.4557C59.1434 15.0732 60.8593 14.3652 61.4792 12.8743Z" fill="#292D8E"/>
<path d="M51.5058 66.5943C48.8662 63.3721 44.4186 61.3468 40.7186 64.1587C33.0899 69.9191 22.1082 71.3136 12.7248 70.6866C12.5493 70.6866 12.1717 70.6372 12.0039 70.6144C11.8236 70.5947 11.6411 70.6189 11.4723 70.6851C11.3035 70.7513 11.1534 70.8575 11.035 70.9944C10.9375 71.1485 10.8768 71.3229 10.8576 71.504C10.8384 71.6852 10.8613 71.8683 10.9244 72.0393V72.0659V72.1875L10.9664 72.4079C12.7286 80.7673 17.9582 88.7202 25.6976 92.7365C39.2043 100.161 63.38 90.8556 55.3964 72.9779C54.3779 70.6935 53.0704 68.5483 51.5058 66.5943ZM50.1669 79.7148C48.7174 82.7546 45.7651 83.8451 42.5381 84.9508C40.7685 85.5436 38.9396 85.9437 37.0835 86.144C29.2335 87.0673 22.2074 82.1276 16.9817 76.3368C15.8793 75.1361 14.8036 73.8594 13.7814 72.5599C17.7226 72.4875 21.6548 72.1575 25.5526 71.572C30.0956 70.8576 34.6385 69.7671 38.903 67.7152C39.9611 67.1989 40.9889 66.623 41.9812 65.9901C42.7269 65.496 43.6172 65.2646 44.5102 65.3328C46.2114 65.481 47.802 66.8945 48.7747 68.5664C50.4949 71.7467 51.5897 76.4888 50.1669 79.7148Z" fill="#292D8E"/>
<path d="M135.667 86.7063C138.875 87.8929 142.277 88.4703 145.698 88.4086L146.564 82.4316C143.881 82.5922 141.192 82.2043 138.665 81.2917C130.941 78.4609 128.641 72.6283 131.898 63.8129C134.869 55.7612 140.587 52.6644 146.774 54.9291C148.092 55.3838 149.285 56.1395 150.258 57.1359C151.23 58.1322 151.955 59.3414 152.374 60.6667L157.813 57.6269C157.031 54.0627 153.739 50.9963 148.838 49.2029C138.245 45.3195 129.705 49.9058 125.345 61.7116C120.737 74.1621 124.178 82.4937 135.667 86.7063Z" fill="#292D8E"/>
</g>
<defs>
<clipPath id="clip0_119_451">
<rect width="176" height="165" fill="white"/>
</clipPath>
</defs>
</svg>
